<svg width="8" height="13" viewBox="0 0 8 13" fill="none" xmlns="http://www.w3.org/2000/svg">
<path d="M5.80844 6.33333L0.908439 1.43333C0.741773 1.26667 0.661217 1.06944 0.666773 0.841667C0.672328 0.613889 0.758439 0.416667 0.925106 0.25C1.09177 0.0833333 1.28899 0 1.51677 0C1.74455 0 1.94177 0.0833333 2.10844 0.25L7.22511 5.38333C7.35844 5.51667 7.45844 5.66667 7.52511 5.83333C7.59177 6 7.62511 6.16667 7.62511 6.33333C7.62511 6.5 7.59177 6.66667 7.52511 6.83333C7.45844 7 7.35844 7.15 7.22511 7.28333L2.09177 12.4167C1.92511 12.5833 1.73066 12.6639 1.50844 12.6583C1.28622 12.6528 1.09177 12.5667 0.925106 12.4C0.758439 12.2333 0.675106 12.0361 0.675106 11.8083C0.675106 11.5806 0.758439 11.3833 0.925106 11.2167L5.80844 6.33333Z" fill="#303030"/>
</svg>
