<svg width="8" height="14" viewBox="0 0 8 14" fill="none" xmlns="http://www.w3.org/2000/svg">
<path d="M2.48317 7.20372L7.38317 12.1037C7.54984 12.2704 7.63039 12.4648 7.62484 12.6871C7.61928 12.9093 7.53317 13.1037 7.3665 13.2704C7.19984 13.4371 7.00539 13.5204 6.78317 13.5204C6.56095 13.5204 6.3665 13.4371 6.19984 13.2704L1.0665 8.15372C0.933171 8.02039 0.833171 7.87039 0.766504 7.70372C0.699837 7.53705 0.666504 7.37039 0.666504 7.20372C0.666504 7.03705 0.699837 6.87039 0.766504 6.70372C0.833171 6.53705 0.933171 6.38705 1.0665 6.25372L6.19984 1.12038C6.3665 0.953717 6.56373 0.873162 6.7915 0.878717C7.01928 0.884273 7.2165 0.970384 7.38317 1.13705C7.54984 1.30372 7.63317 1.49816 7.63317 1.72038C7.63317 1.94261 7.54984 2.13705 7.38317 2.30372L2.48317 7.20372Z" fill="#303030"/>
</svg>
