<svg width="20" height="10" viewBox="0 0 20 10" fill="none" xmlns="http://www.w3.org/2000/svg">
<path d="M5.83301 10C4.44412 10 3.26356 9.51389 2.29134 8.54167C1.31912 7.56944 0.833008 6.38889 0.833008 5C0.833008 3.61111 1.31912 2.43056 2.29134 1.45833C3.26356 0.486111 4.44412 0 5.83301 0C6.74967 0 7.58995 0.229167 8.35384 0.6875C9.11773 1.14583 9.7219 1.75 10.1663 2.5H19.1663V7.5H17.4997V10H12.4997V7.5H10.1663C9.7219 8.25 9.11773 8.85417 8.35384 9.3125C7.58995 9.77083 6.74967 10 5.83301 10ZM5.83301 8.33333C6.74967 8.33333 7.48579 8.05208 8.04134 7.48958C8.5969 6.92708 8.93023 6.375 9.04134 5.83333H14.1663V8.33333H15.833V5.83333H17.4997V4.16667H9.04134C8.93023 3.625 8.5969 3.07292 8.04134 2.51042C7.48579 1.94792 6.74967 1.66667 5.83301 1.66667C4.91634 1.66667 4.13162 1.99306 3.47884 2.64583C2.82606 3.29861 2.49967 4.08333 2.49967 5C2.49967 5.91667 2.82606 6.70139 3.47884 7.35417C4.13162 8.00694 4.91634 8.33333 5.83301 8.33333ZM5.83301 6.66667C6.29134 6.66667 6.6837 6.50347 7.01009 6.17708C7.33648 5.85069 7.49967 5.45833 7.49967 5C7.49967 4.54167 7.33648 4.14931 7.01009 3.82292C6.6837 3.49653 6.29134 3.33333 5.83301 3.33333C5.37467 3.33333 4.98231 3.49653 4.65592 3.82292C4.32954 4.14931 4.16634 4.54167 4.16634 5C4.16634 5.45833 4.32954 5.85069 4.65592 6.17708C4.98231 6.50347 5.37467 6.66667 5.83301 6.66667Z" fill="#848380"/>
</svg>
