<svg width="18" height="14" viewBox="0 0 18 14" fill="none" xmlns="http://www.w3.org/2000/svg">
<path d="M2.33366 13.6667C1.87533 13.6667 1.48296 13.5035 1.15658 13.1771C0.830187 12.8507 0.666992 12.4583 0.666992 12V2C0.666992 1.54167 0.830187 1.1493 1.15658 0.822915C1.48296 0.496527 1.87533 0.333332 2.33366 0.333332H15.667C16.1253 0.333332 16.5177 0.496527 16.8441 0.822915C17.1705 1.1493 17.3337 1.54167 17.3337 2V12C17.3337 12.4583 17.1705 12.8507 16.8441 13.1771C16.5177 13.5035 16.1253 13.6667 15.667 13.6667H2.33366ZM9.00033 7.83333L2.33366 3.66667V12H15.667V3.66667L9.00033 7.83333ZM9.00033 6.16667L15.667 2H2.33366L9.00033 6.16667ZM2.33366 3.66667V2V12V3.66667Z" fill="#848380"/>
</svg>
