<svg width="20" height="20" viewBox="0 0 20 20" fill="none" xmlns="http://www.w3.org/2000/svg">
<path d="M13.4163 11.0833L12.208 9.875C12.333 9.22222 12.1455 8.61111 11.6455 8.04167C11.1455 7.47222 10.4997 7.25 9.70801 7.375L8.49967 6.16667C8.73578 6.05556 8.97537 5.97222 9.21842 5.91667C9.46148 5.86111 9.7219 5.83333 9.99967 5.83333C11.0413 5.83333 11.9268 6.19792 12.6559 6.92708C13.3851 7.65625 13.7497 8.54167 13.7497 9.58333C13.7497 9.86111 13.7219 10.1215 13.6663 10.3646C13.6108 10.6076 13.5275 10.8472 13.4163 11.0833ZM16.083 13.7083L14.8747 12.5417C15.4025 12.1389 15.8712 11.6979 16.2809 11.2188C16.6906 10.7396 17.0413 10.1944 17.333 9.58333C16.6386 8.18056 15.642 7.06597 14.3434 6.23958C13.0448 5.41319 11.5969 5 9.99967 5C9.5969 5 9.20106 5.02778 8.81217 5.08333C8.42328 5.13889 8.04134 5.22222 7.66634 5.33333L6.37467 4.04167C6.94412 3.80556 7.52745 3.62847 8.12467 3.51042C8.7219 3.39236 9.3469 3.33333 9.99967 3.33333C12.0969 3.33333 13.965 3.91319 15.6038 5.07292C17.2427 6.23264 18.4302 7.73611 19.1663 9.58333C18.8469 10.4028 18.4268 11.1632 17.9059 11.8646C17.3851 12.566 16.7775 13.1806 16.083 13.7083ZM16.4997 18.8333L12.9997 15.375C12.5136 15.5278 12.024 15.6424 11.5309 15.7188C11.0379 15.7951 10.5275 15.8333 9.99967 15.8333C7.90245 15.8333 6.0344 15.2535 4.39551 14.0938C2.75662 12.934 1.56912 11.4306 0.833008 9.58333C1.12467 8.84722 1.49273 8.16319 1.93717 7.53125C2.38162 6.89931 2.88856 6.33333 3.45801 5.83333L1.16634 3.5L2.33301 2.33333L17.6663 17.6667L16.4997 18.8333ZM4.62467 7C4.2219 7.36111 3.85384 7.75694 3.52051 8.1875C3.18717 8.61806 2.90245 9.08333 2.66634 9.58333C3.36079 10.9861 4.35731 12.1007 5.65592 12.9271C6.95454 13.7535 8.40245 14.1667 9.99967 14.1667C10.2775 14.1667 10.5483 14.1493 10.8122 14.1146C11.0761 14.0799 11.3469 14.0417 11.6247 14L10.8747 13.2083C10.7219 13.25 10.5761 13.2813 10.4372 13.3021C10.2983 13.3229 10.1525 13.3333 9.99967 13.3333C8.95801 13.3333 8.07259 12.9688 7.34342 12.2396C6.61426 11.5104 6.24967 10.625 6.24967 9.58333C6.24967 9.43056 6.26009 9.28472 6.28092 9.14583C6.30176 9.00695 6.33301 8.86111 6.37467 8.70833L4.62467 7Z" fill="#848380"/>
</svg>
