<svg width="96" height="96" viewBox="0 0 96 96" fill="none" xmlns="http://www.w3.org/2000/svg">
<g filter="url(#filter0_d_1970_12642)">
<rect x="23" y="23" width="50" height="50" rx="25" fill="white"/>
</g>
<path fill-rule="evenodd" clip-rule="evenodd" d="M67 48C67 58.4934 58.4934 67 48 67C37.5066 67 29 58.4934 29 48C29 37.5066 37.5066 29 48 29C58.4934 29 67 37.5066 67 48ZM69 48C69 59.598 59.598 69 48 69C36.402 69 27 59.598 27 48C27 36.402 36.402 27 48 27C59.598 27 69 36.402 69 48ZM44.5348 44.0935C44.5348 44.3472 44.723 44.5818 44.9768 44.5818H46.0187C46.2972 44.5818 46.5348 44.372 46.5348 44.0935C46.5348 41.666 44.567 39.6981 42.1395 39.6981C39.712 39.6981 37.7441 41.666 37.7441 44.0935C37.7441 44.372 37.9818 44.5818 38.2603 44.5818H39.3022C39.556 44.5818 39.7441 44.3472 39.7441 44.0935C39.7441 42.7706 40.8166 41.6981 42.1395 41.6981C43.4624 41.6981 44.5348 42.7706 44.5348 44.0935ZM56.6975 44.5818C56.4437 44.5818 56.2555 44.3472 56.2555 44.0935C56.2555 42.7706 55.1831 41.6981 53.8602 41.6981C52.5373 41.6981 51.4648 42.7706 51.4648 44.0935C51.4648 44.3472 51.2767 44.5818 51.0229 44.5818H49.981C49.7025 44.5818 49.4648 44.372 49.4648 44.0935C49.4648 41.666 51.4327 39.6981 53.8602 39.6981C56.2877 39.6981 58.2555 41.666 58.2555 44.0935C58.2555 44.372 58.0179 44.5818 57.7394 44.5818H56.6975ZM38.8943 52.3508C38.5621 51.7117 39.0639 50.9996 39.7841 50.9996C40.1966 50.9996 40.5655 51.2451 40.7646 51.6064C42.1696 54.1561 44.8832 55.8836 48.0002 55.8836C51.1173 55.8836 53.8309 54.1561 55.2359 51.6064C55.435 51.2451 55.8038 50.9996 56.2163 50.9996C56.9366 50.9996 57.4383 51.7117 57.1062 52.3508C55.3976 55.6382 51.9611 57.8836 48.0002 57.8836C44.0393 57.8836 40.6028 55.6382 38.8943 52.3508Z" fill="#E9B347"/>
<defs>
<filter id="filter0_d_1970_12642" x="0" y="0" width="96" height="96" filterUnits="userSpaceOnUse" color-interpolation-filters="sRGB">
<feFlood flood-opacity="0" result="BackgroundImageFix"/>
<feColorMatrix in="SourceAlpha" type="matrix" values="0 0 0 0 0 0 0 0 0 0 0 0 0 0 0 0 0 0 127 0" result="hardAlpha"/>
<feMorphology radius="7" operator="dilate" in="SourceAlpha" result="effect1_dropShadow_1970_12642"/>
<feOffset/>
<feGaussianBlur stdDeviation="8"/>
<feComposite in2="hardAlpha" operator="out"/>
<feColorMatrix type="matrix" values="0 0 0 0 0 0 0 0 0 0 0 0 0 0 0 0 0 0 0.05 0"/>
<feBlend mode="normal" in2="BackgroundImageFix" result="effect1_dropShadow_1970_12642"/>
<feBlend mode="normal" in="SourceGraphic" in2="effect1_dropShadow_1970_12642" result="shape"/>
</filter>
</defs>
</svg>
