<svg width="113" height="93" viewBox="0 0 113 93" fill="none" xmlns="http://www.w3.org/2000/svg">
<g filter="url(#filter0_d_1970_12659)">
<rect x="23.5" y="23" width="66" height="47" rx="4" fill="white"/>
</g>
<mask id="path-2-inside-1_1970_12659" fill="white">
<path fill-rule="evenodd" clip-rule="evenodd" d="M35.5 31H32.5V62H35.5V31ZM44.5 31H42.5V62H44.5V31ZM64.5 31H66.5V62H64.5V31ZM69.5 31H67.5V62H69.5V31ZM72.5 31H74.5V62H72.5V31ZM50.5 31H47.5V62H50.5V31ZM59.5 31H62.5V62H59.5V31ZM57.5 31H53.5V62H57.5V31ZM76.5 31H80.5V62H76.5V31ZM40.5 31H36.5V62H40.5V31Z"/>
</mask>
<path fill-rule="evenodd" clip-rule="evenodd" d="M35.5 31H32.5V62H35.5V31ZM44.5 31H42.5V62H44.5V31ZM64.5 31H66.5V62H64.5V31ZM69.5 31H67.5V62H69.5V31ZM72.5 31H74.5V62H72.5V31ZM50.5 31H47.5V62H50.5V31ZM59.5 31H62.5V62H59.5V31ZM57.5 31H53.5V62H57.5V31ZM76.5 31H80.5V62H76.5V31ZM40.5 31H36.5V62H40.5V31Z" fill="#E9B347"/>
<path d="M32.5 31V30.8H32.3V31H32.5ZM35.5 31H35.7V30.8H35.5V31ZM32.5 62H32.3V62.2H32.5V62ZM35.5 62V62.2H35.7V62H35.5ZM42.5 31V30.8H42.3V31H42.5ZM44.5 31H44.7V30.8H44.5V31ZM42.5 62H42.3V62.2H42.5V62ZM44.5 62V62.2H44.7V62H44.5ZM66.5 31H66.7V30.8H66.5V31ZM64.5 31V30.8H64.3V31H64.5ZM66.5 62V62.2H66.7V62H66.5ZM64.5 62H64.3V62.2H64.5V62ZM67.5 31V30.8H67.3V31H67.5ZM69.5 31H69.7V30.8H69.5V31ZM67.5 62H67.3V62.2H67.5V62ZM69.5 62V62.2H69.7V62H69.5ZM74.5 31H74.7V30.8H74.5V31ZM72.5 31V30.8H72.3V31H72.5ZM74.5 62V62.2H74.7V62H74.5ZM72.5 62H72.3V62.2H72.5V62ZM47.5 31V30.8H47.3V31H47.5ZM50.5 31H50.7V30.8H50.5V31ZM47.5 62H47.3V62.2H47.5V62ZM50.5 62V62.2H50.7V62H50.5ZM62.5 31H62.7V30.8H62.5V31ZM59.5 31V30.8H59.3V31H59.5ZM62.5 62V62.2H62.7V62H62.5ZM59.5 62H59.3V62.2H59.5V62ZM53.5 31V30.8H53.3V31H53.5ZM57.5 31H57.7V30.8H57.5V31ZM53.5 62H53.3V62.2H53.5V62ZM57.5 62V62.2H57.7V62H57.5ZM80.5 31H80.7V30.8H80.5V31ZM76.5 31V30.8H76.3V31H76.5ZM80.5 62V62.2H80.7V62H80.5ZM76.5 62H76.3V62.2H76.5V62ZM36.5 31V30.8H36.3V31H36.5ZM40.5 31H40.7V30.8H40.5V31ZM36.5 62H36.3V62.2H36.5V62ZM40.5 62V62.2H40.7V62H40.5ZM32.5 31.2H35.5V30.8H32.5V31.2ZM32.7 62V31H32.3V62H32.7ZM35.5 61.8H32.5V62.2H35.5V61.8ZM35.3 31V62H35.7V31H35.3ZM42.5 31.2H44.5V30.8H42.5V31.2ZM42.7 62V31H42.3V62H42.7ZM44.5 61.8H42.5V62.2H44.5V61.8ZM44.3 31V62H44.7V31H44.3ZM66.5 30.8H64.5V31.2H66.5V30.8ZM66.7 62V31H66.3V62H66.7ZM64.5 62.2H66.5V61.8H64.5V62.2ZM64.3 31V62H64.7V31H64.3ZM67.5 31.2H69.5V30.8H67.5V31.2ZM67.7 62V31H67.3V62H67.7ZM69.5 61.8H67.5V62.2H69.5V61.8ZM69.3 31V62H69.7V31H69.3ZM74.5 30.8H72.5V31.2H74.5V30.8ZM74.7 62V31H74.3V62H74.7ZM72.5 62.2H74.5V61.8H72.5V62.2ZM72.3 31V62H72.7V31H72.3ZM47.5 31.2H50.5V30.8H47.5V31.2ZM47.7 62V31H47.3V62H47.7ZM50.5 61.8H47.5V62.2H50.5V61.8ZM50.3 31V62H50.7V31H50.3ZM62.5 30.8H59.5V31.2H62.5V30.8ZM62.7 62V31H62.3V62H62.7ZM59.5 62.2H62.5V61.8H59.5V62.2ZM59.3 31V62H59.7V31H59.3ZM53.5 31.2H57.5V30.8H53.5V31.2ZM53.7 62V31H53.3V62H53.7ZM57.5 61.8H53.5V62.2H57.5V61.8ZM57.3 31V62H57.7V31H57.3ZM80.5 30.8H76.5V31.2H80.5V30.8ZM80.7 62V31H80.3V62H80.7ZM76.5 62.2H80.5V61.8H76.5V62.2ZM76.3 31V62H76.7V31H76.3ZM36.5 31.2H40.5V30.8H36.5V31.2ZM36.7 62V31H36.3V62H36.7ZM40.5 61.8H36.5V62.2H40.5V61.8ZM40.3 31V62H40.7V31H40.3Z" fill="white" mask="url(#path-2-inside-1_1970_12659)"/>
<defs>
<filter id="filter0_d_1970_12659" x="0.5" y="0" width="112" height="93" filterUnits="userSpaceOnUse" color-interpolation-filters="sRGB">
<feFlood flood-opacity="0" result="BackgroundImageFix"/>
<feColorMatrix in="SourceAlpha" type="matrix" values="0 0 0 0 0 0 0 0 0 0 0 0 0 0 0 0 0 0 127 0" result="hardAlpha"/>
<feMorphology radius="7" operator="dilate" in="SourceAlpha" result="effect1_dropShadow_1970_12659"/>
<feOffset/>
<feGaussianBlur stdDeviation="8"/>
<feComposite in2="hardAlpha" operator="out"/>
<feColorMatrix type="matrix" values="0 0 0 0 0 0 0 0 0 0 0 0 0 0 0 0 0 0 0.05 0"/>
<feBlend mode="normal" in2="BackgroundImageFix" result="effect1_dropShadow_1970_12659"/>
<feBlend mode="normal" in="SourceGraphic" in2="effect1_dropShadow_1970_12659" result="shape"/>
</filter>
</defs>
</svg>
