<svg width="375" height="309" viewBox="0 0 375 309" fill="none" xmlns="http://www.w3.org/2000/svg">
<mask id="mask0_2046_13338" style="mask-type:luminance" maskUnits="userSpaceOnUse" x="-51" y="-7" width="567" height="292">
<path d="M-50.5729 284L516 284L516 -6.83807L-50.573 -6.83802L-50.5729 284Z" fill="white"/>
</mask>
<g mask="url(#mask0_2046_13338)">
<path d="M356.011 228.756C356.929 228.652 357.856 228.822 358.677 229.245C359.498 229.667 360.175 230.324 360.622 231.131C361.07 231.937 361.268 232.859 361.191 233.778C361.115 234.697 360.768 235.573 360.193 236.295C359.618 237.017 358.842 237.553 357.963 237.835C357.084 238.116 356.141 238.131 355.253 237.878C354.365 237.624 353.573 237.113 352.975 236.41C352.378 235.706 352.003 234.841 351.898 233.925C351.761 232.695 352.117 231.462 352.888 230.493C353.658 229.525 354.781 228.9 356.011 228.756Z" fill="#05693A"/>
<path d="M325.055 232.29C325.972 232.186 326.9 232.356 327.721 232.778C328.541 233.201 329.218 233.857 329.666 234.664C330.113 235.471 330.311 236.392 330.235 237.312C330.159 238.231 329.811 239.107 329.236 239.829C328.662 240.551 327.886 241.087 327.007 241.368C326.127 241.65 325.184 241.665 324.296 241.411C323.409 241.158 322.616 240.647 322.019 239.943C321.422 239.24 321.047 238.375 320.941 237.459C320.804 236.229 321.16 234.995 321.931 234.026C322.701 233.058 323.824 232.433 325.055 232.29Z" fill="#05693A"/>
<path d="M46.4406 264.091C47.6713 263.955 48.9061 264.31 49.8755 265.08C50.8449 265.849 51.4701 266.971 51.6148 268.199C51.7188 269.116 51.5485 270.043 51.1255 270.863C50.7024 271.683 50.0455 272.359 49.2379 272.806C48.4302 273.253 47.508 273.451 46.5878 273.375C45.6676 273.298 44.7907 272.951 44.068 272.377C43.3452 271.803 42.8089 271.028 42.527 270.15C42.2451 269.271 42.2302 268.329 42.4841 267.442C42.738 266.555 43.2494 265.763 43.9537 265.167C44.6579 264.57 45.5233 264.197 46.4406 264.091Z" fill="#05693A"/>
<path d="M15.4852 267.625C16.4027 267.521 17.3305 267.691 18.1512 268.114C18.972 268.536 19.6489 269.193 20.0964 269.999C20.544 270.806 20.742 271.728 20.6656 272.647C20.5892 273.566 20.2417 274.442 19.6671 275.164C19.0925 275.886 18.3165 276.422 17.4373 276.704C16.558 276.985 15.6149 277 14.7271 276.747C13.8393 276.493 13.0468 275.982 12.4496 275.279C11.8523 274.575 11.4773 273.71 11.3718 272.794C11.2351 271.564 11.5909 270.331 12.3616 269.362C13.1323 268.394 14.2552 267.769 15.4852 267.625Z" fill="#05693A"/>
<path d="M356.011 197.628C357.242 197.491 358.477 197.847 359.446 198.616C360.416 199.386 361.041 200.507 361.186 201.735C361.29 202.652 361.119 203.579 360.696 204.399C360.273 205.219 359.616 205.895 358.809 206.342C358.001 206.789 357.079 206.987 356.159 206.911C355.238 206.834 354.362 206.487 353.639 205.913C352.916 205.339 352.38 204.564 352.098 203.686C351.816 202.807 351.801 201.865 352.055 200.978C352.309 200.091 352.82 199.299 353.524 198.703C354.229 198.106 355.094 197.731 356.011 197.626" fill="#05693A"/>
<path d="M325.055 201.161C325.972 201.057 326.9 201.227 327.721 201.65C328.541 202.072 329.218 202.729 329.666 203.535C330.113 204.342 330.311 205.264 330.235 206.183C330.159 207.102 329.811 207.978 329.236 208.7C328.662 209.422 327.886 209.958 327.007 210.24C326.127 210.521 325.184 210.536 324.296 210.283C323.409 210.029 322.616 209.518 322.019 208.815C321.422 208.111 321.047 207.246 320.941 206.33C320.804 205.1 321.16 203.867 321.931 202.898C322.702 201.93 323.825 201.305 325.055 201.161Z" fill="#05693A"/>
<path d="M294.098 204.694C295.015 204.591 295.943 204.761 296.764 205.183C297.584 205.606 298.261 206.262 298.709 207.069C299.156 207.876 299.354 208.797 299.278 209.717C299.202 210.636 298.854 211.512 298.279 212.234C297.705 212.956 296.929 213.492 296.05 213.773C295.17 214.055 294.227 214.07 293.339 213.816C292.452 213.563 291.659 213.052 291.062 212.348C290.465 211.645 290.09 210.78 289.984 209.864C289.847 208.634 290.203 207.4 290.974 206.432C291.745 205.463 292.868 204.839 294.098 204.694Z" fill="#05693A"/>
<path d="M263.14 208.228C264.371 208.092 265.605 208.447 266.575 209.217C267.544 209.986 268.169 211.108 268.314 212.336C268.418 213.253 268.248 214.18 267.825 215C267.402 215.82 266.745 216.496 265.937 216.943C265.129 217.39 264.207 217.588 263.287 217.512C262.367 217.435 261.49 217.088 260.767 216.514C260.044 215.94 259.508 215.165 259.226 214.286C258.944 213.408 258.929 212.466 259.183 211.579C259.437 210.692 259.949 209.9 260.653 209.304C261.357 208.707 262.223 208.334 263.14 208.228Z" fill="#05693A"/>
<path d="M232.183 211.762C233.101 211.658 234.029 211.828 234.849 212.251C235.67 212.673 236.347 213.329 236.795 214.136C237.242 214.943 237.44 215.865 237.364 216.784C237.287 217.703 236.94 218.579 236.365 219.301C235.791 220.023 235.015 220.559 234.135 220.841C233.256 221.122 232.313 221.137 231.425 220.884C230.538 220.63 229.745 220.119 229.148 219.415C228.551 218.712 228.176 217.847 228.07 216.931C227.933 215.701 228.289 214.467 229.06 213.499C229.831 212.53 230.953 211.906 232.183 211.762Z" fill="#05693A"/>
<path d="M201.225 215.295C202.456 215.159 203.69 215.514 204.66 216.284C205.629 217.054 206.254 218.175 206.399 219.404C206.503 220.32 206.333 221.247 205.91 222.067C205.487 222.887 204.83 223.563 204.022 224.01C203.214 224.457 202.292 224.655 201.372 224.579C200.452 224.503 199.575 224.156 198.852 223.581C198.129 223.007 197.593 222.232 197.311 221.354C197.029 220.475 197.014 219.533 197.268 218.646C197.522 217.759 198.034 216.968 198.738 216.371C199.442 215.774 200.308 215.401 201.225 215.295Z" fill="#05693A"/>
<path d="M170.27 218.829C171.188 218.725 172.116 218.895 172.936 219.318C173.757 219.741 174.434 220.397 174.882 221.204C175.329 222.011 175.527 222.932 175.451 223.851C175.374 224.77 175.027 225.646 174.452 226.369C173.878 227.091 173.102 227.626 172.222 227.908C171.343 228.19 170.4 228.205 169.512 227.951C168.624 227.697 167.832 227.186 167.235 226.483C166.637 225.779 166.262 224.915 166.157 223.998C166.02 222.768 166.376 221.535 167.147 220.566C167.917 219.598 169.04 218.973 170.27 218.829Z" fill="#05693A"/>
<path d="M46.4403 232.962C47.3578 232.858 48.2855 233.029 49.1063 233.451C49.927 233.874 50.604 234.53 51.0515 235.337C51.499 236.144 51.6971 237.065 51.6207 237.984C51.5443 238.904 51.1968 239.78 50.6222 240.502C50.0476 241.224 49.2716 241.76 48.3923 242.041C47.5131 242.323 46.5699 242.338 45.6822 242.084C44.7944 241.831 44.0018 241.32 43.4046 240.616C42.8074 239.913 42.4324 239.048 42.3268 238.132C42.1902 236.902 42.546 235.668 43.3167 234.7C44.0874 233.731 45.2103 233.107 46.4403 232.962Z" fill="#05693A"/>
<path d="M15.4846 236.497C16.7151 236.36 17.9499 236.715 18.9193 237.485C19.8888 238.254 20.5141 239.376 20.6587 240.604C20.7628 241.521 20.5925 242.448 20.1694 243.268C19.7463 244.088 19.0895 244.764 18.2818 245.211C17.4742 245.658 16.552 245.856 15.6318 245.78C14.7116 245.703 13.8347 245.356 13.1119 244.782C12.3891 244.208 11.8529 243.433 11.571 242.554C11.2891 241.676 11.2741 240.734 11.528 239.847C11.782 238.96 12.2934 238.168 12.9976 237.572C13.7018 236.975 14.5673 236.6 15.4846 236.495" fill="#05693A"/>
<path d="M356.011 166.5C356.929 166.395 357.857 166.565 358.678 166.988C359.498 167.41 360.176 168.066 360.623 168.873C361.071 169.68 361.269 170.601 361.193 171.521C361.117 172.44 360.769 173.316 360.195 174.038C359.62 174.761 358.844 175.297 357.965 175.578C357.086 175.86 356.143 175.875 355.255 175.621C354.367 175.368 353.574 174.857 352.977 174.153C352.38 173.45 352.005 172.585 351.899 171.669C351.762 170.439 352.118 169.206 352.889 168.237C353.659 167.269 354.782 166.644 356.011 166.5Z" fill="#05693A"/>
<path d="M325.055 170.033C326.286 169.897 327.52 170.252 328.49 171.022C329.459 171.791 330.084 172.913 330.229 174.142C330.333 175.058 330.163 175.985 329.74 176.805C329.317 177.625 328.66 178.301 327.852 178.748C327.044 179.195 326.122 179.393 325.202 179.317C324.282 179.241 323.405 178.893 322.682 178.319C321.959 177.745 321.423 176.97 321.141 176.092C320.859 175.213 320.844 174.271 321.098 173.384C321.352 172.497 321.864 171.705 322.568 171.109C323.272 170.512 324.138 170.139 325.055 170.033Z" fill="#05693A"/>
<path d="M294.097 173.567C295.328 173.43 296.562 173.786 297.532 174.555C298.501 175.325 299.126 176.447 299.271 177.675C299.375 178.592 299.205 179.519 298.782 180.339C298.359 181.159 297.702 181.835 296.894 182.282C296.086 182.729 295.164 182.927 294.244 182.851C293.324 182.774 292.447 182.427 291.724 181.853C291.001 181.279 290.465 180.504 290.183 179.625C289.901 178.747 289.886 177.805 290.14 176.918C290.394 176.031 290.906 175.239 291.61 174.642C292.314 174.046 293.18 173.672 294.097 173.567Z" fill="#05693A"/>
<path d="M263.141 177.099C264.058 176.995 264.986 177.166 265.806 177.588C266.627 178.011 267.304 178.667 267.752 179.474C268.199 180.281 268.397 181.202 268.321 182.121C268.244 183.041 267.897 183.917 267.322 184.639C266.748 185.361 265.972 185.897 265.093 186.178C264.213 186.46 263.27 186.475 262.382 186.221C261.495 185.968 260.702 185.457 260.105 184.753C259.508 184.05 259.133 183.185 259.027 182.269C258.89 181.039 259.246 179.805 260.017 178.837C260.788 177.868 261.911 177.244 263.141 177.099Z" fill="#05693A"/>
<path d="M232.184 180.633C233.415 180.497 234.649 180.852 235.619 181.622C236.588 182.391 237.213 183.513 237.358 184.741C237.462 185.658 237.292 186.585 236.869 187.405C236.446 188.225 235.789 188.901 234.981 189.348C234.173 189.795 233.251 189.993 232.331 189.917C231.411 189.84 230.534 189.493 229.811 188.919C229.088 188.345 228.552 187.57 228.27 186.691C227.988 185.813 227.973 184.871 228.227 183.984C228.481 183.097 228.993 182.305 229.697 181.709C230.401 181.112 231.267 180.738 232.184 180.633Z" fill="#05693A"/>
<path d="M201.224 184.167C202.142 184.063 203.07 184.233 203.89 184.656C204.711 185.078 205.388 185.734 205.836 186.541C206.283 187.348 206.481 188.269 206.405 189.189C206.328 190.108 205.981 190.984 205.406 191.706C204.832 192.428 204.056 192.964 203.176 193.246C202.297 193.527 201.354 193.542 200.466 193.288C199.579 193.035 198.786 192.524 198.189 191.82C197.592 191.117 197.216 190.252 197.111 189.336C196.974 188.106 197.33 186.872 198.101 185.904C198.872 184.935 199.995 184.311 201.224 184.167Z" fill="#05693A"/>
<path d="M170.27 187.7C171.188 187.596 172.116 187.766 172.936 188.189C173.757 188.612 174.434 189.268 174.882 190.075C175.329 190.882 175.527 191.803 175.451 192.722C175.374 193.642 175.027 194.518 174.452 195.24C173.878 195.962 173.102 196.498 172.222 196.779C171.343 197.061 170.4 197.076 169.512 196.822C168.624 196.568 167.832 196.058 167.235 195.354C166.637 194.65 166.262 193.786 166.157 192.869C166.02 191.64 166.376 190.406 167.147 189.438C167.917 188.469 169.04 187.845 170.27 187.7Z" fill="#05693A"/>
<path d="M139.313 191.234C140.231 191.13 141.159 191.3 141.979 191.723C142.8 192.145 143.477 192.802 143.925 193.609C144.372 194.415 144.57 195.337 144.494 196.256C144.417 197.175 144.07 198.051 143.495 198.773C142.921 199.496 142.145 200.031 141.265 200.313C140.386 200.595 139.443 200.609 138.555 200.356C137.667 200.102 136.875 199.591 136.278 198.888C135.68 198.184 135.305 197.319 135.2 196.403C135.063 195.173 135.419 193.94 136.19 192.971C136.96 192.003 138.083 191.378 139.313 191.234Z" fill="#05693A"/>
<path d="M108.356 194.768C109.274 194.663 110.201 194.833 111.022 195.256C111.843 195.678 112.52 196.334 112.968 197.141C113.416 197.948 113.614 198.869 113.538 199.789C113.462 200.708 113.114 201.584 112.54 202.306C111.965 203.029 111.189 203.564 110.31 203.846C109.431 204.128 108.487 204.143 107.6 203.889C106.712 203.636 105.919 203.125 105.322 202.421C104.725 201.718 104.349 200.853 104.244 199.937C104.107 198.707 104.463 197.474 105.233 196.505C106.004 195.537 107.126 194.912 108.356 194.768Z" fill="#05693A"/>
<path d="M77.4042 198.301C78.3217 198.197 79.2494 198.367 80.0702 198.79C80.8909 199.213 81.5678 199.869 82.0154 200.676C82.4629 201.483 82.661 202.404 82.5846 203.323C82.5082 204.243 82.1607 205.119 81.5861 205.841C81.0115 206.563 80.2355 207.099 79.3562 207.38C78.4769 207.662 77.5338 207.677 76.646 207.423C75.7583 207.169 74.9657 206.658 74.3685 205.955C73.7713 205.251 73.3962 204.387 73.2907 203.47C73.154 202.241 73.5099 201.007 74.2806 200.038C75.0513 199.07 76.1742 198.445 77.4042 198.301Z" fill="#05693A"/>
<path d="M46.4402 201.835C47.3577 201.731 48.2855 201.901 49.1063 202.324C49.9271 202.746 50.604 203.403 51.0516 204.21C51.4991 205.017 51.6972 205.938 51.6207 206.857C51.5442 207.777 51.1966 208.653 50.6219 209.375C50.0471 210.097 49.271 210.633 48.3916 210.914C47.5123 211.196 46.5691 211.21 45.6813 210.956C44.7935 210.703 44.001 210.191 43.4039 209.488C42.8068 208.784 42.432 207.919 42.3267 207.003C42.19 205.773 42.5459 204.54 43.3166 203.571C44.0874 202.603 45.2103 201.979 46.4402 201.835Z" fill="#05693A"/>
<path d="M15.4852 205.367C16.4027 205.263 17.3305 205.434 18.1512 205.856C18.972 206.279 19.6489 206.935 20.0964 207.742C20.544 208.549 20.742 209.47 20.6656 210.389C20.5892 211.309 20.2417 212.185 19.6671 212.907C19.0925 213.629 18.3165 214.165 17.4373 214.446C16.558 214.728 15.6149 214.743 14.7271 214.489C13.8393 214.235 13.0468 213.725 12.4496 213.021C11.8523 212.317 11.4773 211.453 11.3718 210.536C11.2351 209.307 11.5909 208.073 12.3616 207.105C13.1323 206.136 14.2552 205.512 15.4852 205.367Z" fill="#05693A"/>
<path d="M356.011 135.371C357.242 135.234 358.477 135.59 359.446 136.359C360.416 137.129 361.041 138.251 361.186 139.479C361.29 140.396 361.119 141.323 360.696 142.143C360.273 142.962 359.616 143.639 358.809 144.086C358.001 144.533 357.079 144.731 356.159 144.655C355.238 144.578 354.362 144.231 353.639 143.657C352.916 143.083 352.38 142.308 352.098 141.429C351.816 140.551 351.801 139.609 352.055 138.722C352.309 137.835 352.82 137.043 353.524 136.446C354.229 135.85 355.094 135.475 356.011 135.37" fill="#05693A"/>
<path d="M325.055 138.901C326.286 138.764 327.52 139.12 328.49 139.889C329.459 140.659 330.084 141.781 330.229 143.009C330.333 143.926 330.163 144.853 329.74 145.673C329.317 146.492 328.66 147.169 327.852 147.616C327.044 148.063 326.122 148.261 325.202 148.184C324.282 148.108 323.405 147.761 322.682 147.187C321.959 146.613 321.423 145.838 321.141 144.959C320.859 144.081 320.844 143.139 321.098 142.252C321.352 141.365 321.864 140.573 322.568 139.976C323.272 139.38 324.138 139.005 325.055 138.9" fill="#05693A"/>
<path d="M294.098 142.439C295.015 142.336 295.943 142.506 296.764 142.928C297.584 143.351 298.261 144.007 298.709 144.814C299.156 145.621 299.354 146.542 299.278 147.462C299.202 148.381 298.854 149.257 298.279 149.979C297.705 150.701 296.929 151.237 296.05 151.518C295.17 151.8 294.227 151.815 293.339 151.561C292.452 151.308 291.659 150.797 291.062 150.093C290.465 149.39 290.09 148.525 289.984 147.609C289.847 146.379 290.203 145.145 290.974 144.176C291.744 143.208 292.867 142.583 294.098 142.439Z" fill="#05693A"/>
<path d="M263.14 145.972C264.371 145.835 265.605 146.191 266.575 146.96C267.544 147.73 268.169 148.852 268.314 150.08C268.418 150.997 268.248 151.924 267.825 152.744C267.402 153.563 266.745 154.24 265.937 154.687C265.129 155.134 264.207 155.332 263.287 155.255C262.367 155.179 261.49 154.832 260.767 154.258C260.044 153.684 259.508 152.909 259.226 152.03C258.944 151.152 258.929 150.21 259.183 149.323C259.437 148.436 259.949 147.644 260.653 147.047C261.357 146.451 262.223 146.077 263.14 145.972Z" fill="#05693A"/>
<path d="M232.183 149.506C233.101 149.402 234.029 149.572 234.849 149.994C235.67 150.417 236.347 151.073 236.795 151.88C237.242 152.687 237.44 153.608 237.364 154.528C237.287 155.447 236.94 156.323 236.365 157.045C235.791 157.767 235.015 158.303 234.135 158.584C233.256 158.866 232.313 158.881 231.425 158.627C230.538 158.374 229.745 157.863 229.148 157.159C228.551 156.456 228.176 155.591 228.07 154.675C227.933 153.445 228.289 152.211 229.06 151.243C229.831 150.274 230.953 149.65 232.183 149.506Z" fill="#05693A"/>
<path d="M201.224 153.039C202.142 152.935 203.07 153.105 203.89 153.528C204.711 153.951 205.388 154.607 205.836 155.414C206.283 156.221 206.481 157.142 206.405 158.061C206.328 158.981 205.981 159.857 205.406 160.579C204.832 161.301 204.056 161.836 203.176 162.118C202.297 162.4 201.354 162.415 200.466 162.161C199.579 161.907 198.786 161.396 198.189 160.693C197.592 159.989 197.216 159.125 197.111 158.208C196.974 156.979 197.33 155.745 198.101 154.776C198.872 153.808 199.995 153.183 201.224 153.039Z" fill="#05693A"/>
<path d="M170.27 156.572C171.5 156.435 172.735 156.79 173.705 157.56C174.674 158.33 175.299 159.451 175.444 160.68C175.548 161.596 175.378 162.523 174.955 163.343C174.531 164.163 173.875 164.839 173.067 165.287C172.259 165.734 171.337 165.932 170.417 165.855C169.497 165.779 168.62 165.432 167.897 164.858C167.174 164.284 166.638 163.508 166.356 162.63C166.074 161.752 166.059 160.809 166.313 159.922C166.567 159.036 167.079 158.244 167.783 157.647C168.487 157.05 169.352 156.677 170.27 156.572Z" fill="#05693A"/>
<path d="M139.313 160.105C140.231 160.001 141.159 160.171 141.979 160.594C142.8 161.017 143.477 161.673 143.925 162.48C144.372 163.287 144.57 164.208 144.494 165.127C144.417 166.047 144.07 166.923 143.495 167.645C142.921 168.367 142.145 168.903 141.265 169.184C140.386 169.466 139.443 169.481 138.555 169.227C137.667 168.973 136.875 168.462 136.278 167.759C135.68 167.055 135.305 166.191 135.2 165.274C135.063 164.045 135.419 162.811 136.19 161.842C136.96 160.874 138.083 160.249 139.313 160.105Z" fill="#05693A"/>
<path d="M108.356 163.639C109.274 163.535 110.201 163.705 111.022 164.127C111.843 164.55 112.52 165.206 112.968 166.013C113.416 166.819 113.614 167.741 113.538 168.66C113.462 169.579 113.114 170.456 112.54 171.178C111.965 171.9 111.189 172.436 110.31 172.718C109.431 172.999 108.487 173.014 107.6 172.761C106.712 172.507 105.919 171.996 105.322 171.293C104.725 170.589 104.349 169.724 104.244 168.808C104.107 167.579 104.463 166.345 105.233 165.376C106.004 164.408 107.126 163.783 108.356 163.639Z" fill="#05693A"/>
<path d="M77.403 167.174C78.3205 167.07 79.2483 167.239 80.0692 167.662C80.8901 168.084 81.5672 168.741 82.0149 169.547C82.4626 170.354 82.6609 171.276 82.5846 172.195C82.5084 173.114 82.1611 173.99 81.5865 174.713C81.012 175.435 80.236 175.971 79.3567 176.252C78.4774 176.534 77.5343 176.549 76.6464 176.296C75.7586 176.042 74.966 175.531 74.3687 174.827C73.7714 174.124 73.3963 173.259 73.2907 172.343C73.1541 171.113 73.5098 169.88 74.2802 168.911C75.0506 167.943 76.1732 167.318 77.403 167.174Z" fill="#05693A"/>
<path d="M46.4403 170.706C47.3578 170.602 48.2855 170.772 49.1063 171.195C49.927 171.618 50.604 172.274 51.0515 173.081C51.499 173.888 51.6971 174.809 51.6207 175.728C51.5443 176.648 51.1968 177.524 50.6222 178.246C50.0476 178.968 49.2716 179.503 48.3923 179.785C47.5131 180.067 46.5699 180.082 45.6822 179.828C44.7944 179.574 44.0018 179.063 43.4046 178.36C42.8074 177.656 42.4324 176.792 42.3268 175.875C42.1902 174.646 42.546 173.412 43.3167 172.443C44.0874 171.475 45.2103 170.85 46.4403 170.706Z" fill="#05693A"/>
<path d="M15.4852 174.24C16.4027 174.136 17.3305 174.306 18.1512 174.729C18.972 175.151 19.6489 175.808 20.0964 176.614C20.544 177.421 20.742 178.343 20.6656 179.262C20.5892 180.181 20.2417 181.057 19.6671 181.779C19.0925 182.501 18.3165 183.037 17.4373 183.319C16.558 183.6 15.6149 183.615 14.7271 183.362C13.8393 183.108 13.0468 182.597 12.4496 181.894C11.8523 181.19 11.4773 180.325 11.3718 179.409C11.2351 178.179 11.5909 176.946 12.3616 175.977C13.1323 175.009 14.2552 174.384 15.4852 174.24Z" fill="#05693A"/>
<path d="M356.011 104.243C356.929 104.139 357.857 104.309 358.678 104.732C359.498 105.154 360.176 105.81 360.623 106.617C361.071 107.424 361.269 108.345 361.193 109.265C361.117 110.184 360.769 111.06 360.195 111.782C359.62 112.504 358.844 113.04 357.965 113.322C357.086 113.604 356.143 113.619 355.255 113.365C354.367 113.112 353.574 112.601 352.977 111.897C352.38 111.194 352.005 110.329 351.899 109.413C351.762 108.183 352.118 106.949 352.889 105.981C353.659 105.013 354.782 104.388 356.011 104.243Z" fill="#05693A"/>
<path d="M325.055 107.777C325.972 107.673 326.9 107.843 327.721 108.266C328.541 108.689 329.218 109.345 329.666 110.152C330.113 110.959 330.311 111.88 330.235 112.799C330.159 113.718 329.811 114.595 329.236 115.317C328.662 116.039 327.886 116.574 327.007 116.856C326.127 117.138 325.184 117.153 324.296 116.899C323.409 116.645 322.616 116.134 322.019 115.431C321.422 114.727 321.047 113.863 320.941 112.946C320.804 111.717 321.16 110.483 321.931 109.514C322.702 108.546 323.825 107.921 325.055 107.777Z" fill="#05693A"/>
<path d="M294.097 111.309C295.328 111.173 296.562 111.528 297.532 112.298C298.501 113.068 299.126 114.189 299.271 115.418C299.375 116.334 299.205 117.261 298.782 118.081C298.359 118.901 297.702 119.577 296.894 120.024C296.086 120.472 295.164 120.669 294.244 120.593C293.324 120.517 292.447 120.17 291.724 119.596C291.001 119.021 290.465 118.246 290.183 117.368C289.901 116.489 289.886 115.547 290.14 114.66C290.394 113.773 290.906 112.982 291.61 112.385C292.314 111.788 293.18 111.415 294.097 111.309Z" fill="#05693A"/>
<path d="M263.141 114.844C264.058 114.74 264.986 114.911 265.806 115.333C266.627 115.756 267.304 116.412 267.752 117.219C268.199 118.026 268.397 118.947 268.321 119.866C268.244 120.786 267.897 121.662 267.322 122.384C266.748 123.106 265.972 123.642 265.093 123.923C264.213 124.205 263.27 124.22 262.382 123.966C261.495 123.712 260.702 123.202 260.105 122.498C259.508 121.795 259.133 120.93 259.027 120.013C258.89 118.784 259.246 117.55 260.017 116.582C260.788 115.613 261.911 114.989 263.141 114.844Z" fill="#05693A"/>
<path d="M232.183 118.378C233.101 118.274 234.029 118.444 234.849 118.867C235.67 119.29 236.347 119.946 236.795 120.753C237.242 121.559 237.44 122.481 237.364 123.4C237.287 124.319 236.94 125.195 236.365 125.918C235.791 126.64 235.015 127.175 234.135 127.457C233.256 127.739 232.313 127.753 231.425 127.5C230.538 127.246 229.745 126.735 229.148 126.032C228.551 125.328 228.176 124.464 228.07 123.547C227.933 122.317 228.289 121.084 229.06 120.115C229.831 119.147 230.953 118.522 232.183 118.378Z" fill="#05693A"/>
<path d="M201.225 121.917C202.456 121.78 203.69 122.135 204.66 122.905C205.629 123.675 206.254 124.796 206.399 126.025C206.503 126.941 206.333 127.868 205.91 128.688C205.487 129.508 204.83 130.184 204.022 130.631C203.214 131.079 202.292 131.276 201.372 131.2C200.452 131.124 199.575 130.777 198.852 130.203C198.129 129.629 197.593 128.853 197.311 127.975C197.029 127.096 197.014 126.154 197.268 125.267C197.522 124.38 198.034 123.589 198.738 122.992C199.442 122.395 200.308 122.022 201.225 121.917Z" fill="#05693A"/>
<path d="M170.27 125.445C171.188 125.341 172.116 125.511 172.936 125.934C173.757 126.357 174.434 127.013 174.882 127.82C175.329 128.627 175.527 129.548 175.451 130.467C175.374 131.387 175.027 132.263 174.452 132.985C173.878 133.707 173.102 134.243 172.222 134.524C171.343 134.806 170.4 134.821 169.512 134.567C168.624 134.313 167.832 133.803 167.235 133.099C166.637 132.395 166.262 131.531 166.157 130.614C166.02 129.385 166.376 128.151 167.147 127.183C167.917 126.214 169.04 125.59 170.27 125.445Z" fill="#05693A"/>
<path d="M139.313 128.974C140.231 128.87 141.159 129.04 141.979 129.463C142.8 129.886 143.477 130.542 143.925 131.349C144.372 132.156 144.57 133.077 144.494 133.996C144.417 134.915 144.07 135.791 143.495 136.514C142.921 137.236 142.145 137.771 141.265 138.053C140.386 138.335 139.443 138.35 138.555 138.096C137.667 137.842 136.875 137.331 136.278 136.628C135.68 135.924 135.305 135.06 135.2 134.143C135.063 132.913 135.419 131.68 136.19 130.711C136.96 129.743 138.083 129.118 139.313 128.974Z" fill="#05693A"/>
<path d="M108.357 132.511C109.587 132.375 110.822 132.73 111.792 133.5C112.761 134.27 113.386 135.391 113.531 136.62C113.635 137.536 113.465 138.463 113.042 139.283C112.618 140.103 111.962 140.779 111.154 141.226C110.346 141.673 109.424 141.871 108.504 141.795C107.584 141.719 106.707 141.372 105.984 140.797C105.261 140.223 104.725 139.448 104.443 138.57C104.161 137.691 104.146 136.749 104.4 135.862C104.654 134.975 105.165 134.184 105.87 133.587C106.574 132.99 107.439 132.616 108.357 132.51" fill="#05693A"/>
<path d="M77.403 136.044C78.3205 135.94 79.2483 136.11 80.0692 136.532C80.8901 136.954 81.5672 137.611 82.0149 138.417C82.4626 139.224 82.6609 140.146 82.5846 141.065C82.5084 141.984 82.1611 142.86 81.5865 143.583C81.012 144.305 80.236 144.841 79.3567 145.122C78.4774 145.404 77.5343 145.419 76.6464 145.166C75.7586 144.912 74.966 144.401 74.3687 143.698C73.7714 142.994 73.3963 142.129 73.2907 141.213C73.1541 139.983 73.5098 138.75 74.2802 137.781C75.0506 136.813 76.1732 136.188 77.403 136.044Z" fill="#05693A"/>
<path d="M46.4403 139.577C47.3578 139.474 48.2855 139.644 49.1063 140.066C49.927 140.489 50.604 141.145 51.0515 141.952C51.499 142.759 51.6971 143.68 51.6207 144.6C51.5443 145.519 51.1968 146.395 50.6222 147.117C50.0476 147.839 49.2716 148.375 48.3923 148.656C47.5131 148.938 46.5699 148.953 45.6822 148.699C44.7944 148.446 44.0018 147.935 43.4046 147.231C42.8074 146.528 42.4324 145.663 42.3268 144.747C42.1902 143.517 42.546 142.283 43.3167 141.315C44.0874 140.346 45.2103 139.722 46.4403 139.577Z" fill="#05693A"/>
<path d="M15.4852 143.112C16.4027 143.008 17.3305 143.179 18.1512 143.601C18.972 144.024 19.6489 144.68 20.0964 145.487C20.544 146.294 20.742 147.215 20.6656 148.134C20.5892 149.054 20.2417 149.93 19.6671 150.652C19.0925 151.374 18.3165 151.91 17.4373 152.191C16.558 152.473 15.6149 152.488 14.7271 152.234C13.8393 151.98 13.0468 151.47 12.4496 150.766C11.8523 150.062 11.4773 149.198 11.3718 148.281C11.2351 147.052 11.5909 145.818 12.3616 144.85C13.1323 143.881 14.2552 143.257 15.4852 143.112Z" fill="#05693A"/>
<path d="M356.012 73.1159C356.929 73.012 357.857 73.1821 358.678 73.6047C359.498 74.0274 360.175 74.6836 360.623 75.4905C361.07 76.2973 361.268 77.2186 361.192 78.1379C361.116 79.0572 360.768 79.9333 360.193 80.6554C359.619 81.3774 358.843 81.9131 357.964 82.1948C357.084 82.4764 356.141 82.4913 355.253 82.2377C354.366 81.984 353.573 81.4731 352.976 80.7696C352.379 80.066 352.004 79.2014 351.898 78.285C351.761 77.0553 352.117 75.8215 352.888 74.8531C353.659 73.8846 354.782 73.2601 356.012 73.1159Z" fill="#05693A"/>
<path d="M325.055 76.6483C325.972 76.5444 326.9 76.7145 327.721 77.1372C328.541 77.5598 329.218 78.2161 329.666 79.0229C330.113 79.8298 330.311 80.7511 330.235 81.6704C330.159 82.5897 329.811 83.4658 329.236 84.1878C328.662 84.9099 327.886 85.4456 327.007 85.7272C326.127 86.0089 325.184 86.0238 324.296 85.7701C323.409 85.5164 322.616 85.0055 322.019 84.302C321.422 83.5985 321.047 82.7339 320.941 81.8174C320.804 80.5878 321.16 79.354 321.931 78.3855C322.702 77.4171 323.825 76.7925 325.055 76.6483Z" fill="#05693A"/>
<path d="M294.098 80.182C295.015 80.0781 295.943 80.2482 296.764 80.6708C297.584 81.0935 298.261 81.7497 298.709 82.5566C299.156 83.3635 299.354 84.2848 299.278 85.2041C299.202 86.1234 298.854 86.9994 298.279 87.7215C297.705 88.4436 296.929 88.9793 296.05 89.2609C295.17 89.5425 294.227 89.5575 293.339 89.3038C292.452 89.0501 291.659 88.5392 291.062 87.8357C290.465 87.1321 290.09 86.2675 289.984 85.3511C289.847 84.1214 290.203 82.8877 290.974 81.9192C291.745 80.9507 292.868 80.3262 294.098 80.182Z" fill="#05693A"/>
<path d="M263.141 83.7156C264.058 83.6117 264.986 83.7818 265.806 84.2045C266.627 84.6271 267.304 85.2834 267.752 86.0902C268.199 86.8971 268.397 87.8184 268.321 88.7377C268.244 89.657 267.897 90.5331 267.322 91.2551C266.748 91.9772 265.972 92.5129 265.093 92.7945C264.213 93.0762 263.27 93.0911 262.382 92.8374C261.495 92.5837 260.702 92.0728 260.105 91.3693C259.508 90.6658 259.133 89.8012 259.027 88.8847C258.89 87.6551 259.246 86.4213 260.017 85.4528C260.788 84.4844 261.911 83.8599 263.141 83.7156Z" fill="#05693A"/>
<path d="M232.183 87.248C233.101 87.1441 234.029 87.3142 234.849 87.7369C235.67 88.1595 236.347 88.8158 236.795 89.6226C237.242 90.4295 237.44 91.3508 237.364 92.2701C237.287 93.1894 236.94 94.0655 236.365 94.7875C235.791 95.5096 235.015 96.0453 234.135 96.327C233.256 96.6086 232.313 96.6235 231.425 96.3698C230.538 96.1161 229.745 95.6053 229.148 94.9017C228.551 94.1982 228.176 93.3335 228.07 92.4171C227.933 91.1874 228.289 89.9537 229.06 88.9852C229.831 88.0168 230.953 87.3923 232.183 87.248Z" fill="#05693A"/>
<path d="M201.224 90.7829C202.142 90.679 203.07 90.8491 203.89 91.2717C204.711 91.6944 205.388 92.3506 205.836 93.1575C206.283 93.9644 206.481 94.8857 206.405 95.805C206.328 96.7243 205.981 97.6003 205.406 98.3224C204.832 99.0445 204.056 99.5802 203.176 99.8618C202.297 100.143 201.354 100.158 200.466 99.9047C199.579 99.651 198.786 99.1401 198.189 98.4366C197.592 97.733 197.216 96.8684 197.111 95.952C196.974 94.7223 197.33 93.4886 198.101 92.5201C198.872 91.5516 199.995 90.9271 201.224 90.7829Z" fill="#05693A"/>
<path d="M170.27 94.3166C171.188 94.2126 172.116 94.3827 172.936 94.8054C173.757 95.228 174.434 95.8843 174.882 96.6912C175.329 97.498 175.527 98.4193 175.451 99.3386C175.374 100.258 175.027 101.134 174.452 101.856C173.878 102.578 173.102 103.114 172.222 103.395C171.343 103.677 170.4 103.692 169.512 103.438C168.624 103.185 167.832 102.674 167.235 101.97C166.637 101.267 166.262 100.402 166.157 99.4856C166.02 98.256 166.376 97.0222 167.147 96.0538C167.917 95.0853 169.04 94.4608 170.27 94.3166Z" fill="#05693A"/>
<path d="M139.313 97.8502C140.543 97.7137 141.778 98.069 142.748 98.8387C143.717 99.6084 144.342 100.73 144.487 101.958C144.591 102.875 144.421 103.802 143.998 104.622C143.574 105.442 142.918 106.118 142.11 106.565C141.302 107.012 140.38 107.21 139.46 107.134C138.54 107.057 137.663 106.71 136.94 106.136C136.217 105.562 135.681 104.787 135.399 103.909C135.117 103.03 135.102 102.088 135.356 101.201C135.61 100.314 136.122 99.5223 136.826 98.9257C137.53 98.3291 138.395 97.9544 139.313 97.849" fill="#05693A"/>
<path d="M108.356 101.383C109.274 101.278 110.201 101.448 111.022 101.871C111.843 102.293 112.52 102.949 112.968 103.756C113.416 104.563 113.614 105.484 113.538 106.404C113.462 107.323 113.114 108.199 112.54 108.921C111.965 109.644 111.189 110.179 110.31 110.461C109.431 110.743 108.487 110.758 107.6 110.504C106.712 110.251 105.919 109.74 105.322 109.036C104.725 108.333 104.349 107.468 104.244 106.552C104.107 105.322 104.463 104.089 105.233 103.12C106.004 102.152 107.126 101.527 108.356 101.383Z" fill="#05693A"/>
<path d="M77.403 104.916C78.3205 104.812 79.2483 104.982 80.0692 105.404C80.8901 105.827 81.5672 106.483 82.0149 107.29C82.4626 108.097 82.6609 109.018 82.5846 109.937C82.5084 110.857 82.1611 111.733 81.5865 112.455C81.012 113.177 80.236 113.713 79.3567 113.995C78.4774 114.277 77.5343 114.292 76.6464 114.038C75.7586 113.784 74.966 113.274 74.3687 112.57C73.7714 111.866 73.3963 111.002 73.2907 110.085C73.1541 108.856 73.5098 107.622 74.2802 106.654C75.0506 105.685 76.1732 105.061 77.403 104.916Z" fill="#05693A"/>
<path d="M46.4406 108.45C47.6713 108.313 48.9061 108.669 49.8755 109.438C50.8449 110.208 51.4701 111.33 51.6148 112.558C51.7188 113.475 51.5485 114.402 51.1255 115.222C50.7024 116.041 50.0455 116.718 49.2379 117.165C48.4302 117.612 47.508 117.81 46.5878 117.734C45.6676 117.657 44.7907 117.31 44.068 116.736C43.3452 116.162 42.8089 115.387 42.527 114.508C42.2451 113.63 42.2302 112.688 42.4841 111.801C42.738 110.914 43.2494 110.122 43.9537 109.525C44.6579 108.929 45.5233 108.555 46.4406 108.45Z" fill="#05693A"/>
<path d="M15.4852 111.99C16.4027 111.886 17.3305 112.056 18.1512 112.479C18.972 112.901 19.6489 113.557 20.0964 114.364C20.544 115.171 20.742 116.092 20.6656 117.012C20.5892 117.931 20.2417 118.807 19.6671 119.529C19.0925 120.251 18.3165 120.787 17.4373 121.069C16.558 121.35 15.6149 121.365 14.7271 121.112C13.8393 120.858 13.0468 120.347 12.4496 119.643C11.8523 118.94 11.4773 118.075 11.3718 117.159C11.2348 115.929 11.5905 114.695 12.3613 113.727C13.132 112.758 14.2551 112.134 15.4852 111.99Z" fill="#05693A"/>
<path d="M356.011 41.9872C357.242 41.8506 358.477 42.206 359.446 42.9757C360.416 43.7454 361.041 44.8669 361.186 46.0954C361.29 47.012 361.119 47.9389 360.696 48.7588C360.273 49.5787 359.616 50.255 358.809 50.7021C358.001 51.1492 357.079 51.3471 356.159 51.2708C355.238 51.1944 354.362 50.8473 353.639 50.2732C352.916 49.6992 352.38 48.924 352.098 48.0455C351.816 47.1671 351.801 46.2249 352.055 45.338C352.309 44.4511 352.82 43.6593 353.524 43.0627C354.229 42.4661 355.094 42.0926 356.011 41.9872Z" fill="#05693A"/>
<path d="M325.055 45.5208C325.972 45.4169 326.9 45.587 327.721 46.0096C328.541 46.4323 329.218 47.0885 329.666 47.8954C330.113 48.7023 330.311 49.6236 330.235 50.5429C330.159 51.4622 329.811 52.3382 329.236 53.0603C328.662 53.7824 327.886 54.3181 327.007 54.5997C326.127 54.8814 325.184 54.8963 324.296 54.6426C323.409 54.3889 322.616 53.878 322.019 53.1745C321.422 52.4709 321.047 51.6063 320.941 50.6899C320.804 49.4602 321.16 48.2265 321.931 47.258C322.702 46.2895 323.825 45.665 325.055 45.5208Z" fill="#05693A"/>
<path d="M294.098 49.0544C295.015 48.9505 295.943 49.1206 296.764 49.5433C297.584 49.9659 298.261 50.6222 298.709 51.429C299.156 52.2359 299.354 53.1572 299.278 54.0765C299.202 54.9958 298.854 55.8719 298.279 56.5939C297.705 57.316 296.929 57.8517 296.05 58.1334C295.17 58.415 294.227 58.4299 293.339 58.1762C292.452 57.9225 291.659 57.4117 291.062 56.7081C290.465 56.0046 290.09 55.14 289.984 54.2235C289.847 52.9939 290.203 51.7601 290.974 50.7916C291.745 49.8232 292.868 49.1987 294.098 49.0544Z" fill="#05693A"/>
<path d="M263.14 52.5881C264.371 52.4516 265.605 52.8069 266.575 53.5766C267.544 54.3463 268.169 55.4678 268.314 56.6964C268.418 57.613 268.248 58.5398 267.825 59.3597C267.402 60.1797 266.745 60.8559 265.937 61.303C265.129 61.7502 264.207 61.948 263.287 61.8717C262.367 61.7954 261.49 61.4482 260.767 60.8742C260.044 60.3001 259.508 59.5249 259.226 58.6465C258.944 57.768 258.929 56.8259 259.183 55.939C259.437 55.0521 259.949 54.2602 260.653 53.6636C261.357 53.067 262.223 52.6923 263.14 52.5869" fill="#05693A"/>
<path d="M232.183 56.1205C233.101 56.0166 234.029 56.1867 234.849 56.6094C235.67 57.032 236.347 57.6883 236.795 58.4951C237.242 59.302 237.44 60.2233 237.364 61.1426C237.287 62.0619 236.94 62.938 236.365 63.66C235.791 64.3821 235.015 64.9178 234.135 65.1994C233.256 65.4811 232.313 65.496 231.425 65.2423C230.538 64.9886 229.745 64.4777 229.148 63.7742C228.551 63.0707 228.176 62.2061 228.07 61.2896C227.933 60.06 228.289 58.8262 229.06 57.8577C229.831 56.8893 230.953 56.2647 232.183 56.1205Z" fill="#05693A"/>
<path d="M201.225 59.6542C202.143 59.5502 203.071 59.7203 203.891 60.143C204.712 60.5657 205.389 61.2219 205.837 62.0288C206.284 62.8356 206.482 63.7569 206.406 64.6762C206.329 65.5955 205.982 66.4716 205.407 67.1937C204.833 67.9157 204.057 68.4515 203.177 68.7331C202.298 69.0147 201.355 69.0296 200.467 68.7759C199.58 68.5223 198.787 68.0114 198.19 67.3078C197.593 66.6043 197.217 65.7397 197.112 64.8233C196.975 63.5936 197.331 62.3598 198.102 61.3914C198.873 60.4229 199.995 59.7984 201.225 59.6542Z" fill="#05693A"/>
<path d="M170.27 63.1879C171.188 63.0839 172.116 63.2541 172.936 63.6767C173.757 64.0994 174.434 64.7556 174.882 65.5625C175.329 66.3693 175.527 67.2906 175.451 68.2099C175.374 69.1292 175.027 70.0053 174.452 70.7274C173.878 71.4494 173.102 71.9851 172.222 72.2668C171.343 72.5484 170.4 72.5633 169.512 72.3096C168.624 72.056 167.832 71.5451 167.235 70.8415C166.637 70.138 166.262 69.2734 166.157 68.357C166.02 67.1273 166.376 65.8935 167.147 64.9251C167.917 63.9566 169.04 63.3321 170.27 63.1879Z" fill="#05693A"/>
<path d="M139.313 66.7215C140.231 66.6176 141.159 66.7877 141.979 67.2103C142.8 67.633 143.477 68.2892 143.925 69.0961C144.372 69.903 144.57 70.8243 144.494 71.7436C144.417 72.6629 144.07 73.5389 143.495 74.261C142.921 74.9831 142.145 75.5188 141.265 75.8004C140.386 76.082 139.443 76.0969 138.555 75.8433C137.667 75.5896 136.875 75.0787 136.278 74.3752C135.68 73.6716 135.305 72.807 135.2 71.8906C135.063 70.6609 135.419 69.4272 136.19 68.4587C136.96 67.4902 138.083 66.8657 139.313 66.7215Z" fill="#05693A"/>
<path d="M108.356 70.2551C109.274 70.151 110.201 70.3209 111.022 70.7433C111.843 71.1658 112.52 71.8219 112.968 72.6288C113.416 73.4356 113.614 74.3569 113.538 75.2763C113.462 76.1956 113.114 77.0718 112.54 77.794C111.965 78.5162 111.189 79.052 110.31 79.3337C109.431 79.6155 108.487 79.6305 107.6 79.3769C106.712 79.1233 105.919 78.6124 105.322 77.9089C104.725 77.2053 104.349 76.3407 104.244 75.4242C104.107 74.1947 104.463 72.9612 105.233 71.9927C106.004 71.0243 107.126 70.3996 108.356 70.2551Z" fill="#05693A"/>
<path d="M77.403 73.7888C78.3205 73.6846 79.2483 73.8545 80.0692 74.277C80.8901 74.6995 81.5672 75.3556 82.0149 76.1624C82.4626 76.9692 82.6609 77.8905 82.5846 78.8099C82.5084 79.7293 82.1611 80.6054 81.5865 81.3276C81.012 82.0498 80.236 82.5856 79.3567 82.8674C78.4774 83.1491 77.5343 83.1641 76.6464 82.9105C75.7586 82.6569 74.966 82.146 74.3687 81.4425C73.7714 80.739 73.3963 79.8743 73.2907 78.9579C73.1541 77.7284 73.5098 76.4948 74.2802 75.5264C75.0506 74.5579 76.1732 73.9333 77.403 73.7888Z" fill="#05693A"/>
<path d="M46.4403 77.3224C47.3578 77.2185 48.2855 77.3886 49.1063 77.8112C49.927 78.2339 50.604 78.8901 51.0515 79.697C51.499 80.5038 51.6971 81.4251 51.6207 82.3444C51.5443 83.2638 51.1968 84.1398 50.6222 84.8619C50.0476 85.584 49.2716 86.1197 48.3923 86.4013C47.5131 86.6829 46.5699 86.6978 45.6822 86.4442C44.7944 86.1905 44.0018 85.6796 43.4046 84.9761C42.8074 84.2725 42.4324 83.4079 42.3268 82.4915C42.1902 81.2618 42.546 80.028 43.3167 79.0596C44.0874 78.0911 45.2103 77.4666 46.4403 77.3224Z" fill="#05693A"/>
<path d="M15.4846 80.8549C16.7153 80.7183 17.9501 81.0737 18.9195 81.8434C19.8888 82.613 20.5141 83.7346 20.6587 84.9631C20.7628 85.8797 20.5925 86.8066 20.1694 87.6265C19.7463 88.4465 19.0895 89.1227 18.2818 89.5698C17.4742 90.0169 16.552 90.2148 15.6318 90.1385C14.7116 90.0621 13.8347 89.715 13.1119 89.1409C12.3891 88.5669 11.8529 87.7917 11.571 86.9132C11.2891 86.0348 11.2741 85.0926 11.528 84.2057C11.782 83.3188 12.2934 82.527 12.9976 81.9304C13.7018 81.3337 14.5673 80.959 15.4846 80.8536" fill="#05693A"/>
<path d="M356.011 10.8584C356.929 10.7542 357.857 10.9241 358.678 11.3466C359.498 11.7691 360.176 12.4252 360.623 13.232C361.071 14.0388 361.269 14.9601 361.193 15.8795C361.117 16.7988 360.769 17.675 360.195 18.3972C359.62 19.1194 358.844 19.6552 357.965 19.937C357.086 20.2187 356.143 20.2337 355.255 19.9801C354.367 19.7265 353.574 19.2157 352.977 18.5121C352.38 17.8086 352.005 16.9439 351.899 16.0275C351.762 14.798 352.118 13.5644 352.889 12.596C353.659 11.6275 354.782 11.0029 356.011 10.8584Z" fill="#05693A"/>
<path d="M325.055 14.3921C326.286 14.2555 327.52 14.6109 328.49 15.3805C329.459 16.1502 330.084 17.2718 330.229 18.5003C330.333 19.4169 330.163 20.3437 329.74 21.1637C329.317 21.9836 328.66 22.6599 327.852 23.107C327.044 23.5541 326.122 23.752 325.202 23.6756C324.282 23.5993 323.405 23.2522 322.682 22.6781C321.959 22.1041 321.423 21.3288 321.141 20.4504C320.859 19.572 320.844 18.6298 321.098 17.7429C321.352 16.856 321.864 16.0642 322.568 15.4676C323.272 14.8709 324.138 14.4975 325.055 14.3921Z" fill="#05693A"/>
<path d="M294.097 17.9269C295.328 17.7903 296.562 18.1457 297.532 18.9153C298.501 19.685 299.126 20.8066 299.271 22.0351C299.375 22.9517 299.205 23.8786 298.782 24.6985C298.359 25.5184 297.702 26.1947 296.894 26.6418C296.086 27.0889 295.164 27.2868 294.244 27.2105C293.324 27.1341 292.447 26.787 291.724 26.2129C291.001 25.6389 290.465 24.8637 290.183 23.9852C289.901 23.1068 289.886 22.1646 290.14 21.2777C290.394 20.3908 290.906 19.599 291.61 19.0024C292.314 18.4057 293.18 18.031 294.097 17.9256" fill="#05693A"/>
<path d="M263.141 21.4594C264.058 21.3554 264.986 21.5256 265.806 21.9482C266.627 22.3709 267.304 23.0271 267.752 23.834C268.199 24.6408 268.397 25.5621 268.321 26.4815C268.244 27.4008 267.897 28.2768 267.322 28.9989C266.748 29.7209 265.972 30.2566 265.093 30.5383C264.213 30.8199 263.27 30.8348 262.382 30.5812C261.495 30.3275 260.702 29.8166 260.105 29.113C259.508 28.4095 259.133 27.5449 259.027 26.6285C258.89 25.3988 259.246 24.165 260.017 23.1966C260.788 22.2281 261.911 21.6036 263.141 21.4594Z" fill="#05693A"/>
<path d="M232.183 24.993C233.101 24.8891 234.029 25.0592 234.849 25.4819C235.67 25.9045 236.347 26.5608 236.795 27.3676C237.242 28.1745 237.44 29.0958 237.364 30.0151C237.287 30.9344 236.94 31.8105 236.365 32.5325C235.791 33.2546 235.015 33.7903 234.135 34.0719C233.256 34.3536 232.313 34.3685 231.425 34.1148C230.538 33.8611 229.745 33.3502 229.148 32.6467C228.551 31.9432 228.176 31.0785 228.07 30.1621C227.933 28.9324 228.289 27.6987 229.06 26.7302C229.831 25.7618 230.953 25.1373 232.183 24.993Z" fill="#05693A"/>
<path d="M201.225 28.5266C202.456 28.3901 203.69 28.7454 204.66 29.5151C205.629 30.2848 206.254 31.4063 206.399 32.6349C206.503 33.5515 206.333 34.4783 205.91 35.2982C205.487 36.1182 204.83 36.7944 204.022 37.2415C203.214 37.6886 202.292 37.8865 201.372 37.8102C200.452 37.7339 199.575 37.3867 198.852 36.8127C198.129 36.2386 197.593 35.4634 197.311 34.585C197.029 33.7065 197.014 32.7643 197.268 31.8774C197.522 30.9905 198.034 30.1987 198.738 29.6021C199.442 29.0055 200.308 28.632 201.225 28.5266Z" fill="#05693A"/>
<path d="M170.27 32.059C171.188 31.9551 172.116 32.1252 172.936 32.5479C173.757 32.9706 174.434 33.6268 174.882 34.4336C175.329 35.2405 175.527 36.1618 175.451 37.0811C175.374 38.0004 175.027 38.8765 174.452 39.5985C173.878 40.3206 173.102 40.8563 172.222 41.138C171.343 41.4196 170.4 41.4345 169.512 41.1808C168.624 40.9271 167.832 40.4163 167.235 39.7127C166.637 39.0092 166.262 38.1446 166.157 37.2281C166.02 35.9985 166.376 34.7647 167.147 33.7962C167.917 32.8278 169.04 32.2033 170.27 32.059Z" fill="#05693A"/>
<path d="M139.313 35.5927C140.231 35.4888 141.159 35.6589 141.979 36.0816C142.8 36.5042 143.477 37.1605 143.925 37.9673C144.372 38.7742 144.57 39.6955 144.494 40.6148C144.417 41.5341 144.07 42.4101 143.495 43.1322C142.921 43.8543 142.145 44.39 141.265 44.6716C140.386 44.9533 139.443 44.9682 138.555 44.7145C137.667 44.4608 136.875 43.9499 136.278 43.2464C135.68 42.5429 135.305 41.6783 135.2 40.7618C135.063 39.5322 135.419 38.2984 136.19 37.3299C136.96 36.3615 138.083 35.7369 139.313 35.5927Z" fill="#05693A"/>
<path d="M108.356 39.1264C109.274 39.0222 110.201 39.1921 111.022 39.6146C111.843 40.037 112.52 40.6932 112.968 41.5C113.416 42.3068 113.614 43.2281 113.538 44.1475C113.462 45.0668 113.114 45.943 112.54 46.6652C111.965 47.3874 111.189 47.9232 110.31 48.205C109.431 48.4867 108.487 48.5017 107.6 48.2481C106.712 47.9945 105.919 47.4836 105.322 46.7801C104.725 46.0765 104.349 45.2119 104.244 44.2954C104.107 43.066 104.463 41.8324 105.233 40.8639C106.004 39.8955 107.126 39.2709 108.356 39.1264Z" fill="#05693A"/>
<path d="M77.403 42.66C78.3205 42.5558 79.2483 42.7257 80.0692 43.1482C80.8901 43.5707 81.5672 44.2268 82.0149 45.0336C82.4626 45.8405 82.6609 46.7618 82.5846 47.6811C82.5084 48.6005 82.1611 49.4766 81.5865 50.1988C81.012 50.921 80.236 51.4569 79.3567 51.7386C78.4774 52.0204 77.5343 52.0354 76.6464 51.7818C75.7586 51.5282 74.966 51.0173 74.3687 50.3138C73.7714 49.6102 73.3963 48.7456 73.2907 47.8291C73.1541 46.5996 73.5098 45.366 74.2802 44.3976C75.0506 43.4292 76.1732 42.8045 77.403 42.66Z" fill="#05693A"/>
<path d="M46.4406 46.1936C47.6713 46.0571 48.9061 46.4124 49.8755 47.1821C50.8449 47.9518 51.4701 49.0733 51.6148 50.3019C51.7188 51.2185 51.5485 52.1453 51.1255 52.9653C50.7024 53.7852 50.0455 54.4615 49.2379 54.9086C48.4302 55.3557 47.508 55.5536 46.5878 55.4772C45.6676 55.4009 44.7907 55.0538 44.068 54.4797C43.3452 53.9056 42.8089 53.1304 42.527 52.252C42.2451 51.3736 42.2302 50.4314 42.4841 49.5445C42.738 48.6576 43.2494 47.8658 43.9537 47.2691C44.6579 46.6725 45.5233 46.2978 46.4406 46.1924" fill="#05693A"/>
<path d="M15.4852 49.7274C16.4027 49.6234 17.3305 49.7935 18.1512 50.2162C18.972 50.6389 19.6489 51.2951 20.0964 52.1019C20.544 52.9088 20.742 53.8301 20.6656 54.7494C20.5892 55.6687 20.2417 56.5448 19.6671 57.2669C19.0925 57.9889 18.3165 58.5246 17.4373 58.8063C16.558 59.0879 15.6149 59.1028 14.7271 58.8491C13.8393 58.5955 13.0468 58.0846 12.4496 57.381C11.8523 56.6775 11.4773 55.8129 11.3718 54.8965C11.2351 53.6668 11.5909 52.433 12.3616 51.4645C13.1323 50.4961 14.2552 49.8716 15.4852 49.7274Z" fill="#05693A"/>
</g>
<mask id="mask1_2046_13338" style="mask-type:luminance" maskUnits="userSpaceOnUse" x="-51" y="-255" width="567" height="292">
<path d="M-50.5729 36.4701L516 36.47L516 -254.368L-50.573 -254.368L-50.5729 36.4701Z" fill="white"/>
</mask>
<g mask="url(#mask1_2046_13338)">
<path d="M139.313 5.96502C140.543 5.82847 141.778 6.18382 142.748 6.9535C143.717 7.72319 144.342 8.84471 144.487 10.0733C144.591 10.9899 144.421 11.9167 143.998 12.7367C143.574 13.5566 142.918 14.2328 142.11 14.68C141.302 15.1271 140.38 15.3249 139.46 15.2486C138.54 15.1723 137.663 14.8251 136.94 14.2511C136.217 13.677 135.681 12.9018 135.399 12.0234C135.117 11.145 135.102 10.2028 135.356 9.31586C135.61 8.42896 136.122 7.63716 136.826 7.04053C137.53 6.44389 138.395 6.0692 139.313 5.96379" fill="#05693A"/>
<path d="M108.356 9.49378C109.274 9.38961 110.201 9.55951 111.022 9.98199C111.843 10.4045 112.52 11.0606 112.968 11.8674C113.416 12.6742 113.614 13.5955 113.538 14.5149C113.462 15.4343 113.114 16.3104 112.54 17.0326C111.965 17.7548 111.189 18.2906 110.31 18.5724C109.431 18.8541 108.487 18.8692 107.6 18.6155C106.712 18.3619 105.919 17.8511 105.322 17.1475C104.725 16.444 104.349 15.5793 104.244 14.6629C104.107 13.4334 104.463 12.1998 105.233 11.2314C106.004 10.2629 107.126 9.6383 108.356 9.49378Z" fill="#05693A"/>
<path d="M77.4034 13.0237C78.6341 12.8872 79.8689 13.2425 80.8383 14.0122C81.8076 14.7819 82.4329 15.9034 82.5775 17.132C82.6818 18.0486 82.5118 18.9755 82.0889 19.7956C81.666 20.6157 81.0092 21.2921 80.2016 21.7394C79.394 22.1867 78.4718 22.3848 77.5515 22.3086C76.6313 22.2324 75.7543 21.8854 75.0314 21.3114C74.3085 20.7374 73.7721 19.9622 73.4901 19.0838C73.2081 18.2054 73.193 17.2631 73.4469 16.3762C73.7007 15.4892 74.2121 14.6973 74.9163 14.1006C75.6206 13.5039 76.4861 13.1292 77.4034 13.0237Z" fill="#05693A"/>
<path d="M46.4406 16.561C47.6713 16.4245 48.9061 16.7798 49.8755 17.5495C50.8449 18.3192 51.4701 19.4407 51.6148 20.6693C51.7188 21.5859 51.5485 22.5127 51.1255 23.3327C50.7024 24.1526 50.0455 24.8289 49.2379 25.276C48.4302 25.7231 47.508 25.921 46.5878 25.8446C45.6676 25.7683 44.7907 25.4212 44.068 24.8471C43.3452 24.273 42.8089 23.4978 42.527 22.6194C42.2451 21.741 42.2302 20.7988 42.4841 19.9119C42.738 19.025 43.2494 18.2332 43.9537 17.6365C44.6579 17.0399 45.5233 16.6664 46.4406 16.561Z" fill="#05693A"/>
<path d="M15.4852 20.0947C16.4027 19.9908 17.3305 20.1609 18.1512 20.5835C18.972 21.0062 19.6489 21.6624 20.0964 22.4693C20.544 23.2762 20.742 24.1975 20.6656 25.1168C20.5892 26.0361 20.2417 26.9121 19.6671 27.6342C19.0925 28.3563 18.3165 28.892 17.4373 29.1736C16.558 29.4552 15.6149 29.4702 14.7271 29.2165C13.8393 28.9628 13.0468 28.4519 12.4496 27.7484C11.8523 27.0448 11.4773 26.1802 11.3718 25.2638C11.2351 24.0341 11.5909 22.8004 12.3616 21.8319C13.1323 20.8634 14.2552 20.2389 15.4852 20.0947Z" fill="#05693A"/>
</g>
<path d="M93.173 302.574L92.5828 302.566H92.4974C85.757 302.566 81.4316 299.353 79.9717 293.269C73.9146 267.968 66.7238 238.063 64.1379 227.315C63.7496 225.689 64.1923 223.98 65.326 222.735C66.4598 221.481 68.1604 220.843 69.8611 221.033L187.5 234.143L305.131 221.033C306.84 220.843 308.532 221.481 309.674 222.735C310.808 223.98 311.25 225.697 310.862 227.315C308.276 238.063 301.085 267.968 295.028 293.269C293.568 299.353 289.243 302.566 282.518 302.566H258.29C257.063 302.566 256.069 301.594 256.069 300.394C256.069 299.194 257.063 298.222 258.29 298.222H282.518C287.193 298.222 289.717 296.391 290.703 292.282C296.76 266.98 303.951 237.068 306.537 226.32C306.622 225.978 306.459 225.735 306.358 225.621C306.249 225.507 306.016 225.31 305.644 225.355L187.756 238.496C187.593 238.511 187.422 238.511 187.251 238.496L69.3641 225.355C68.9913 225.317 68.7584 225.507 68.6496 225.621C68.5487 225.735 68.3856 225.978 68.471 226.32C71.0569 237.068 78.2477 266.98 84.3048 292.282C85.291 296.391 87.8148 298.222 92.4896 298.222H92.6216L93.2273 298.229H116.663C117.89 298.229 118.884 299.202 118.884 300.402C118.884 301.602 117.89 302.574 116.663 302.574H93.173Z" fill="#006939"/>
<path d="M126.293 291.431C126.293 291.18 126.503 290.945 126.79 290.945H134.563C137.685 290.945 140.232 293.414 140.232 296.437C140.232 298.776 138.648 300.66 136.388 301.549L139.952 308.005C140.131 308.339 139.952 308.742 139.51 308.742H136.054C135.844 308.742 135.689 308.613 135.635 308.514L132.179 301.776H130.385V308.263C130.385 308.514 130.152 308.749 129.888 308.749H126.798C126.51 308.749 126.301 308.522 126.301 308.263V291.431H126.293ZM134.221 298.548C135.285 298.548 136.194 297.584 136.194 296.513C136.194 295.442 135.285 294.583 134.221 294.583H130.378V298.548H134.221Z" fill="#006939"/>
<path d="M144.231 291.431C144.231 291.18 144.441 290.945 144.728 290.945H155.491C155.779 290.945 155.988 291.173 155.988 291.431V294.203C155.988 294.454 155.779 294.69 155.491 294.69H148.293V297.842H154.218C154.474 297.842 154.715 298.07 154.715 298.328V301.1C154.715 301.382 154.482 301.587 154.218 301.587H148.293V305.02H155.491C155.779 305.02 155.988 305.248 155.988 305.506V308.279C155.988 308.529 155.779 308.765 155.491 308.765H144.728C144.441 308.765 144.231 308.537 144.231 308.279V291.431Z" fill="#006939"/>
<path d="M158.372 291.553C158.271 291.196 158.473 290.945 158.838 290.945H161.882C162.091 290.945 162.301 291.12 162.348 291.302L164.584 299.923H164.685L168.715 290.975C168.793 290.823 168.948 290.694 169.158 290.694H169.624C169.857 290.694 170.012 290.823 170.066 290.975L174.097 299.923H174.198L176.434 291.302C176.488 291.127 176.69 290.945 176.9 290.945H179.944C180.309 290.945 180.519 291.196 180.41 291.553L175.494 308.643C175.44 308.848 175.238 309 175.029 309H174.609C174.431 309 174.244 308.871 174.167 308.719L169.406 298.32H169.329L164.6 308.719C164.522 308.871 164.343 309 164.157 309H163.738C163.528 309 163.318 308.848 163.272 308.643L158.372 291.553Z" fill="#006939"/>
<path d="M180.62 308.089L188.758 290.975C188.836 290.823 189.015 290.694 189.201 290.694H189.457C189.636 290.694 189.822 290.823 189.9 290.975L198.038 308.089C198.193 308.415 197.984 308.749 197.595 308.749H194.707C194.241 308.749 194.031 308.598 193.798 308.111L192.858 306.106H185.784L184.844 308.142C184.712 308.446 184.425 308.749 183.905 308.749H181.047C180.674 308.749 180.465 308.415 180.62 308.089ZM191.305 302.642L189.333 298.45H189.31L187.361 302.642H191.305Z" fill="#006939"/>
<path d="M200.687 291.431C200.687 291.18 200.896 290.945 201.184 290.945H208.957C212.078 290.945 214.626 293.414 214.626 296.437C214.626 298.776 213.041 300.66 210.774 301.549L214.338 308.005C214.517 308.339 214.338 308.742 213.896 308.742H210.44C210.23 308.742 210.075 308.613 210.021 308.514L206.565 301.776H204.771V308.263C204.771 308.514 204.538 308.749 204.274 308.749H201.184C200.896 308.749 200.687 308.522 200.687 308.263V291.431ZM208.615 298.548C209.679 298.548 210.587 297.584 210.587 296.513C210.587 295.442 209.679 294.583 208.615 294.583H204.763V298.548H208.615Z" fill="#006939"/>
<path d="M218.624 291.431C218.624 291.18 218.834 290.945 219.09 290.945H225.434C230.451 290.945 234.559 294.94 234.559 299.817C234.559 304.754 230.451 308.742 225.434 308.742H219.09C218.834 308.742 218.624 308.514 218.624 308.256V291.431ZM225.178 304.982C228.113 304.982 230.249 302.718 230.249 299.817C230.249 296.946 228.113 294.682 225.178 294.682H222.685V304.982H225.178Z" fill="#006939"/>
<path d="M237.207 306.326L238.426 304.215C238.636 303.881 239.125 303.934 239.312 304.063C239.413 304.116 241.284 305.46 243 305.46C244.041 305.46 244.794 304.822 244.794 303.934C244.794 302.863 243.885 302.05 242.115 301.366C239.879 300.5 237.075 298.799 237.075 295.745C237.075 293.231 239.079 290.687 243.078 290.687C245.78 290.687 247.861 292.031 248.646 292.593C248.956 292.768 248.902 293.231 248.801 293.406L247.473 295.366C247.295 295.647 246.821 295.875 246.588 295.7C246.355 295.571 244.452 294.173 242.868 294.173C241.929 294.173 241.23 294.781 241.23 295.472C241.23 296.414 242.006 297.128 244.064 297.941C246.091 298.731 249.314 300.28 249.314 303.736C249.314 306.357 246.999 309 243.179 309C239.801 309 237.929 307.625 237.331 307.04C237.083 306.79 237.005 306.683 237.207 306.326Z" fill="#006939"/>
<path d="M219.237 253.809C220.099 253.809 277.377 253.809 277.377 253.809C280.553 253.809 283.085 251.234 283.023 248.044C283.023 248.044 283.007 247.793 282.999 247.664C282.945 247.231 282.339 246.897 282.091 247.246C281.4 248.234 279.039 248.234 277.525 248.234C277.525 248.234 219.711 248.226 219.167 248.226C209.429 248.226 201.167 259.612 199.257 262.005C200.188 259.377 202.052 253.847 202.006 251.713C201.912 246.79 196.104 246.54 193.192 247.626C192.873 247.748 192.99 248.256 193.332 248.325C194.302 248.507 196.166 249.221 195.483 251.902C195.421 252.313 187.74 279.885 187.74 279.885C187.663 280.174 187.88 280.463 188.175 280.463H193.611C193.805 280.463 193.976 280.334 194.03 280.151C194.566 278.29 196.741 270.793 196.772 270.725C198.177 266.919 200.22 264.42 201.936 264.42C202.736 264.42 203.139 264.884 203.147 265.423C203.17 266.669 201.377 272.122 200.639 274.963C199.692 278.571 201.889 281.101 205.407 281.101C209.088 281.101 210.695 279.24 212.644 275.624C213.46 274.113 216.644 265.112 217.234 263.228C217.839 263.365 218.818 263.478 219.594 263.539C219.571 263.623 218.608 267.352 218.251 268.758C217.886 270.239 217.482 271.682 217.451 273.247C217.412 275.487 218.204 277.948 220.938 277.948C223.904 277.948 225.783 276.027 226.855 274.682C227.5 276.095 229.231 277.948 232.066 277.948C234.9 277.948 237.253 276.893 238.961 274.735L238.255 277.227C238.185 277.493 238.387 277.751 238.659 277.751H242.627C242.805 277.751 242.968 277.629 243.015 277.455L245.974 266.775C246.548 265.286 248.389 264.01 249.414 264.01C249.903 264.01 250.19 264.306 250.019 265.036L246.766 277.227C246.696 277.493 246.898 277.751 247.17 277.751H251.145C251.324 277.751 251.487 277.629 251.534 277.455L254.384 266.775C255.044 265.339 256.814 264.003 257.832 264.003C258.297 264.003 258.569 264.329 258.398 265.036C258.367 265.172 257.397 268.773 257.117 269.821C255.424 276.072 257.008 277.926 260.309 277.926C262.638 277.926 264.533 276.68 265.721 275.039C266.7 277.326 268.913 277.941 270.885 277.941C275.055 277.941 277.183 275.199 278.115 273.824C278.262 273.604 278.216 273.292 278.045 273.156C277.874 273.026 277.727 272.92 277.447 272.745C277.245 272.624 276.973 272.654 276.857 272.791C275.84 274.037 274.597 275.092 272.306 275.092C270.295 275.092 269.542 273.057 269.511 271.659C269.503 271.439 269.519 271.302 269.534 271.127C275.234 271.127 277.851 267.497 277.796 264.808C277.758 262.658 276.655 260.471 273.44 260.471C267.919 260.471 264.774 266.433 264.859 271.082C264.867 271.363 264.945 272.7 265.069 273.33C264.549 274.006 263.477 274.834 262.53 274.834C261.606 274.834 261.373 273.832 261.497 272.677C261.831 269.464 263.329 265.788 263.283 263.334C263.26 262.294 262.739 260.478 260.231 260.478C258.173 260.478 256.014 261.716 254.686 263.349C254.57 262.294 254.438 260.478 251.852 260.478C250.571 260.478 248.482 261.139 246.797 263L247.302 261.2C247.371 260.934 247.17 260.668 246.898 260.668H243.139C242.961 260.668 242.798 260.79 242.751 260.964C242.751 260.964 240.553 268.834 240.483 269.061C238.084 274.622 235.428 275.092 233.432 275.092C231.584 275.092 230.621 272.928 230.769 271.12C235.514 271.12 239.078 268.37 239.016 264.724C238.969 262.392 237.688 260.463 234.543 260.463C228.501 260.463 226.055 267.611 226.125 271.188C226.133 271.773 226.195 272.366 226.257 272.814C226.063 273.186 225.053 274.325 223.842 274.325C222.033 274.325 222.064 270.193 224.929 261.693L225.053 261.382C225.154 261.124 224.96 260.843 224.689 260.85C223.431 260.866 219.905 261.223 217.925 260.478C217.933 260.448 218.577 257.417 215.401 257.417C213.863 257.417 212.737 258.404 212.761 259.703C212.8 261.61 214.228 262.354 215.067 262.719C213.724 266.714 212.31 270.626 210.975 273.581C209.701 276.391 208.598 277.159 207.768 277.159C207.03 277.159 206.781 276.642 206.774 276.027C206.735 273.847 209.895 268.203 209.802 263.243C209.763 261.321 208.311 260.167 206.486 260.167C205.531 260.167 203.994 260.387 202.565 261.435C202.604 261.481 208.179 253.809 219.237 253.809ZM273.393 262.559C274.061 262.559 274.24 263.395 274.255 263.965C274.318 267.086 272.299 269.38 269.581 269.548C269.984 266 271.506 262.559 273.393 262.559ZM234.613 262.559C235.537 262.559 235.56 263.805 235.506 264.595C235.351 266.714 234.069 269.206 230.839 269.555C231.25 266.008 232.858 262.559 234.613 262.559Z" fill="#CC112C"/>
<path d="M142.087 253.809L184.269 253.817C187.445 253.817 189.976 251.234 189.914 248.051C189.914 248.051 189.899 247.801 189.883 247.672C189.829 247.239 189.262 246.821 188.975 247.254C188.361 248.173 186.49 248.241 184.975 248.241C184.975 248.241 145.931 248.241 142.071 248.241C142.654 249.046 142.98 249.966 142.98 251.029C142.98 252.138 142.545 253.224 142.087 253.809Z" fill="#CC112C"/>
<path d="M138.049 253.817C139.623 253.817 140.899 252.569 140.899 251.029C140.899 249.489 139.623 248.241 138.049 248.241C136.475 248.241 135.199 249.489 135.199 251.029C135.199 252.569 136.475 253.817 138.049 253.817Z" fill="#CC112C"/>
<path d="M185.147 260.706H181.217C181.031 260.706 180.868 260.828 180.814 261.01L178.111 270.649C177.249 273.513 176.092 274.994 174.959 274.994C173.801 274.994 173.662 273.573 173.933 272.366L177.04 261.261C177.117 260.987 176.908 260.714 176.62 260.714H172.683C172.497 260.714 172.342 260.835 172.287 261.01L172.085 261.663L170.532 267.307C170.253 268.416 169.942 269.449 169.67 270.406C169.088 272.449 167.434 273.71 167.084 273.953C166.416 274.416 165.749 274.758 165.073 275.016C166.168 273.391 166.976 271.203 167.48 268.742C168.428 264.132 167.364 260.524 163.885 260.524C162.557 260.524 161.105 260.919 159.901 262.4L160.22 261.261C160.29 260.995 160.088 260.729 159.816 260.729H156.104C155.925 260.729 155.77 260.843 155.716 261.01L155.568 261.473L152.874 271.234C152.454 272.753 151.375 273.695 150.769 274.113C150.35 274.386 149.923 274.629 149.496 274.834C150.187 273.513 150.249 272.153 150.241 271.614C150.171 268.12 148.735 264.671 148.688 262.24C148.665 261.055 149.045 260.379 149.309 259.954C149.457 259.726 149.34 259.422 149.084 259.422C148.944 259.422 147.011 259.422 146.91 259.422C146.739 259.422 146.405 259.468 146.211 259.794C145.225 261.374 141.808 267.459 139.758 270.755C138.406 270.945 137.133 272.373 137.638 273.968C137.428 274.234 136.815 275.001 135.96 275.001C135.339 275.001 135.145 273.938 135.743 271.69C135.774 271.568 135.782 271.492 135.782 271.492L138.624 261.223C138.694 260.972 138.5 260.721 138.243 260.721H134.57C134.267 260.721 133.903 260.843 133.802 261.185L133.662 261.671C133.662 261.671 131.309 270.239 130.89 271.712C130.47 273.186 129.181 274.378 128.187 274.378C126.401 274.378 126.471 269.897 129.228 261.731L129.352 261.42C129.453 261.162 129.259 260.881 128.987 260.888C127.729 260.903 124.235 261.26 122.262 260.524C122.402 259.901 122.503 257.463 119.575 257.463C118.038 257.463 116.826 258.701 117.09 260.25C117.323 261.61 118.558 262.377 119.404 262.742C118.03 267.003 115.879 272.525 114.823 274.72C114.411 275.571 113.208 277.227 112.004 277.227C111.22 277.227 111.111 276.52 111.103 275.905C111.072 274.394 114.155 267.747 114.124 263.539C114.116 262.499 113.51 260.212 110.862 260.212C109.162 260.212 107.989 260.683 106.848 261.488C106.848 261.488 112.229 253.824 123.287 253.824C124.18 253.824 133.041 253.824 133.996 253.824C133.406 252.989 133.118 252.1 133.103 251.044C133.079 249.988 133.483 248.97 134.011 248.256C133.134 248.256 124.048 248.249 123.217 248.249C113.479 248.249 105.403 259.635 103.493 262.028C104.425 259.4 106.289 253.87 106.242 251.735C106.149 246.813 100.34 246.563 97.4282 247.649C97.1098 247.77 97.2263 248.279 97.5679 248.348C98.5386 248.53 100.402 249.244 99.719 251.925C99.6568 252.335 91.9768 279.908 91.9768 279.908C91.8991 280.197 92.1166 280.485 92.4117 280.485H97.8475C98.0416 280.485 98.2125 280.356 98.2668 280.174C98.8026 278.313 100.977 270.816 101.008 270.748C102.266 267.337 104.27 264.443 106.172 264.443C107.849 264.443 107.43 266.031 107.042 267.314C106.265 269.897 105.597 272.366 104.867 275.032C103.734 279.164 107.104 281.116 110.016 281.116C114.139 281.116 115.661 278.192 116.881 275.647C118.247 272.783 120.888 265.134 121.478 263.251C122.083 263.387 123.07 263.501 123.854 263.554C123.831 263.638 122.845 267.375 122.495 268.773C122.13 270.254 121.726 271.697 121.695 273.262C121.664 275.206 122.425 278.017 125.384 278.017C127.325 278.017 128.855 277.219 129.973 275.958C130.074 275.844 130.167 275.731 130.261 275.617C130.369 276.019 130.548 276.399 130.804 276.718C131.557 277.637 132.714 277.971 133.949 277.971C135.922 277.971 137.684 276.657 138.383 275.837C139.082 276.938 140.526 277.986 143.268 277.986C143.493 277.986 143.71 277.979 143.92 277.971C146.646 277.85 149.581 276.969 151.678 275.525L151.344 276.733L149.581 283.121C149.503 283.41 149.721 283.698 150.024 283.698H153.906C154.108 283.698 154.279 283.569 154.333 283.379L156.166 276.612C156.795 277.516 157.89 277.986 160.22 277.994C160.227 277.994 160.227 277.994 160.227 277.994C163.73 277.994 166.983 276.68 169.041 274.485C169.297 276.619 170.897 277.986 172.505 277.979C173.499 277.979 175.184 277.85 176.543 276.285C176.543 276.285 176.022 278.123 175.844 278.594C171.534 278.594 168.311 280.903 168.358 283.417C168.389 285.134 170.361 286.372 172.497 286.372C177.443 286.372 178.965 283.167 180.037 280.706C180.744 280.82 182.607 281.298 183.12 281.427C183.33 281.481 183.532 281.359 183.594 281.154L183.85 280.394C183.912 280.182 183.834 279.87 183.617 279.809L180.635 279.004L185.551 261.276C185.636 260.979 185.426 260.706 185.147 260.706ZM143.035 276.012C142.359 276.012 141.746 275.655 141.738 275.32C141.73 274.796 142.507 274.477 142.483 273.216C142.468 272.571 142.157 271.598 141.536 271.272C141.971 270.626 144.557 266.031 144.829 265.438C144.914 265.932 145.613 267.975 145.69 272.024C145.729 274.325 144.401 276.012 143.035 276.012ZM162.899 266.859C162.138 271.371 160.732 275.222 158.542 275.222C157.37 275.222 156.904 273.999 157.393 272.252C158.045 269.92 158.597 267.808 158.752 267.238C159.272 265.377 160.196 263.471 161.827 263.471C162.666 263.463 163.318 264.382 162.899 266.859ZM171.984 283.79C171.417 283.79 171.037 283.425 171.021 282.969C170.99 281.336 173.537 280.432 175.215 280.349C174.329 282.46 173.693 283.79 171.984 283.79Z" fill="#CC112C"/>
</svg>
