<svg width="375" height="384" viewBox="0 0 375 384" fill="none" xmlns="http://www.w3.org/2000/svg">
<mask id="mask0_1836_60177" style="mask-type:luminance" maskUnits="userSpaceOnUse" x="-51" y="93" width="567" height="291">
<path d="M-50.5729 384L516 384L516 93.1618L-50.573 93.1619L-50.5729 384Z" fill="white"/>
</mask>
<g mask="url(#mask0_1836_60177)">
<path d="M356.012 328.756C356.929 328.652 357.857 328.822 358.678 329.245C359.498 329.667 360.175 330.324 360.623 331.13C361.07 331.937 361.268 332.859 361.192 333.778C361.116 334.697 360.768 335.573 360.193 336.295C359.619 337.017 358.843 337.553 357.964 337.835C357.084 338.116 356.141 338.131 355.253 337.878C354.366 337.624 353.573 337.113 352.976 336.409C352.379 335.706 352.004 334.841 351.898 333.925C351.761 332.695 352.117 331.461 352.888 330.493C353.659 329.525 354.782 328.9 356.012 328.756Z" fill="#05693A"/>
<path d="M325.056 332.289C325.973 332.186 326.901 332.356 327.722 332.778C328.542 333.201 329.219 333.857 329.667 334.664C330.114 335.471 330.312 336.392 330.236 337.312C330.16 338.231 329.812 339.107 329.237 339.829C328.663 340.551 327.887 341.087 327.008 341.368C326.128 341.65 325.185 341.665 324.297 341.411C323.41 341.158 322.617 340.647 322.02 339.943C321.423 339.24 321.048 338.375 320.942 337.459C320.805 336.229 321.161 334.995 321.932 334.026C322.702 333.058 323.825 332.433 325.056 332.289Z" fill="#05693A"/>
<path d="M294.098 335.823C295.015 335.719 295.943 335.889 296.764 336.312C297.584 336.735 298.261 337.391 298.709 338.198C299.156 339.005 299.354 339.926 299.278 340.845C299.202 341.764 298.854 342.641 298.279 343.363C297.705 344.085 296.929 344.62 296.05 344.902C295.17 345.184 294.227 345.199 293.339 344.945C292.452 344.691 291.659 344.18 291.062 343.477C290.465 342.773 290.09 341.909 289.984 340.992C289.847 339.763 290.203 338.529 290.974 337.56C291.745 336.592 292.868 335.967 294.098 335.823Z" fill="#05693A"/>
<path d="M263.141 339.357C264.058 339.253 264.986 339.423 265.806 339.846C266.627 340.268 267.304 340.924 267.752 341.731C268.199 342.538 268.397 343.46 268.321 344.379C268.244 345.298 267.897 346.174 267.322 346.896C266.748 347.618 265.972 348.154 265.093 348.436C264.213 348.717 263.27 348.732 262.382 348.479C261.495 348.225 260.702 347.714 260.105 347.01C259.508 346.307 259.133 345.442 259.027 344.526C258.89 343.296 259.246 342.062 260.017 341.094C260.788 340.125 261.911 339.501 263.141 339.357Z" fill="#05693A"/>
<path d="M232.184 342.89C233.102 342.786 234.03 342.957 234.85 343.379C235.671 343.802 236.348 344.458 236.796 345.265C237.243 346.072 237.441 346.993 237.365 347.912C237.288 348.832 236.941 349.708 236.366 350.43C235.792 351.152 235.016 351.688 234.136 351.969C233.257 352.251 232.314 352.266 231.426 352.012C230.539 351.759 229.746 351.248 229.149 350.544C228.552 349.841 228.176 348.976 228.071 348.059C227.934 346.83 228.29 345.596 229.061 344.628C229.832 343.659 230.954 343.035 232.184 342.89Z" fill="#05693A"/>
<path d="M201.226 346.423C202.143 346.319 203.071 346.489 203.891 346.911C204.712 347.333 205.389 347.989 205.837 348.796C206.285 349.603 206.483 350.524 206.407 351.443C206.331 352.362 205.984 353.239 205.409 353.961C204.835 354.683 204.059 355.219 203.18 355.501C202.301 355.783 201.358 355.798 200.47 355.545C199.583 355.292 198.79 354.781 198.192 354.078C197.595 353.375 197.219 352.511 197.113 351.594C196.977 350.365 197.332 349.131 198.103 348.162C198.874 347.194 199.997 346.569 201.227 346.425" fill="#05693A"/>
<path d="M170.27 349.956C171.5 349.82 172.735 350.175 173.705 350.945C174.674 351.715 175.299 352.836 175.444 354.065C175.548 354.981 175.378 355.908 174.955 356.728C174.531 357.548 173.875 358.224 173.067 358.671C172.259 359.118 171.337 359.316 170.417 359.24C169.497 359.164 168.62 358.817 167.897 358.243C167.174 357.668 166.638 356.893 166.356 356.015C166.074 355.136 166.059 354.194 166.313 353.307C166.567 352.42 167.079 351.629 167.783 351.032C168.487 350.435 169.352 350.061 170.27 349.955" fill="#05693A"/>
<path d="M139.314 353.495C140.544 353.358 141.779 353.714 142.749 354.484C143.718 355.253 144.343 356.375 144.488 357.603C144.592 358.52 144.422 359.447 143.999 360.267C143.575 361.087 142.919 361.763 142.111 362.21C141.303 362.657 140.381 362.855 139.461 362.779C138.541 362.702 137.664 362.355 136.941 361.781C136.218 361.207 135.682 360.432 135.4 359.553C135.118 358.675 135.103 357.733 135.357 356.846C135.611 355.959 136.122 355.167 136.827 354.571C137.531 353.974 138.396 353.599 139.314 353.494" fill="#05693A"/>
<path d="M108.357 357.024C109.275 356.92 110.202 357.089 111.023 357.512C111.844 357.934 112.521 358.591 112.969 359.397C113.417 360.204 113.615 361.126 113.539 362.045C113.462 362.964 113.115 363.84 112.541 364.563C111.966 365.285 111.19 365.821 110.311 366.102C109.431 366.384 108.488 366.399 107.601 366.146C106.713 365.892 105.92 365.381 105.323 364.677C104.725 363.974 104.35 363.109 104.245 362.193C104.108 360.963 104.464 359.73 105.234 358.761C106.005 357.793 107.127 357.168 108.357 357.024Z" fill="#05693A"/>
<path d="M77.4044 360.554C78.6351 360.417 79.8699 360.773 80.8392 361.542C81.8086 362.312 82.4339 363.433 82.5785 364.662C82.6828 365.579 82.5127 366.506 82.0899 367.326C81.667 368.146 81.0102 368.822 80.2026 369.269C79.395 369.717 78.4728 369.915 77.5525 369.839C76.6323 369.762 75.7553 369.415 75.0324 368.841C74.3095 368.267 73.7731 367.492 73.4911 366.614C73.209 365.735 73.194 364.793 73.4479 363.906C73.7017 363.019 74.2131 362.227 74.9173 361.631C75.6215 361.034 76.487 360.659 77.4044 360.554Z" fill="#05693A"/>
<path d="M46.4406 364.091C47.6713 363.954 48.9061 364.31 49.8755 365.08C50.8449 365.849 51.4701 366.971 51.6148 368.199C51.7188 369.116 51.5485 370.043 51.1255 370.863C50.7024 371.683 50.0455 372.359 49.2379 372.806C48.4302 373.253 47.508 373.451 46.5878 373.375C45.6676 373.298 44.7907 372.951 44.068 372.377C43.3452 371.803 42.8089 371.028 42.527 370.149C42.2451 369.271 42.2302 368.329 42.4841 367.442C42.738 366.555 43.2494 365.763 43.9537 365.167C44.6579 364.57 45.5233 364.196 46.4406 364.091Z" fill="#05693A"/>
<path d="M15.4862 367.625C16.4037 367.521 17.3315 367.691 18.1522 368.114C18.9729 368.536 19.6499 369.192 20.0974 369.999C20.5449 370.806 20.743 371.727 20.6666 372.647C20.5902 373.566 20.2427 374.442 19.6681 375.164C19.0935 375.886 18.3175 376.422 17.4382 376.704C16.559 376.985 15.6158 377 14.7281 376.746C13.8403 376.493 13.0477 375.982 12.4505 375.278C11.8533 374.575 11.4782 373.71 11.3727 372.794C11.2361 371.564 11.5919 370.33 12.3626 369.362C13.1333 368.393 14.2562 367.769 15.4862 367.625Z" fill="#05693A"/>
<path d="M356.012 297.628C357.243 297.491 358.477 297.846 359.447 298.616C360.416 299.385 361.041 300.507 361.186 301.735C361.29 302.652 361.12 303.579 360.697 304.399C360.274 305.219 359.617 305.895 358.809 306.342C358.002 306.789 357.079 306.987 356.159 306.911C355.239 306.834 354.362 306.487 353.639 305.913C352.916 305.339 352.38 304.564 352.098 303.685C351.816 302.807 351.801 301.865 352.055 300.978C352.309 300.091 352.821 299.299 353.525 298.703C354.229 298.106 355.095 297.731 356.012 297.626" fill="#05693A"/>
<path d="M325.056 301.161C325.973 301.057 326.901 301.227 327.722 301.65C328.542 302.072 329.219 302.728 329.667 303.535C330.114 304.342 330.312 305.263 330.236 306.183C330.16 307.102 329.812 307.978 329.237 308.7C328.663 309.422 327.887 309.958 327.008 310.24C326.128 310.521 325.185 310.536 324.297 310.282C323.41 310.029 322.617 309.518 322.02 308.814C321.423 308.111 321.048 307.246 320.942 306.33C320.805 305.1 321.161 303.866 321.932 302.898C322.703 301.929 323.826 301.305 325.056 301.161Z" fill="#05693A"/>
<path d="M294.098 304.694C295.015 304.59 295.943 304.761 296.764 305.183C297.584 305.606 298.261 306.262 298.709 307.069C299.156 307.876 299.354 308.797 299.278 309.716C299.202 310.636 298.854 311.512 298.279 312.234C297.705 312.956 296.929 313.492 296.05 313.773C295.17 314.055 294.227 314.07 293.339 313.816C292.452 313.562 291.659 313.052 291.062 312.348C290.465 311.644 290.09 310.78 289.984 309.863C289.847 308.634 290.203 307.4 290.974 306.432C291.745 305.463 292.868 304.839 294.098 304.694Z" fill="#05693A"/>
<path d="M263.141 308.228C264.372 308.091 265.606 308.447 266.576 309.216C267.545 309.986 268.17 311.108 268.315 312.336C268.419 313.253 268.249 314.18 267.826 315C267.403 315.82 266.746 316.496 265.938 316.943C265.13 317.39 264.208 317.588 263.288 317.512C262.368 317.435 261.491 317.088 260.768 316.514C260.045 315.94 259.509 315.165 259.227 314.286C258.945 313.408 258.93 312.466 259.184 311.579C259.438 310.692 259.95 309.9 260.654 309.303C261.358 308.707 262.224 308.333 263.141 308.228Z" fill="#05693A"/>
<path d="M232.184 311.762C233.102 311.658 234.03 311.828 234.85 312.25C235.671 312.673 236.348 313.329 236.796 314.136C237.243 314.943 237.441 315.864 237.365 316.784C237.288 317.703 236.941 318.579 236.366 319.301C235.792 320.023 235.016 320.559 234.136 320.841C233.257 321.122 232.314 321.137 231.426 320.883C230.539 320.63 229.746 320.119 229.149 319.415C228.552 318.712 228.176 317.847 228.071 316.931C227.934 315.701 228.29 314.467 229.061 313.499C229.832 312.53 230.954 311.906 232.184 311.762Z" fill="#05693A"/>
<path d="M201.226 315.295C202.457 315.159 203.691 315.514 204.661 316.284C205.63 317.053 206.255 318.175 206.4 319.404C206.504 320.32 206.334 321.247 205.911 322.067C205.488 322.887 204.831 323.563 204.023 324.01C203.215 324.457 202.293 324.655 201.373 324.579C200.453 324.503 199.576 324.155 198.853 323.581C198.13 323.007 197.594 322.232 197.312 321.354C197.03 320.475 197.015 319.533 197.269 318.646C197.523 317.759 198.035 316.967 198.739 316.371C199.443 315.774 200.309 315.401 201.226 315.295Z" fill="#05693A"/>
<path d="M170.27 318.829C171.188 318.725 172.116 318.895 172.936 319.318C173.757 319.74 174.434 320.397 174.882 321.204C175.329 322.01 175.527 322.932 175.451 323.851C175.374 324.77 175.027 325.646 174.452 326.368C173.878 327.091 173.102 327.626 172.222 327.908C171.343 328.189 170.4 328.204 169.512 327.951C168.624 327.697 167.832 327.186 167.235 326.483C166.637 325.779 166.262 324.914 166.157 323.998C166.02 322.768 166.376 321.535 167.147 320.566C167.917 319.598 169.04 318.973 170.27 318.829Z" fill="#05693A"/>
<path d="M108.358 325.895C109.588 325.758 110.823 326.114 111.793 326.883C112.762 327.653 113.387 328.775 113.532 330.003C113.636 330.92 113.466 331.847 113.042 332.667C112.619 333.487 111.963 334.163 111.155 334.61C110.347 335.057 109.425 335.255 108.505 335.179C107.585 335.102 106.708 334.755 105.985 334.181C105.262 333.607 104.726 332.832 104.444 331.953C104.162 331.075 104.147 330.133 104.401 329.246C104.655 328.359 105.166 327.567 105.871 326.971C106.575 326.374 107.44 326 108.358 325.895Z" fill="#05693A"/>
<path d="M77.4042 329.429C78.3217 329.325 79.2494 329.495 80.0702 329.917C80.8909 330.34 81.5678 330.996 82.0154 331.803C82.4629 332.61 82.661 333.531 82.5846 334.451C82.5082 335.37 82.1607 336.246 81.5861 336.968C81.0115 337.69 80.2355 338.226 79.3562 338.508C78.4769 338.789 77.5338 338.804 76.646 338.55C75.7583 338.297 74.9657 337.786 74.3685 337.082C73.7713 336.379 73.3962 335.514 73.2907 334.598C73.154 333.368 73.5099 332.134 74.2806 331.166C75.0513 330.197 76.1742 329.573 77.4042 329.429Z" fill="#05693A"/>
<path d="M46.4403 332.962C47.3578 332.858 48.2855 333.028 49.1063 333.451C49.927 333.874 50.604 334.53 51.0515 335.337C51.499 336.144 51.6971 337.065 51.6207 337.984C51.5443 338.904 51.1968 339.78 50.6222 340.502C50.0476 341.224 49.2716 341.76 48.3923 342.041C47.5131 342.323 46.5699 342.338 45.6822 342.084C44.7944 341.83 44.0018 341.32 43.4046 340.616C42.8074 339.912 42.4324 339.048 42.3268 338.131C42.1902 336.902 42.546 335.668 43.3167 334.7C44.0874 333.731 45.2103 333.107 46.4403 332.962Z" fill="#05693A"/>
<path d="M15.4846 336.497C16.7151 336.36 17.9499 336.715 18.9193 337.485C19.8888 338.254 20.5141 339.376 20.6587 340.604C20.7628 341.521 20.5925 342.448 20.1694 343.268C19.7463 344.088 19.0895 344.764 18.2818 345.211C17.4742 345.658 16.552 345.856 15.6318 345.78C14.7116 345.703 13.8347 345.356 13.1119 344.782C12.3891 344.208 11.8529 343.433 11.571 342.554C11.2891 341.676 11.2741 340.734 11.528 339.847C11.782 338.96 12.2934 338.168 12.9976 337.571C13.7018 336.975 14.5673 336.6 15.4846 336.495" fill="#05693A"/>
<path d="M356.012 266.5C356.93 266.395 357.858 266.565 358.679 266.988C359.499 267.41 360.177 268.066 360.624 268.873C361.072 269.68 361.27 270.601 361.194 271.521C361.118 272.44 360.77 273.316 360.196 274.038C359.621 274.761 358.845 275.296 357.966 275.578C357.087 275.86 356.144 275.875 355.256 275.621C354.368 275.368 353.575 274.857 352.978 274.153C352.381 273.45 352.006 272.585 351.9 271.669C351.763 270.439 352.119 269.206 352.89 268.237C353.66 267.269 354.783 266.644 356.012 266.5Z" fill="#05693A"/>
<path d="M325.055 270.033C326.286 269.897 327.52 270.252 328.49 271.022C329.459 271.791 330.084 272.913 330.229 274.141C330.333 275.058 330.163 275.985 329.74 276.805C329.317 277.625 328.66 278.301 327.852 278.748C327.044 279.195 326.122 279.393 325.202 279.317C324.282 279.24 323.405 278.893 322.682 278.319C321.959 277.745 321.423 276.97 321.141 276.092C320.859 275.213 320.844 274.271 321.098 273.384C321.352 272.497 321.864 271.705 322.568 271.109C323.272 270.512 324.138 270.139 325.055 270.033Z" fill="#05693A"/>
<path d="M294.098 273.567C295.329 273.43 296.563 273.786 297.533 274.555C298.502 275.325 299.127 276.447 299.272 277.675C299.376 278.592 299.206 279.519 298.783 280.338C298.36 281.158 297.703 281.835 296.895 282.282C296.087 282.729 295.165 282.927 294.245 282.85C293.325 282.774 292.448 282.427 291.725 281.853C291.002 281.279 290.466 280.504 290.184 279.625C289.902 278.747 289.887 277.805 290.141 276.918C290.395 276.031 290.907 275.239 291.611 274.642C292.315 274.046 293.181 273.672 294.098 273.567Z" fill="#05693A"/>
<path d="M263.141 277.099C264.058 276.995 264.986 277.165 265.806 277.588C266.627 278.011 267.304 278.667 267.752 279.474C268.199 280.281 268.397 281.202 268.321 282.121C268.244 283.041 267.897 283.917 267.322 284.639C266.748 285.361 265.972 285.897 265.093 286.178C264.213 286.46 263.27 286.475 262.382 286.221C261.495 285.967 260.702 285.456 260.105 284.753C259.508 284.049 259.133 283.185 259.027 282.268C258.89 281.039 259.246 279.805 260.017 278.836C260.788 277.868 261.911 277.243 263.141 277.099Z" fill="#05693A"/>
<path d="M232.184 280.633C233.415 280.496 234.649 280.852 235.619 281.621C236.588 282.391 237.213 283.513 237.358 284.741C237.462 285.658 237.292 286.585 236.869 287.405C236.446 288.225 235.789 288.901 234.981 289.348C234.173 289.795 233.251 289.993 232.331 289.917C231.411 289.84 230.534 289.493 229.811 288.919C229.088 288.345 228.552 287.57 228.27 286.691C227.988 285.813 227.973 284.871 228.227 283.984C228.481 283.097 228.993 282.305 229.697 281.708C230.401 281.112 231.267 280.738 232.184 280.633Z" fill="#05693A"/>
<path d="M201.225 284.167C202.143 284.063 203.071 284.233 203.891 284.655C204.712 285.078 205.389 285.734 205.837 286.541C206.284 287.348 206.482 288.269 206.406 289.189C206.329 290.108 205.982 290.984 205.407 291.706C204.833 292.428 204.057 292.964 203.177 293.245C202.298 293.527 201.355 293.542 200.467 293.288C199.58 293.035 198.787 292.524 198.19 291.82C197.593 291.117 197.217 290.252 197.112 289.336C196.975 288.106 197.331 286.872 198.102 285.904C198.873 284.935 199.995 284.311 201.225 284.167Z" fill="#05693A"/>
<path d="M170.27 287.7C171.188 287.596 172.116 287.766 172.936 288.189C173.757 288.612 174.434 289.268 174.882 290.075C175.329 290.882 175.527 291.803 175.451 292.722C175.374 293.642 175.027 294.518 174.452 295.24C173.878 295.962 173.102 296.497 172.222 296.779C171.343 297.061 170.4 297.076 169.512 296.822C168.624 296.568 167.832 296.057 167.235 295.354C166.637 294.65 166.262 293.786 166.157 292.869C166.02 291.64 166.376 290.406 167.147 289.437C167.917 288.469 169.04 287.844 170.27 287.7Z" fill="#05693A"/>
<path d="M139.313 291.234C140.231 291.13 141.159 291.3 141.979 291.723C142.8 292.145 143.477 292.802 143.925 293.608C144.372 294.415 144.57 295.337 144.494 296.256C144.417 297.175 144.07 298.051 143.495 298.773C142.921 299.495 142.145 300.031 141.265 300.313C140.386 300.594 139.443 300.609 138.555 300.356C137.667 300.102 136.875 299.591 136.278 298.888C135.68 298.184 135.305 297.319 135.2 296.403C135.063 295.173 135.419 293.94 136.19 292.971C136.96 292.003 138.083 291.378 139.313 291.234Z" fill="#05693A"/>
<path d="M108.357 294.768C109.275 294.663 110.202 294.833 111.023 295.256C111.844 295.678 112.521 296.334 112.969 297.141C113.417 297.948 113.615 298.869 113.539 299.789C113.462 300.708 113.115 301.584 112.541 302.306C111.966 303.029 111.19 303.564 110.311 303.846C109.431 304.128 108.488 304.143 107.601 303.889C106.713 303.636 105.92 303.125 105.323 302.421C104.725 301.718 104.35 300.853 104.245 299.937C104.108 298.707 104.464 297.474 105.234 296.505C106.005 295.537 107.127 294.912 108.357 294.768Z" fill="#05693A"/>
<path d="M77.4042 298.301C78.3217 298.197 79.2494 298.367 80.0702 298.79C80.8909 299.213 81.5678 299.869 82.0154 300.676C82.4629 301.483 82.661 302.404 82.5846 303.323C82.5082 304.243 82.1607 305.119 81.5861 305.841C81.0115 306.563 80.2355 307.098 79.3562 307.38C78.4769 307.662 77.5338 307.677 76.646 307.423C75.7583 307.169 74.9657 306.658 74.3685 305.955C73.7713 305.251 73.3962 304.387 73.2907 303.47C73.154 302.241 73.5099 301.007 74.2806 300.038C75.0513 299.07 76.1742 298.445 77.4042 298.301Z" fill="#05693A"/>
<path d="M46.4402 301.835C47.3577 301.731 48.2855 301.901 49.1063 302.324C49.9271 302.746 50.604 303.403 51.0516 304.21C51.4991 305.016 51.6972 305.938 51.6207 306.857C51.5442 307.777 51.1966 308.653 50.6219 309.375C50.0471 310.097 49.271 310.632 48.3916 310.914C47.5123 311.195 46.5691 311.21 45.6813 310.956C44.7935 310.702 44.001 310.191 43.4039 309.488C42.8068 308.784 42.432 307.919 42.3267 307.003C42.19 305.773 42.5459 304.54 43.3166 303.571C44.0874 302.603 45.2103 301.979 46.4402 301.835Z" fill="#05693A"/>
<path d="M15.4862 305.367C16.4037 305.263 17.3315 305.433 18.1522 305.856C18.9729 306.279 19.6499 306.935 20.0974 307.742C20.5449 308.549 20.743 309.47 20.6666 310.389C20.5902 311.309 20.2427 312.185 19.6681 312.907C19.0935 313.629 18.3175 314.165 17.4382 314.446C16.559 314.728 15.6158 314.743 14.7281 314.489C13.8403 314.235 13.0477 313.724 12.4505 313.021C11.8533 312.317 11.4782 311.453 11.3727 310.536C11.2361 309.307 11.5919 308.073 12.3626 307.104C13.1333 306.136 14.2562 305.511 15.4862 305.367Z" fill="#05693A"/>
<path d="M356.012 235.371C357.243 235.234 358.477 235.59 359.447 236.359C360.416 237.129 361.041 238.251 361.186 239.479C361.29 240.396 361.12 241.322 360.697 242.142C360.274 242.962 359.617 243.639 358.809 244.086C358.002 244.533 357.079 244.731 356.159 244.654C355.239 244.578 354.362 244.231 353.639 243.657C352.916 243.083 352.38 242.308 352.098 241.429C351.816 240.551 351.801 239.609 352.055 238.722C352.309 237.835 352.821 237.043 353.525 236.446C354.229 235.85 355.095 235.475 356.012 235.37" fill="#05693A"/>
<path d="M325.055 238.901C326.286 238.764 327.52 239.12 328.49 239.889C329.459 240.659 330.084 241.78 330.229 243.009C330.333 243.926 330.163 244.852 329.74 245.672C329.317 246.492 328.66 247.169 327.852 247.616C327.044 248.063 326.122 248.261 325.202 248.184C324.282 248.108 323.405 247.761 322.682 247.187C321.959 246.613 321.423 245.838 321.141 244.959C320.859 244.081 320.844 243.139 321.098 242.252C321.352 241.365 321.864 240.573 322.568 239.976C323.272 239.38 324.138 239.005 325.055 238.9" fill="#05693A"/>
<path d="M294.098 242.439C295.015 242.335 295.943 242.506 296.764 242.928C297.584 243.351 298.261 244.007 298.709 244.814C299.156 245.621 299.354 246.542 299.278 247.461C299.202 248.381 298.854 249.257 298.279 249.979C297.705 250.701 296.929 251.237 296.05 251.518C295.17 251.8 294.227 251.815 293.339 251.561C292.452 251.307 291.659 250.797 291.062 250.093C290.465 249.389 290.09 248.525 289.984 247.608C289.847 246.379 290.203 245.145 290.974 244.176C291.744 243.208 292.867 242.583 294.098 242.439Z" fill="#05693A"/>
<path d="M263.141 245.972C264.372 245.835 265.606 246.191 266.576 246.96C267.545 247.73 268.17 248.851 268.315 250.08C268.419 250.997 268.249 251.923 267.826 252.743C267.403 253.563 266.746 254.24 265.938 254.687C265.13 255.134 264.208 255.332 263.288 255.255C262.368 255.179 261.491 254.832 260.768 254.258C260.045 253.684 259.509 252.909 259.227 252.03C258.945 251.152 258.93 250.21 259.184 249.323C259.438 248.436 259.95 247.644 260.654 247.047C261.358 246.451 262.224 246.077 263.141 245.972Z" fill="#05693A"/>
<path d="M232.184 249.505C233.102 249.401 234.03 249.572 234.85 249.994C235.671 250.417 236.348 251.073 236.796 251.88C237.243 252.687 237.441 253.608 237.365 254.527C237.288 255.447 236.941 256.323 236.366 257.045C235.792 257.767 235.016 258.303 234.136 258.584C233.257 258.866 232.314 258.881 231.426 258.627C230.539 258.373 229.746 257.863 229.149 257.159C228.552 256.456 228.176 255.591 228.071 254.674C227.934 253.445 228.29 252.211 229.061 251.243C229.832 250.274 230.954 249.65 232.184 249.505Z" fill="#05693A"/>
<path d="M201.225 253.039C202.143 252.935 203.071 253.105 203.891 253.528C204.712 253.951 205.389 254.607 205.837 255.414C206.284 256.22 206.482 257.142 206.406 258.061C206.329 258.98 205.982 259.856 205.407 260.579C204.833 261.301 204.057 261.836 203.177 262.118C202.298 262.4 201.355 262.414 200.467 262.161C199.58 261.907 198.787 261.396 198.19 260.693C197.593 259.989 197.217 259.125 197.112 258.208C196.975 256.978 197.331 255.745 198.102 254.776C198.873 253.808 199.995 253.183 201.225 253.039Z" fill="#05693A"/>
<path d="M170.27 256.571C171.5 256.435 172.735 256.79 173.705 257.56C174.674 258.33 175.299 259.451 175.444 260.68C175.548 261.596 175.378 262.523 174.955 263.343C174.531 264.163 173.875 264.839 173.067 265.286C172.259 265.734 171.337 265.931 170.417 265.855C169.497 265.779 168.62 265.432 167.897 264.858C167.174 264.283 166.638 263.508 166.356 262.63C166.074 261.751 166.059 260.809 166.313 259.922C166.567 259.035 167.079 258.244 167.783 257.647C168.487 257.05 169.352 256.677 170.27 256.571Z" fill="#05693A"/>
<path d="M139.313 260.105C140.231 260.001 141.159 260.171 141.979 260.594C142.8 261.017 143.477 261.673 143.925 262.48C144.372 263.287 144.57 264.208 144.494 265.127C144.417 266.046 144.07 266.923 143.495 267.645C142.921 268.367 142.145 268.902 141.265 269.184C140.386 269.466 139.443 269.481 138.555 269.227C137.667 268.973 136.875 268.462 136.278 267.759C135.68 267.055 135.305 266.191 135.2 265.274C135.063 264.045 135.419 262.811 136.19 261.842C136.96 260.874 138.083 260.249 139.313 260.105Z" fill="#05693A"/>
<path d="M108.357 263.639C109.275 263.535 110.202 263.704 111.023 264.127C111.844 264.549 112.521 265.206 112.969 266.012C113.417 266.819 113.615 267.741 113.539 268.66C113.462 269.579 113.115 270.455 112.541 271.178C111.966 271.9 111.19 272.436 110.311 272.717C109.431 272.999 108.488 273.014 107.601 272.761C106.713 272.507 105.92 271.996 105.323 271.292C104.725 270.589 104.35 269.724 104.245 268.808C104.108 267.578 104.464 266.345 105.234 265.376C106.005 264.408 107.127 263.783 108.357 263.639Z" fill="#05693A"/>
<path d="M77.404 267.174C78.3215 267.069 79.2493 267.239 80.0702 267.662C80.891 268.084 81.5682 268.74 82.0159 269.547C82.4636 270.354 82.6619 271.275 82.5856 272.195C82.5094 273.114 82.162 273.99 81.5875 274.712C81.0129 275.435 80.237 275.97 79.3577 276.252C78.4784 276.534 77.5352 276.549 76.6474 276.295C75.7596 276.042 74.9669 275.531 74.3697 274.827C73.7724 274.124 73.3973 273.259 73.2917 272.343C73.155 271.113 73.5107 269.88 74.2812 268.911C75.0516 267.943 76.1742 267.318 77.404 267.174Z" fill="#05693A"/>
<path d="M46.4403 270.706C47.3578 270.602 48.2855 270.772 49.1063 271.195C49.927 271.618 50.604 272.274 51.0515 273.081C51.499 273.888 51.6971 274.809 51.6207 275.728C51.5443 276.647 51.1968 277.523 50.6222 278.246C50.0476 278.968 49.2716 279.503 48.3923 279.785C47.5131 280.067 46.5699 280.082 45.6822 279.828C44.7944 279.574 44.0018 279.063 43.4046 278.36C42.8074 277.656 42.4324 276.792 42.3268 275.875C42.1902 274.645 42.546 273.412 43.3167 272.443C44.0874 271.475 45.2103 270.85 46.4403 270.706Z" fill="#05693A"/>
<path d="M15.4862 274.24C16.4037 274.136 17.3315 274.306 18.1522 274.729C18.9729 275.151 19.6499 275.807 20.0974 276.614C20.5449 277.421 20.743 278.342 20.6666 279.262C20.5902 280.181 20.2427 281.057 19.6681 281.779C19.0935 282.501 18.3175 283.037 17.4382 283.319C16.559 283.6 15.6158 283.615 14.7281 283.361C13.8403 283.108 13.0477 282.597 12.4505 281.893C11.8533 281.19 11.4782 280.325 11.3727 279.409C11.2361 278.179 11.5919 276.945 12.3626 275.977C13.1333 275.008 14.2562 274.384 15.4862 274.24Z" fill="#05693A"/>
<path d="M356.012 204.243C356.93 204.139 357.858 204.309 358.679 204.732C359.499 205.154 360.177 205.81 360.624 206.617C361.072 207.424 361.27 208.345 361.194 209.264C361.118 210.184 360.77 211.06 360.196 211.782C359.621 212.504 358.845 213.04 357.966 213.322C357.087 213.604 356.144 213.619 355.256 213.365C354.368 213.111 353.575 212.601 352.978 211.897C352.381 211.193 352.006 210.329 351.9 209.412C351.763 208.183 352.119 206.949 352.89 205.981C353.66 205.012 354.783 204.388 356.012 204.243Z" fill="#05693A"/>
<path d="M325.056 207.777C325.973 207.673 326.901 207.843 327.722 208.266C328.542 208.688 329.219 209.345 329.667 210.152C330.114 210.958 330.312 211.88 330.236 212.799C330.16 213.718 329.812 214.594 329.237 215.316C328.663 216.039 327.887 216.574 327.008 216.856C326.128 217.137 325.185 217.152 324.297 216.899C323.41 216.645 322.617 216.134 322.02 215.431C321.423 214.727 321.048 213.862 320.942 212.946C320.805 211.716 321.161 210.483 321.932 209.514C322.703 208.546 323.826 207.921 325.056 207.777Z" fill="#05693A"/>
<path d="M294.098 211.309C295.329 211.173 296.563 211.528 297.533 212.298C298.502 213.068 299.127 214.189 299.272 215.418C299.376 216.334 299.206 217.261 298.783 218.081C298.36 218.901 297.703 219.577 296.895 220.024C296.087 220.471 295.165 220.669 294.245 220.593C293.325 220.517 292.448 220.169 291.725 219.595C291.002 219.021 290.466 218.246 290.184 217.368C289.902 216.489 289.887 215.547 290.141 214.66C290.395 213.773 290.907 212.982 291.611 212.385C292.315 211.788 293.181 211.415 294.098 211.309Z" fill="#05693A"/>
<path d="M263.141 214.844C264.058 214.74 264.986 214.91 265.806 215.333C266.627 215.756 267.304 216.412 267.752 217.219C268.199 218.026 268.397 218.947 268.321 219.866C268.244 220.786 267.897 221.662 267.322 222.384C266.748 223.106 265.972 223.642 265.093 223.923C264.213 224.205 263.27 224.22 262.382 223.966C261.495 223.712 260.702 223.201 260.105 222.498C259.508 221.794 259.133 220.93 259.027 220.013C258.89 218.784 259.246 217.55 260.017 216.581C260.788 215.613 261.911 214.988 263.141 214.844Z" fill="#05693A"/>
<path d="M232.184 218.378C233.102 218.274 234.03 218.444 234.85 218.867C235.671 219.289 236.348 219.946 236.796 220.752C237.243 221.559 237.441 222.481 237.365 223.4C237.288 224.319 236.941 225.195 236.366 225.917C235.792 226.639 235.016 227.175 234.136 227.457C233.257 227.738 232.314 227.753 231.426 227.5C230.539 227.246 229.746 226.735 229.149 226.032C228.552 225.328 228.176 224.463 228.071 223.547C227.934 222.317 228.29 221.084 229.061 220.115C229.832 219.147 230.954 218.522 232.184 218.378Z" fill="#05693A"/>
<path d="M201.226 221.916C202.457 221.78 203.691 222.135 204.661 222.905C205.63 223.675 206.255 224.796 206.4 226.025C206.504 226.941 206.334 227.868 205.911 228.688C205.488 229.508 204.831 230.184 204.023 230.631C203.215 231.078 202.293 231.276 201.373 231.2C200.453 231.124 199.576 230.777 198.853 230.203C198.13 229.628 197.594 228.853 197.312 227.975C197.03 227.096 197.015 226.154 197.269 225.267C197.523 224.38 198.035 223.589 198.739 222.992C199.443 222.395 200.309 222.022 201.226 221.916Z" fill="#05693A"/>
<path d="M170.27 225.445C171.188 225.341 172.116 225.511 172.936 225.934C173.757 226.357 174.434 227.013 174.882 227.82C175.329 228.627 175.527 229.548 175.451 230.467C175.374 231.387 175.027 232.263 174.452 232.985C173.878 233.707 173.102 234.242 172.222 234.524C171.343 234.806 170.4 234.821 169.512 234.567C168.624 234.313 167.832 233.802 167.235 233.099C166.637 232.395 166.262 231.531 166.157 230.614C166.02 229.385 166.376 228.151 167.147 227.182C167.917 226.214 169.04 225.589 170.27 225.445Z" fill="#05693A"/>
<path d="M139.313 228.974C140.231 228.87 141.159 229.04 141.979 229.463C142.8 229.885 143.477 230.542 143.925 231.349C144.372 232.155 144.57 233.077 144.494 233.996C144.417 234.915 144.07 235.791 143.495 236.513C142.921 237.236 142.145 237.771 141.265 238.053C140.386 238.334 139.443 238.349 138.555 238.096C137.667 237.842 136.875 237.331 136.278 236.628C135.68 235.924 135.305 235.059 135.2 234.143C135.063 232.913 135.419 231.68 136.19 230.711C136.96 229.743 138.083 229.118 139.313 228.974Z" fill="#05693A"/>
<path d="M108.358 232.511C109.588 232.375 110.823 232.73 111.793 233.5C112.762 234.269 113.387 235.391 113.532 236.619C113.636 237.536 113.466 238.463 113.042 239.283C112.619 240.103 111.963 240.779 111.155 241.226C110.347 241.673 109.425 241.871 108.505 241.795C107.585 241.718 106.708 241.371 105.985 240.797C105.262 240.223 104.726 239.448 104.444 238.57C104.162 237.691 104.147 236.749 104.401 235.862C104.655 234.975 105.166 234.183 105.871 233.587C106.575 232.99 107.44 232.615 108.358 232.51" fill="#05693A"/>
<path d="M77.404 236.044C78.3215 235.94 79.2493 236.109 80.0702 236.532C80.891 236.954 81.5682 237.61 82.0159 238.417C82.4636 239.224 82.6619 240.145 82.5856 241.065C82.5094 241.984 82.162 242.86 81.5875 243.583C81.0129 244.305 80.237 244.841 79.3577 245.122C78.4784 245.404 77.5352 245.419 76.6474 245.165C75.7596 244.912 74.9669 244.401 74.3697 243.697C73.7724 242.994 73.3973 242.129 73.2917 241.213C73.155 239.983 73.5107 238.75 74.2812 237.781C75.0516 236.813 76.1742 236.188 77.404 236.044Z" fill="#05693A"/>
<path d="M46.4403 239.577C47.3578 239.473 48.2855 239.644 49.1063 240.066C49.927 240.489 50.604 241.145 51.0515 241.952C51.499 242.759 51.6971 243.68 51.6207 244.599C51.5443 245.519 51.1968 246.395 50.6222 247.117C50.0476 247.839 49.2716 248.375 48.3923 248.656C47.5131 248.938 46.5699 248.953 45.6822 248.699C44.7944 248.445 44.0018 247.935 43.4046 247.231C42.8074 246.527 42.4324 245.663 42.3268 244.746C42.1902 243.517 42.546 242.283 43.3167 241.315C44.0874 240.346 45.2103 239.722 46.4403 239.577Z" fill="#05693A"/>
<path d="M15.4862 243.112C16.4037 243.008 17.3315 243.178 18.1522 243.601C18.9729 244.024 19.6499 244.68 20.0974 245.487C20.5449 246.294 20.743 247.215 20.6666 248.134C20.5902 249.054 20.2427 249.93 19.6681 250.652C19.0935 251.374 18.3175 251.909 17.4382 252.191C16.559 252.473 15.6158 252.488 14.7281 252.234C13.8403 251.98 13.0477 251.469 12.4505 250.766C11.8533 250.062 11.4782 249.198 11.3727 248.281C11.2361 247.052 11.5919 245.818 12.3626 244.849C13.1333 243.881 14.2562 243.256 15.4862 243.112Z" fill="#05693A"/>
<path d="M356.012 173.116C356.929 173.012 357.857 173.182 358.678 173.605C359.498 174.027 360.175 174.683 360.623 175.49C361.07 176.297 361.268 177.219 361.192 178.138C361.116 179.057 360.768 179.933 360.193 180.655C359.619 181.377 358.843 181.913 357.964 182.195C357.084 182.476 356.141 182.491 355.253 182.238C354.366 181.984 353.573 181.473 352.976 180.769C352.379 180.066 352.004 179.201 351.898 178.285C351.761 177.055 352.117 175.821 352.888 174.853C353.659 173.884 354.782 173.26 356.012 173.116Z" fill="#05693A"/>
<path d="M325.056 176.648C325.973 176.544 326.901 176.714 327.722 177.137C328.542 177.56 329.219 178.216 329.667 179.023C330.114 179.83 330.312 180.751 330.236 181.67C330.16 182.59 329.812 183.466 329.237 184.188C328.663 184.91 327.887 185.445 327.008 185.727C326.128 186.009 325.185 186.024 324.297 185.77C323.41 185.516 322.617 185.005 322.02 184.302C321.423 183.598 321.048 182.734 320.942 181.817C320.805 180.588 321.161 179.354 321.932 178.385C322.703 177.417 323.826 176.792 325.056 176.648Z" fill="#05693A"/>
<path d="M294.098 180.182C295.015 180.078 295.943 180.248 296.764 180.671C297.584 181.093 298.261 181.75 298.709 182.556C299.156 183.363 299.354 184.285 299.278 185.204C299.202 186.123 298.854 186.999 298.279 187.721C297.705 188.443 296.929 188.979 296.05 189.261C295.17 189.542 294.227 189.557 293.339 189.304C292.452 189.05 291.659 188.539 291.062 187.836C290.465 187.132 290.09 186.267 289.984 185.351C289.847 184.121 290.203 182.888 290.974 181.919C291.745 180.951 292.868 180.326 294.098 180.182Z" fill="#05693A"/>
<path d="M263.141 183.716C264.058 183.612 264.986 183.782 265.806 184.204C266.627 184.627 267.304 185.283 267.752 186.09C268.199 186.897 268.397 187.818 268.321 188.738C268.244 189.657 267.897 190.533 267.322 191.255C266.748 191.977 265.972 192.513 265.093 192.794C264.213 193.076 263.27 193.091 262.382 192.837C261.495 192.584 260.702 192.073 260.105 191.369C259.508 190.666 259.133 189.801 259.027 188.885C258.89 187.655 259.246 186.421 260.017 185.453C260.788 184.484 261.911 183.86 263.141 183.716Z" fill="#05693A"/>
<path d="M232.184 187.248C233.102 187.144 234.03 187.314 234.85 187.737C235.671 188.159 236.348 188.816 236.796 189.623C237.243 190.429 237.441 191.351 237.365 192.27C237.288 193.189 236.941 194.065 236.366 194.787C235.792 195.509 235.016 196.045 234.136 196.327C233.257 196.608 232.314 196.623 231.426 196.37C230.539 196.116 229.746 195.605 229.149 194.902C228.552 194.198 228.176 193.333 228.071 192.417C227.934 191.187 228.29 189.954 229.061 188.985C229.832 188.017 230.954 187.392 232.184 187.248Z" fill="#05693A"/>
<path d="M201.225 190.783C202.143 190.679 203.071 190.849 203.891 191.272C204.712 191.694 205.389 192.35 205.837 193.157C206.284 193.964 206.482 194.886 206.406 195.805C206.329 196.724 205.982 197.6 205.407 198.322C204.833 199.044 204.057 199.58 203.177 199.862C202.298 200.143 201.355 200.158 200.467 199.905C199.58 199.651 198.787 199.14 198.19 198.436C197.593 197.733 197.217 196.868 197.112 195.952C196.975 194.722 197.331 193.488 198.102 192.52C198.873 191.552 199.995 190.927 201.225 190.783Z" fill="#05693A"/>
<path d="M170.27 194.316C171.188 194.213 172.116 194.383 172.936 194.805C173.757 195.228 174.434 195.884 174.882 196.691C175.329 197.498 175.527 198.419 175.451 199.339C175.374 200.258 175.027 201.134 174.452 201.856C173.878 202.578 173.102 203.114 172.222 203.395C171.343 203.677 170.4 203.692 169.512 203.438C168.624 203.185 167.832 202.674 167.235 201.97C166.637 201.267 166.262 200.402 166.157 199.486C166.02 198.256 166.376 197.022 167.147 196.054C167.917 195.085 169.04 194.461 170.27 194.316Z" fill="#05693A"/>
<path d="M139.314 197.85C140.544 197.714 141.779 198.069 142.749 198.839C143.718 199.608 144.343 200.73 144.488 201.958C144.592 202.875 144.422 203.802 143.999 204.622C143.575 205.442 142.919 206.118 142.111 206.565C141.303 207.012 140.381 207.21 139.461 207.134C138.541 207.057 137.664 206.71 136.941 206.136C136.218 205.562 135.682 204.787 135.4 203.908C135.118 203.03 135.103 202.088 135.357 201.201C135.611 200.314 136.122 199.522 136.827 198.926C137.531 198.329 138.396 197.954 139.314 197.849" fill="#05693A"/>
<path d="M108.357 201.382C109.275 201.278 110.202 201.448 111.023 201.871C111.844 202.293 112.521 202.949 112.969 203.756C113.417 204.563 113.615 205.484 113.539 206.404C113.462 207.323 113.115 208.199 112.541 208.921C111.966 209.644 111.19 210.179 110.311 210.461C109.431 210.743 108.488 210.758 107.601 210.504C106.713 210.251 105.92 209.74 105.323 209.036C104.725 208.333 104.35 207.468 104.245 206.552C104.108 205.322 104.464 204.089 105.234 203.12C106.005 202.152 107.127 201.527 108.357 201.382Z" fill="#05693A"/>
<path d="M77.404 204.916C78.3215 204.812 79.2493 204.982 80.0702 205.404C80.891 205.827 81.5682 206.483 82.0159 207.29C82.4636 208.097 82.6619 209.018 82.5856 209.937C82.5094 210.857 82.162 211.733 81.5875 212.455C81.0129 213.177 80.237 213.713 79.3577 213.995C78.4784 214.277 77.5352 214.292 76.6474 214.038C75.7596 213.784 74.9669 213.273 74.3697 212.57C73.7724 211.866 73.3973 211.002 73.2917 210.085C73.155 208.856 73.5107 207.622 74.2812 206.654C75.0516 205.685 76.1742 205.061 77.404 204.916Z" fill="#05693A"/>
<path d="M46.4406 208.45C47.6713 208.313 48.9061 208.669 49.8755 209.438C50.8449 210.208 51.4701 211.33 51.6148 212.558C51.7188 213.475 51.5485 214.401 51.1255 215.221C50.7024 216.041 50.0455 216.718 49.2379 217.165C48.4302 217.612 47.508 217.81 46.5878 217.733C45.6676 217.657 44.7907 217.31 44.068 216.736C43.3452 216.162 42.8089 215.387 42.527 214.508C42.2451 213.63 42.2302 212.688 42.4841 211.801C42.738 210.914 43.2494 210.122 43.9537 209.525C44.6579 208.929 45.5233 208.555 46.4406 208.45Z" fill="#05693A"/>
<path d="M15.4862 211.99C16.4037 211.886 17.3315 212.056 18.1522 212.478C18.9729 212.901 19.6499 213.557 20.0974 214.364C20.5449 215.171 20.743 216.092 20.6666 217.012C20.5902 217.931 20.2427 218.807 19.6681 219.529C19.0935 220.251 18.3175 220.787 17.4382 221.069C16.559 221.35 15.6158 221.365 14.7281 221.111C13.8403 220.858 13.0477 220.347 12.4505 219.643C11.8533 218.94 11.4782 218.075 11.3727 217.159C11.2357 215.929 11.5915 214.695 12.3622 213.727C13.133 212.758 14.2561 212.134 15.4862 211.99Z" fill="#05693A"/>
<path d="M356.012 141.987C357.243 141.851 358.477 142.206 359.447 142.976C360.416 143.745 361.041 144.867 361.186 146.095C361.29 147.012 361.12 147.939 360.697 148.759C360.274 149.579 359.617 150.255 358.809 150.702C358.002 151.149 357.079 151.347 356.159 151.271C355.239 151.194 354.362 150.847 353.639 150.273C352.916 149.699 352.38 148.924 352.098 148.045C351.816 147.167 351.801 146.225 352.055 145.338C352.309 144.451 352.821 143.659 353.525 143.063C354.229 142.466 355.095 142.092 356.012 141.987Z" fill="#05693A"/>
<path d="M325.056 145.521C325.973 145.417 326.901 145.587 327.722 146.01C328.542 146.432 329.219 147.088 329.667 147.895C330.114 148.702 330.312 149.623 330.236 150.543C330.16 151.462 329.812 152.338 329.237 153.06C328.663 153.782 327.887 154.318 327.008 154.6C326.128 154.881 325.185 154.896 324.297 154.642C323.41 154.389 322.617 153.878 322.02 153.174C321.423 152.471 321.048 151.606 320.942 150.69C320.805 149.46 321.161 148.226 321.932 147.258C322.703 146.289 323.826 145.665 325.056 145.521Z" fill="#05693A"/>
<path d="M294.098 149.054C295.015 148.95 295.943 149.121 296.764 149.543C297.584 149.966 298.261 150.622 298.709 151.429C299.156 152.236 299.354 153.157 299.278 154.076C299.202 154.996 298.854 155.872 298.279 156.594C297.705 157.316 296.929 157.852 296.05 158.133C295.17 158.415 294.227 158.43 293.339 158.176C292.452 157.922 291.659 157.412 291.062 156.708C290.465 156.004 290.09 155.14 289.984 154.223C289.847 152.994 290.203 151.76 290.974 150.792C291.745 149.823 292.868 149.199 294.098 149.054Z" fill="#05693A"/>
<path d="M263.141 152.588C264.372 152.451 265.606 152.807 266.576 153.576C267.545 154.346 268.17 155.468 268.315 156.696C268.419 157.613 268.249 158.54 267.826 159.36C267.403 160.18 266.746 160.856 265.938 161.303C265.13 161.75 264.208 161.948 263.288 161.872C262.368 161.795 261.491 161.448 260.768 160.874C260.045 160.3 259.509 159.525 259.227 158.646C258.945 157.768 258.93 156.826 259.184 155.939C259.438 155.052 259.95 154.26 260.654 153.663C261.358 153.067 262.224 152.692 263.141 152.587" fill="#05693A"/>
<path d="M232.184 156.12C233.102 156.016 234.03 156.187 234.85 156.609C235.671 157.032 236.348 157.688 236.796 158.495C237.243 159.302 237.441 160.223 237.365 161.142C237.288 162.062 236.941 162.938 236.366 163.66C235.792 164.382 235.016 164.918 234.136 165.199C233.257 165.481 232.314 165.496 231.426 165.242C230.539 164.989 229.746 164.478 229.149 163.774C228.552 163.071 228.176 162.206 228.071 161.29C227.934 160.06 228.29 158.826 229.061 157.858C229.832 156.889 230.954 156.265 232.184 156.12Z" fill="#05693A"/>
<path d="M201.225 159.654C202.143 159.55 203.071 159.72 203.891 160.143C204.712 160.566 205.389 161.222 205.837 162.029C206.284 162.836 206.482 163.757 206.406 164.676C206.329 165.595 205.982 166.471 205.407 167.194C204.833 167.916 204.057 168.451 203.177 168.733C202.298 169.015 201.355 169.03 200.467 168.776C199.58 168.522 198.787 168.011 198.19 167.308C197.593 166.604 197.217 165.74 197.112 164.823C196.975 163.593 197.331 162.36 198.102 161.391C198.873 160.423 199.995 159.798 201.225 159.654Z" fill="#05693A"/>
<path d="M170.27 163.188C171.188 163.084 172.116 163.254 172.936 163.677C173.757 164.099 174.434 164.755 174.882 165.562C175.329 166.369 175.527 167.291 175.451 168.21C175.374 169.129 175.027 170.005 174.452 170.727C173.878 171.449 173.102 171.985 172.222 172.267C171.343 172.548 170.4 172.563 169.512 172.31C168.624 172.056 167.832 171.545 167.235 170.841C166.637 170.138 166.262 169.273 166.157 168.357C166.02 167.127 166.376 165.893 167.147 164.925C167.917 163.956 169.04 163.332 170.27 163.188Z" fill="#05693A"/>
<path d="M139.313 166.721C140.231 166.617 141.159 166.788 141.979 167.21C142.8 167.633 143.477 168.289 143.925 169.096C144.372 169.903 144.57 170.824 144.494 171.743C144.417 172.663 144.07 173.539 143.495 174.261C142.921 174.983 142.145 175.519 141.265 175.8C140.386 176.082 139.443 176.097 138.555 175.843C137.667 175.589 136.875 175.079 136.278 174.375C135.68 173.671 135.305 172.807 135.2 171.89C135.063 170.661 135.419 169.427 136.19 168.459C136.96 167.49 138.083 166.866 139.313 166.721Z" fill="#05693A"/>
<path d="M108.357 170.255C109.275 170.151 110.202 170.321 111.023 170.743C111.844 171.166 112.521 171.822 112.969 172.629C113.417 173.435 113.615 174.357 113.539 175.276C113.462 176.196 113.115 177.072 112.541 177.794C111.966 178.516 111.19 179.052 110.311 179.334C109.431 179.615 108.488 179.63 107.601 179.377C106.713 179.123 105.92 178.612 105.323 177.909C104.725 177.205 104.35 176.341 104.245 175.424C104.108 174.195 104.464 172.961 105.234 171.993C106.005 171.024 107.127 170.4 108.357 170.255Z" fill="#05693A"/>
<path d="M77.404 173.789C78.3215 173.684 79.2493 173.854 80.0702 174.277C80.891 174.699 81.5682 175.355 82.0159 176.162C82.4636 176.969 82.6619 177.89 82.5856 178.81C82.5094 179.729 82.162 180.605 81.5875 181.327C81.0129 182.05 80.237 182.586 79.3577 182.867C78.4784 183.149 77.5352 183.164 76.6474 182.91C75.7596 182.657 74.9669 182.146 74.3697 181.442C73.7724 180.739 73.3973 179.874 73.2917 178.958C73.155 177.728 73.5107 176.495 74.2812 175.526C75.0516 174.558 76.1742 173.933 77.404 173.789Z" fill="#05693A"/>
<path d="M46.4403 177.322C47.3578 177.218 48.2855 177.388 49.1063 177.811C49.927 178.234 50.604 178.89 51.0515 179.697C51.499 180.504 51.6971 181.425 51.6207 182.344C51.5443 183.264 51.1968 184.14 50.6222 184.862C50.0476 185.584 49.2716 186.12 48.3923 186.401C47.5131 186.683 46.5699 186.698 45.6822 186.444C44.7944 186.19 44.0018 185.679 43.4046 184.976C42.8074 184.272 42.4324 183.408 42.3268 182.491C42.1902 181.262 42.546 180.028 43.3167 179.059C44.0874 178.091 45.2103 177.466 46.4403 177.322Z" fill="#05693A"/>
<path d="M15.4846 180.855C16.7153 180.718 17.9501 181.074 18.9195 181.843C19.8888 182.613 20.5141 183.734 20.6587 184.963C20.7628 185.88 20.5925 186.806 20.1694 187.626C19.7463 188.446 19.0895 189.123 18.2818 189.57C17.4742 190.017 16.552 190.215 15.6318 190.138C14.7116 190.062 13.8347 189.715 13.1119 189.141C12.3891 188.567 11.8529 187.792 11.571 186.913C11.2891 186.035 11.2741 185.092 11.528 184.206C11.782 183.319 12.2934 182.527 12.9976 181.93C13.7018 181.334 14.5673 180.959 15.4846 180.854" fill="#05693A"/>
<path d="M356.012 110.858C356.93 110.754 357.858 110.924 358.679 111.346C359.499 111.769 360.177 112.425 360.624 113.232C361.072 114.039 361.27 114.96 361.194 115.879C361.118 116.799 360.77 117.675 360.196 118.397C359.621 119.119 358.845 119.655 357.966 119.937C357.087 120.219 356.144 120.234 355.256 119.98C354.368 119.726 353.575 119.216 352.978 118.512C352.381 117.808 352.006 116.944 351.9 116.027C351.763 114.798 352.119 113.564 352.89 112.596C353.66 111.627 354.783 111.003 356.012 110.858Z" fill="#05693A"/>
<path d="M325.055 114.392C326.286 114.255 327.52 114.611 328.49 115.38C329.459 116.15 330.084 117.272 330.229 118.5C330.333 119.417 330.163 120.344 329.74 121.164C329.317 121.984 328.66 122.66 327.852 123.107C327.044 123.554 326.122 123.752 325.202 123.676C324.282 123.599 323.405 123.252 322.682 122.678C321.959 122.104 321.423 121.329 321.141 120.45C320.859 119.572 320.844 118.63 321.098 117.743C321.352 116.856 321.864 116.064 322.568 115.467C323.272 114.871 324.138 114.497 325.055 114.392Z" fill="#05693A"/>
<path d="M294.098 117.927C295.329 117.79 296.563 118.146 297.533 118.915C298.502 119.685 299.127 120.806 299.272 122.035C299.376 122.952 299.206 123.878 298.783 124.698C298.36 125.518 297.703 126.195 296.895 126.642C296.087 127.089 295.165 127.287 294.245 127.21C293.325 127.134 292.448 126.787 291.725 126.213C291.002 125.639 290.466 124.864 290.184 123.985C289.902 123.107 289.887 122.164 290.141 121.278C290.395 120.391 290.907 119.599 291.611 119.002C292.315 118.406 293.181 118.031 294.098 117.926" fill="#05693A"/>
<path d="M263.141 121.459C264.058 121.355 264.986 121.525 265.806 121.948C266.627 122.371 267.304 123.027 267.752 123.834C268.199 124.641 268.397 125.562 268.321 126.481C268.244 127.401 267.897 128.277 267.322 128.999C266.748 129.721 265.972 130.257 265.093 130.538C264.213 130.82 263.27 130.835 262.382 130.581C261.495 130.327 260.702 129.816 260.105 129.113C259.508 128.409 259.133 127.545 259.027 126.628C258.89 125.399 259.246 124.165 260.017 123.196C260.788 122.228 261.911 121.603 263.141 121.459Z" fill="#05693A"/>
<path d="M232.184 124.993C233.102 124.889 234.03 125.059 234.85 125.482C235.671 125.904 236.348 126.561 236.796 127.368C237.243 128.174 237.441 129.096 237.365 130.015C237.288 130.934 236.941 131.81 236.366 132.532C235.792 133.254 235.016 133.79 234.136 134.072C233.257 134.353 232.314 134.368 231.426 134.115C230.539 133.861 229.746 133.35 229.149 132.647C228.552 131.943 228.176 131.078 228.071 130.162C227.934 128.932 228.29 127.699 229.061 126.73C229.832 125.762 230.954 125.137 232.184 124.993Z" fill="#05693A"/>
<path d="M201.226 128.526C202.457 128.39 203.691 128.745 204.661 129.515C205.63 130.285 206.255 131.406 206.4 132.635C206.504 133.551 206.334 134.478 205.911 135.298C205.488 136.118 204.831 136.794 204.023 137.241C203.215 137.689 202.293 137.886 201.373 137.81C200.453 137.734 199.576 137.387 198.853 136.813C198.13 136.238 197.594 135.463 197.312 134.585C197.03 133.706 197.015 132.764 197.269 131.877C197.523 130.99 198.035 130.199 198.739 129.602C199.443 129.005 200.309 128.632 201.226 128.526Z" fill="#05693A"/>
<path d="M170.27 132.059C171.188 131.955 172.116 132.125 172.936 132.548C173.757 132.97 174.434 133.627 174.882 134.434C175.329 135.24 175.527 136.162 175.451 137.081C175.374 138 175.027 138.876 174.452 139.598C173.878 140.321 173.102 140.856 172.222 141.138C171.343 141.419 170.4 141.434 169.512 141.181C168.624 140.927 167.832 140.416 167.235 139.713C166.637 139.009 166.262 138.144 166.157 137.228C166.02 135.998 166.376 134.765 167.147 133.796C167.917 132.828 169.04 132.203 170.27 132.059Z" fill="#05693A"/>
<path d="M139.313 135.593C140.231 135.489 141.159 135.659 141.979 136.081C142.8 136.504 143.477 137.16 143.925 137.967C144.372 138.774 144.57 139.695 144.494 140.615C144.417 141.534 144.07 142.41 143.495 143.132C142.921 143.854 142.145 144.39 141.265 144.672C140.386 144.953 139.443 144.968 138.555 144.714C137.667 144.461 136.875 143.95 136.278 143.246C135.68 142.543 135.305 141.678 135.2 140.762C135.063 139.532 135.419 138.298 136.19 137.33C136.96 136.361 138.083 135.737 139.313 135.593Z" fill="#05693A"/>
<path d="M108.357 139.126C109.275 139.022 110.202 139.192 111.023 139.614C111.844 140.037 112.521 140.693 112.969 141.5C113.417 142.307 113.615 143.228 113.539 144.147C113.462 145.067 113.115 145.943 112.541 146.665C111.966 147.387 111.19 147.923 110.311 148.205C109.431 148.487 108.488 148.502 107.601 148.248C106.713 147.994 105.92 147.484 105.323 146.78C104.725 146.076 104.35 145.212 104.245 144.295C104.108 143.066 104.464 141.832 105.234 140.864C106.005 139.895 107.127 139.271 108.357 139.126Z" fill="#05693A"/>
<path d="M77.404 142.66C78.3215 142.556 79.2493 142.726 80.0702 143.148C80.891 143.571 81.5682 144.227 82.0159 145.034C82.4636 145.84 82.6619 146.762 82.5856 147.681C82.5094 148.6 82.162 149.477 81.5875 150.199C81.0129 150.921 80.237 151.457 79.3577 151.738C78.4784 152.02 77.5352 152.035 76.6474 151.782C75.7596 151.528 74.9669 151.017 74.3697 150.314C73.7724 149.61 73.3973 148.745 73.2917 147.829C73.155 146.6 73.5107 145.366 74.2812 144.397C75.0516 143.429 76.1742 142.804 77.404 142.66Z" fill="#05693A"/>
<path d="M46.4406 146.194C47.6713 146.057 48.9061 146.412 49.8755 147.182C50.8449 147.952 51.4701 149.073 51.6148 150.302C51.7188 151.218 51.5485 152.145 51.1255 152.965C50.7024 153.785 50.0455 154.461 49.2379 154.908C48.4302 155.356 47.508 155.553 46.5878 155.477C45.6676 155.401 44.7907 155.054 44.068 154.48C43.3452 153.906 42.8089 153.13 42.527 152.252C42.2451 151.373 42.2302 150.431 42.4841 149.544C42.738 148.657 43.2494 147.866 43.9537 147.269C44.6579 146.672 45.5233 146.298 46.4406 146.192" fill="#05693A"/>
<path d="M15.4862 149.727C16.4037 149.623 17.3315 149.793 18.1522 150.216C18.9729 150.639 19.6499 151.295 20.0974 152.102C20.5449 152.909 20.743 153.83 20.6666 154.749C20.5902 155.669 20.2427 156.545 19.6681 157.267C19.0935 157.989 18.3175 158.525 17.4382 158.806C16.559 159.088 15.6158 159.103 14.7281 158.849C13.8403 158.595 13.0477 158.084 12.4505 157.381C11.8533 156.677 11.4782 155.813 11.3727 154.896C11.2361 153.667 11.5919 152.433 12.3626 151.464C13.1333 150.496 14.2562 149.871 15.4862 149.727Z" fill="#05693A"/>
</g>
<mask id="mask1_1836_60177" style="mask-type:luminance" maskUnits="userSpaceOnUse" x="-51" y="-155" width="567" height="292">
<path d="M-50.5729 136.47L516 136.47L516 -154.368L-50.573 -154.368L-50.5729 136.47Z" fill="white"/>
</mask>
<g mask="url(#mask1_1836_60177)">
<path d="M356.012 81.2257C356.929 81.1217 357.857 81.2919 358.678 81.7145C359.498 82.1372 360.175 82.7934 360.623 83.6003C361.07 84.4071 361.268 85.3284 361.192 86.2477C361.116 87.167 360.768 88.0431 360.193 88.7652C359.619 89.4872 358.843 90.0229 357.964 90.3046C357.084 90.5862 356.141 90.6011 355.253 90.3475C354.366 90.0938 353.573 89.5829 352.976 88.8793C352.379 88.1758 352.004 87.3112 351.898 86.3948C351.761 85.1651 352.117 83.9313 352.888 82.9629C353.659 81.9944 354.782 81.3699 356.012 81.2257Z" fill="#05693A"/>
<path d="M325.056 84.7593C325.973 84.6554 326.901 84.8255 327.722 85.2482C328.542 85.6708 329.219 86.3271 329.667 87.1339C330.114 87.9408 330.312 88.8621 330.236 89.7814C330.16 90.7007 329.812 91.5767 329.237 92.2988C328.663 93.0209 327.887 93.5566 327.008 93.8382C326.128 94.1199 325.185 94.1348 324.297 93.8811C323.41 93.6274 322.617 93.1165 322.02 92.413C321.423 91.7095 321.048 90.8448 320.942 89.9284C320.805 88.6987 321.161 87.4648 321.932 86.4962C322.702 85.5277 323.825 84.9032 325.056 84.7593Z" fill="#05693A"/>
<path d="M294.098 88.293C295.015 88.1891 295.943 88.3592 296.764 88.7818C297.584 89.2045 298.261 89.8607 298.709 90.6676C299.156 91.4745 299.354 92.3958 299.278 93.3151C299.202 94.2344 298.854 95.1104 298.279 95.8325C297.705 96.5546 296.929 97.0903 296.05 97.3719C295.17 97.6535 294.227 97.6685 293.339 97.4148C292.452 97.1611 291.659 96.6502 291.062 95.9467C290.465 95.2431 290.09 94.3785 289.984 93.4621C289.847 92.2324 290.203 90.9987 290.974 90.0302C291.745 89.0617 292.868 88.4372 294.098 88.293Z" fill="#05693A"/>
<path d="M139.314 105.965C140.544 105.828 141.779 106.184 142.749 106.953C143.718 107.723 144.343 108.845 144.488 110.073C144.592 110.99 144.422 111.917 143.999 112.737C143.575 113.556 142.919 114.233 142.111 114.68C141.303 115.127 140.381 115.325 139.461 115.248C138.541 115.172 137.664 114.825 136.941 114.251C136.218 113.677 135.682 112.902 135.4 112.023C135.118 111.145 135.103 110.203 135.357 109.316C135.611 108.429 136.122 107.637 136.827 107.04C137.531 106.444 138.396 106.069 139.314 105.964" fill="#05693A"/>
<path d="M108.357 109.494C109.275 109.389 110.202 109.559 111.023 109.982C111.844 110.404 112.521 111.06 112.969 111.867C113.417 112.674 113.615 113.595 113.539 114.515C113.462 115.434 113.115 116.31 112.541 117.032C111.966 117.755 111.19 118.291 110.311 118.572C109.431 118.854 108.488 118.869 107.601 118.615C106.713 118.362 105.92 117.851 105.323 117.147C104.725 116.444 104.35 115.579 104.245 114.663C104.108 113.433 104.464 112.2 105.234 111.231C106.005 110.263 107.127 109.638 108.357 109.494Z" fill="#05693A"/>
<path d="M77.4044 113.024C78.6351 112.887 79.8699 113.242 80.8392 114.012C81.8086 114.782 82.4339 115.903 82.5785 117.132C82.6828 118.048 82.5127 118.975 82.0899 119.795C81.667 120.616 81.0102 121.292 80.2026 121.739C79.395 122.187 78.4728 122.385 77.5525 122.308C76.6323 122.232 75.7553 121.885 75.0324 121.311C74.3095 120.737 73.7731 119.962 73.4911 119.084C73.209 118.205 73.194 117.263 73.4479 116.376C73.7017 115.489 74.2131 114.697 74.9173 114.1C75.6215 113.504 76.487 113.129 77.4044 113.024Z" fill="#05693A"/>
<path d="M46.4406 116.561C47.6713 116.424 48.9061 116.78 49.8755 117.549C50.8449 118.319 51.4701 119.441 51.6148 120.669C51.7188 121.586 51.5485 122.513 51.1255 123.333C50.7024 124.152 50.0455 124.829 49.2379 125.276C48.4302 125.723 47.508 125.921 46.5878 125.845C45.6676 125.768 44.7907 125.421 44.068 124.847C43.3452 124.273 42.8089 123.498 42.527 122.619C42.2451 121.741 42.2302 120.799 42.4841 119.912C42.738 119.025 43.2494 118.233 43.9537 117.636C44.6579 117.04 45.5233 116.666 46.4406 116.561Z" fill="#05693A"/>
<path d="M15.4862 120.095C16.4037 119.991 17.3315 120.161 18.1522 120.583C18.9729 121.006 19.6499 121.662 20.0974 122.469C20.5449 123.276 20.743 124.197 20.6666 125.117C20.5902 126.036 20.2427 126.912 19.6681 127.634C19.0935 128.356 18.3175 128.892 17.4382 129.173C16.559 129.455 15.6158 129.47 14.7281 129.216C13.8403 128.963 13.0477 128.452 12.4505 127.748C11.8533 127.045 11.4782 126.18 11.3727 125.264C11.2361 124.034 11.5919 122.8 12.3626 121.832C13.1333 120.863 14.2562 120.239 15.4862 120.095Z" fill="#05693A"/>
<path d="M356.012 50.0981C357.243 49.9612 358.477 50.3163 359.447 51.0858C360.416 51.8553 361.041 52.9767 361.186 54.2052C361.29 55.1217 361.12 56.0486 360.697 56.8685C360.274 57.6885 359.617 58.3647 358.809 58.8118C358.002 59.2589 357.079 59.4568 356.159 59.3805C355.239 59.3041 354.362 58.957 353.639 58.383C352.916 57.8089 352.38 57.0337 352.098 56.1552C351.816 55.2768 351.801 54.3346 352.055 53.4477C352.309 52.5608 352.821 51.769 353.525 51.1724C354.229 50.5758 355.095 50.2011 356.012 50.0957" fill="#05693A"/>
<path d="M325.056 53.6306C325.973 53.5267 326.901 53.6968 327.722 54.1194C328.542 54.5421 329.219 55.1983 329.667 56.0052C330.114 56.8121 330.312 57.7334 330.236 58.6527C330.16 59.572 329.812 60.448 329.237 61.1701C328.663 61.8922 327.887 62.4279 327.008 62.7095C326.128 62.9912 325.185 63.0061 324.297 62.7524C323.41 62.4987 322.617 61.9878 322.02 61.2843C321.423 60.5807 321.048 59.7161 320.942 58.7997C320.805 57.57 321.161 56.3363 321.932 55.3678C322.703 54.3993 323.826 53.7748 325.056 53.6306Z" fill="#05693A"/>
<path d="M294.098 57.1642C295.015 57.0603 295.943 57.2304 296.764 57.6531C297.584 58.0757 298.261 58.7319 298.709 59.5388C299.156 60.3457 299.354 61.267 299.278 62.1863C299.202 63.1056 298.854 63.9816 298.279 64.7037C297.705 65.4258 296.929 65.9615 296.05 66.2431C295.17 66.5248 294.227 66.5397 293.339 66.286C292.452 66.0323 291.659 65.5214 291.062 64.8179C290.465 64.1143 290.09 63.2497 289.984 62.3333C289.847 61.1036 290.203 59.8699 290.974 58.9014C291.745 57.9329 292.868 57.3084 294.098 57.1642Z" fill="#05693A"/>
<path d="M263.141 60.6979C264.372 60.5613 265.606 60.9167 266.576 61.6864C267.545 62.4561 268.17 63.5776 268.315 64.8062C268.419 65.7228 268.249 66.6496 267.826 67.4695C267.403 68.2895 266.746 68.9657 265.938 69.4128C265.13 69.8599 264.208 70.0578 263.288 69.9815C262.368 69.9052 261.491 69.558 260.768 68.984C260.045 68.4099 259.509 67.6347 259.227 66.7563C258.945 65.8778 258.93 64.9356 259.184 64.0487C259.438 63.1618 259.95 62.37 260.654 61.7734C261.358 61.1768 262.224 60.8033 263.141 60.6979Z" fill="#05693A"/>
<path d="M232.184 64.2315C233.102 64.1276 234.03 64.2977 234.85 64.7204C235.671 65.143 236.348 65.7993 236.796 66.6061C237.243 67.413 237.441 68.3343 237.365 69.2536C237.288 70.1729 236.941 71.0489 236.366 71.771C235.792 72.4931 235.016 73.0288 234.136 73.3104C233.257 73.5921 232.314 73.607 231.426 73.3533C230.539 73.0996 229.746 72.5887 229.149 71.8852C228.552 71.1817 228.176 70.317 228.071 69.4006C227.934 68.1709 228.29 66.9372 229.061 65.9687C229.832 65.0003 230.954 64.3757 232.184 64.2315Z" fill="#05693A"/>
<path d="M201.226 67.7652C202.457 67.6286 203.691 67.984 204.661 68.7537C205.63 69.5234 206.255 70.6449 206.4 71.8735C206.504 72.79 206.334 73.7169 205.911 74.5368C205.488 75.3568 204.831 76.033 204.023 76.4801C203.215 76.9272 202.293 77.1251 201.373 77.0488C200.453 76.9725 199.576 76.6253 198.853 76.0513C198.13 75.4772 197.594 74.702 197.312 73.8235C197.03 72.9451 197.015 72.0029 197.269 71.116C197.523 70.2291 198.035 69.4373 198.739 68.8407C199.443 68.2441 200.309 67.8706 201.226 67.7652Z" fill="#05693A"/>
<path d="M170.27 71.2988C171.188 71.1949 172.116 71.365 172.936 71.7877C173.757 72.2103 174.434 72.8665 174.882 73.6734C175.329 74.4803 175.527 75.4016 175.451 76.3209C175.374 77.2402 175.027 78.1162 174.452 78.8383C173.878 79.5604 173.102 80.0961 172.222 80.3777C171.343 80.6594 170.4 80.6743 169.512 80.4206C168.624 80.1669 167.832 79.656 167.235 78.9525C166.637 78.249 166.262 77.3843 166.157 76.4679C166.02 75.2382 166.376 74.0045 167.147 73.036C167.917 72.0676 169.04 71.443 170.27 71.2988Z" fill="#05693A"/>
<path d="M170.27 101.299C171.188 101.195 172.116 101.365 172.936 101.788C173.757 102.21 174.434 102.867 174.882 103.673C175.329 104.48 175.527 105.402 175.451 106.321C175.374 107.24 175.027 108.116 174.452 108.838C173.878 109.56 173.102 110.096 172.222 110.378C171.343 110.659 170.4 110.674 169.512 110.421C168.624 110.167 167.832 109.656 167.235 108.952C166.637 108.249 166.262 107.384 166.157 106.468C166.02 105.238 166.376 104.004 167.147 103.036C167.917 102.068 169.04 101.443 170.27 101.299Z" fill="#05693A"/>
<path d="M200.27 97.2988C201.188 97.1949 202.116 97.365 202.936 97.7877C203.757 98.2103 204.434 98.8665 204.882 99.6734C205.329 100.48 205.527 101.402 205.451 102.321C205.374 103.24 205.027 104.116 204.452 104.838C203.878 105.56 203.102 106.096 202.222 106.378C201.343 106.659 200.4 106.674 199.512 106.421C198.624 106.167 197.832 105.656 197.235 104.952C196.637 104.249 196.262 103.384 196.157 102.468C196.02 101.238 196.376 100.004 197.147 99.036C197.917 98.0676 199.04 97.443 200.27 97.2988Z" fill="#05693A"/>
<path d="M232.27 94.2988C233.188 94.1949 234.116 94.365 234.936 94.7877C235.757 95.2103 236.434 95.8665 236.882 96.6734C237.329 97.4803 237.527 98.4016 237.451 99.3209C237.374 100.24 237.027 101.116 236.452 101.838C235.878 102.56 235.102 103.096 234.222 103.378C233.343 103.659 232.4 103.674 231.512 103.421C230.624 103.167 229.832 102.656 229.235 101.952C228.637 101.249 228.262 100.384 228.157 99.4679C228.02 98.2382 228.376 97.0045 229.147 96.036C229.917 95.0676 231.04 94.443 232.27 94.2988Z" fill="#05693A"/>
<path d="M262.27 91.2988C263.188 91.1949 264.116 91.365 264.936 91.7877C265.757 92.2103 266.434 92.8665 266.882 93.6734C267.329 94.4803 267.527 95.4016 267.451 96.3209C267.374 97.2402 267.027 98.1162 266.452 98.8383C265.878 99.5604 265.102 100.096 264.222 100.378C263.343 100.659 262.4 100.674 261.512 100.421C260.624 100.167 259.832 99.656 259.235 98.9525C258.637 98.249 258.262 97.3843 258.157 96.4679C258.02 95.2382 258.376 94.0045 259.147 93.036C259.917 92.0676 261.04 91.443 262.27 91.2988Z" fill="#05693A"/>
<path d="M139.313 74.8325C140.231 74.7286 141.159 74.8987 141.979 75.3213C142.8 75.744 143.477 76.4002 143.925 77.2071C144.372 78.0139 144.57 78.9352 144.494 79.8545C144.417 80.7739 144.07 81.6499 143.495 82.372C142.921 83.0941 142.145 83.6298 141.265 83.9114C140.386 84.193 139.443 84.2079 138.555 83.9543C137.667 83.7006 136.875 83.1897 136.278 82.4862C135.68 81.7826 135.305 80.918 135.2 80.0016C135.063 78.7719 135.419 77.5381 136.19 76.5697C136.96 75.6012 138.083 74.9767 139.313 74.8325Z" fill="#05693A"/>
<path d="M108.358 78.3649C109.588 78.2284 110.823 78.5837 111.793 79.3534C112.762 80.1231 113.387 81.2446 113.532 82.4732C113.636 83.3898 113.466 84.3166 113.042 85.1366C112.619 85.9565 111.963 86.6327 111.155 87.0799C110.347 87.527 109.425 87.7249 108.505 87.6485C107.585 87.5722 106.708 87.225 105.985 86.651C105.262 86.0769 104.726 85.3017 104.444 84.4233C104.162 83.5449 104.147 82.6027 104.401 81.7158C104.655 80.8289 105.166 80.0371 105.871 79.4404C106.575 78.8438 107.44 78.4703 108.358 78.3649Z" fill="#05693A"/>
<path d="M77.4042 81.8986C78.3217 81.7946 79.2494 81.9647 80.0702 82.3874C80.8909 82.81 81.5678 83.4663 82.0154 84.2732C82.4629 85.08 82.661 86.0013 82.5846 86.9206C82.5082 87.8399 82.1607 88.716 81.5861 89.438C81.0115 90.1601 80.2355 90.6958 79.3562 90.9775C78.4769 91.2591 77.5338 91.274 76.646 91.0203C75.7583 90.7667 74.9657 90.2558 74.3685 89.5522C73.7713 88.8487 73.3962 87.9841 73.2907 87.0676C73.154 85.838 73.5099 84.6042 74.2806 83.6358C75.0513 82.6673 76.1742 82.0428 77.4042 81.8986Z" fill="#05693A"/>
<path d="M46.4403 85.4322C47.3578 85.3283 48.2855 85.4984 49.1063 85.9211C49.927 86.3437 50.604 86.9999 51.0515 87.8068C51.499 88.6137 51.6971 89.535 51.6207 90.4543C51.5443 91.3736 51.1968 92.2496 50.6222 92.9717C50.0476 93.6938 49.2716 94.2295 48.3923 94.5111C47.5131 94.7928 46.5699 94.8077 45.6822 94.554C44.7944 94.3003 44.0018 93.7894 43.4046 93.0859C42.8074 92.3823 42.4324 91.5177 42.3268 90.6013C42.1902 89.3716 42.546 88.1379 43.3167 87.1694C44.0874 86.2009 45.2103 85.5764 46.4403 85.4322Z" fill="#05693A"/>
<path d="M15.4846 88.9671C16.7151 88.8302 17.9499 89.1852 18.9193 89.9547C19.8888 90.7242 20.5141 91.8456 20.6587 93.0741C20.7628 93.9907 20.5925 94.9175 20.1694 95.7375C19.7463 96.5574 19.0895 97.2337 18.2818 97.6808C17.4742 98.1279 16.552 98.3258 15.6318 98.2494C14.7116 98.1731 13.8347 97.826 13.1119 97.2519C12.3891 96.6778 11.8529 95.9026 11.571 95.0242C11.2891 94.1458 11.2741 93.2036 11.528 92.3167C11.782 91.4298 12.2934 90.638 12.9976 90.0414C13.7018 89.4447 14.5673 89.07 15.4846 88.9646" fill="#05693A"/>
<path d="M356.012 18.9694C356.93 18.8653 357.858 19.0352 358.679 19.4576C359.499 19.8801 360.177 20.5362 360.624 21.3431C361.072 22.1499 361.27 23.0712 361.194 23.9905C361.118 24.9099 360.77 25.7861 360.196 26.5083C359.621 27.2305 358.845 27.7663 357.966 28.048C357.087 28.3298 356.144 28.3448 355.256 28.0912C354.368 27.8376 353.575 27.3267 352.978 26.6232C352.381 25.9196 352.006 25.055 351.9 24.1385C351.763 22.909 352.119 21.6755 352.89 20.707C353.66 19.7386 354.783 19.1139 356.012 18.9694Z" fill="#05693A"/>
<path d="M325.055 22.5031C326.286 22.3666 327.52 22.7219 328.49 23.4916C329.459 24.2613 330.084 25.3828 330.229 26.6114C330.333 27.528 330.163 28.4548 329.74 29.2747C329.317 30.0947 328.66 30.7709 327.852 31.218C327.044 31.6651 326.122 31.863 325.202 31.7867C324.282 31.7104 323.405 31.3632 322.682 30.7892C321.959 30.2151 321.423 29.4399 321.141 28.5615C320.859 27.683 320.844 26.7408 321.098 25.8539C321.352 24.967 321.864 24.1752 322.568 23.5786C323.272 22.982 324.138 22.6085 325.055 22.5031Z" fill="#05693A"/>
<path d="M294.098 26.0368C295.329 25.9002 296.563 26.2556 297.533 27.0252C298.502 27.7949 299.127 28.9165 299.272 30.145C299.376 31.0616 299.206 31.9884 298.783 32.8084C298.36 33.6283 297.703 34.3046 296.895 34.7517C296.087 35.1988 295.165 35.3967 294.245 35.3204C293.325 35.244 292.448 34.8969 291.725 34.3228C291.002 33.7488 290.466 32.9735 290.184 32.0951C289.902 31.2167 289.887 30.2745 290.141 29.3876C290.395 28.5007 290.907 27.7089 291.611 27.1123C292.315 26.5156 293.181 26.1422 294.098 26.0368Z" fill="#05693A"/>
<path d="M263.141 29.5692C264.058 29.4652 264.986 29.6354 265.806 30.058C266.627 30.4807 267.304 31.1369 267.752 31.9438C268.199 32.7506 268.397 33.6719 268.321 34.5912C268.244 35.5105 267.897 36.3866 267.322 37.1087C266.748 37.8308 265.972 38.3665 265.093 38.6481C264.213 38.9297 263.27 38.9446 262.382 38.691C261.495 38.4373 260.702 37.9264 260.105 37.2228C259.508 36.5193 259.133 35.6547 259.027 34.7383C258.89 33.5086 259.246 32.2748 260.017 31.3064C260.788 30.3379 261.911 29.7134 263.141 29.5692Z" fill="#05693A"/>
<path d="M232.184 33.1028C233.415 32.9663 234.649 33.3216 235.619 34.0913C236.588 34.861 237.213 35.9825 237.358 37.2111C237.462 38.1277 237.292 39.0545 236.869 39.8745C236.446 40.6944 235.789 41.3707 234.981 41.8178C234.173 42.2649 233.251 42.4628 232.331 42.3864C231.411 42.3101 230.534 41.963 229.811 41.3889C229.088 40.8148 228.552 40.0396 228.27 39.1612C227.988 38.2828 227.973 37.3406 228.227 36.4537C228.481 35.5668 228.993 34.775 229.697 34.1783C230.401 33.5817 231.267 33.2082 232.184 33.1028Z" fill="#05693A"/>
<path d="M201.225 36.6364C202.143 36.5325 203.071 36.7026 203.891 37.1253C204.712 37.5479 205.389 38.2042 205.837 39.011C206.284 39.8179 206.482 40.7392 206.406 41.6585C206.329 42.5778 205.982 43.4539 205.407 44.1759C204.833 44.898 204.057 45.4337 203.177 45.7153C202.298 45.997 201.355 46.0119 200.467 45.7582C199.58 45.5045 198.787 44.9937 198.19 44.2901C197.593 43.5866 197.217 42.722 197.112 41.8055C196.975 40.5759 197.331 39.3421 198.102 38.3736C198.873 37.4052 199.995 36.7807 201.225 36.6364Z" fill="#05693A"/>
<path d="M170.27 40.1701C171.188 40.0661 172.116 40.2363 172.936 40.6589C173.757 41.0816 174.434 41.7378 174.882 42.5447C175.329 43.3515 175.527 44.2728 175.451 45.1921C175.374 46.1114 175.027 46.9875 174.452 47.7096C173.878 48.4316 173.102 48.9673 172.222 49.249C171.343 49.5306 170.4 49.5455 169.512 49.2919C168.624 49.0382 167.832 48.5273 167.235 47.8237C166.637 47.1202 166.262 46.2556 166.157 45.3392C166.02 44.1095 166.376 42.8757 167.147 41.9073C167.917 40.9388 169.04 40.3143 170.27 40.1701Z" fill="#05693A"/>
<path d="M139.313 43.7038C140.231 43.5998 141.159 43.7699 141.979 44.1926C142.8 44.6153 143.477 45.2715 143.925 46.0784C144.372 46.8852 144.57 47.8065 144.494 48.7258C144.417 49.6451 144.07 50.5212 143.495 51.2433C142.921 51.9653 142.145 52.501 141.265 52.7827C140.386 53.0643 139.443 53.0792 138.555 52.8255C137.667 52.5719 136.875 52.061 136.278 51.3574C135.68 50.6539 135.305 49.7893 135.2 48.8729C135.063 47.6432 135.419 46.4094 136.19 45.441C136.96 44.4725 138.083 43.848 139.313 43.7038Z" fill="#05693A"/>
<path d="M108.357 47.2373C109.275 47.1332 110.202 47.3031 111.023 47.7256C111.844 48.148 112.521 48.8042 112.969 49.611C113.417 50.4178 113.615 51.3391 113.539 52.2585C113.462 53.1778 113.115 54.054 112.541 54.7762C111.966 55.4984 111.19 56.0342 110.311 56.316C109.431 56.5977 108.488 56.6127 107.601 56.3591C106.713 56.1055 105.92 55.5946 105.323 54.8911C104.725 54.1875 104.35 53.3229 104.245 52.4064C104.108 51.177 104.464 49.9434 105.234 48.9749C106.005 48.0065 107.127 47.3819 108.357 47.2373Z" fill="#05693A"/>
<path d="M77.4042 50.771C78.3217 50.6671 79.2494 50.8372 80.0702 51.2599C80.8909 51.6825 81.5678 52.3387 82.0154 53.1456C82.4629 53.9525 82.661 54.8738 82.5846 55.7931C82.5082 56.7124 82.1607 57.5884 81.5861 58.3105C81.0115 59.0326 80.2355 59.5683 79.3562 59.8499C78.4769 60.1316 77.5338 60.1465 76.646 59.8928C75.7583 59.6391 74.9657 59.1282 74.3685 58.4247C73.7713 57.7211 73.3962 56.8565 73.2907 55.9401C73.154 54.7104 73.5099 53.4767 74.2806 52.5082C75.0513 51.5398 76.1742 50.9152 77.4042 50.771Z" fill="#05693A"/>
<path d="M46.4402 54.3047C47.3577 54.2007 48.2855 54.3708 49.1063 54.7935C49.9271 55.2162 50.604 55.8725 51.0516 56.6794C51.4991 57.4864 51.6972 58.4077 51.6207 59.3271C51.5442 60.2464 51.1966 61.1225 50.6219 61.8446C50.0471 62.5666 49.271 63.1023 48.3916 63.3838C47.5123 63.6653 46.5691 63.6801 45.6813 63.4262C44.7935 63.1723 44.001 62.6612 43.4039 61.9575C42.8068 61.2538 42.432 60.389 42.3267 59.4725C42.19 58.243 42.5459 57.0094 43.3166 56.0411C44.0874 55.0728 45.2103 54.4486 46.4402 54.3047Z" fill="#05693A"/>
<path d="M15.4862 57.8371C16.4037 57.7332 17.3315 57.9033 18.1522 58.326C18.9729 58.7486 19.6499 59.4049 20.0974 60.2117C20.5449 61.0186 20.743 61.9399 20.6666 62.8592C20.5902 63.7785 20.2427 64.6545 19.6681 65.3766C19.0935 66.0987 18.3175 66.6344 17.4382 66.916C16.559 67.1977 15.6158 67.2126 14.7281 66.9589C13.8403 66.7052 13.0477 66.1943 12.4505 65.4908C11.8533 64.7873 11.4782 63.9226 11.3727 63.0062C11.2361 61.7765 11.5919 60.5428 12.3626 59.5743C13.1333 58.6059 14.2562 57.9813 15.4862 57.8371Z" fill="#05693A"/>
<path d="M325.055 -8.62933C326.286 -8.76588 327.52 -8.41054 328.49 -7.64086C329.459 -6.87117 330.084 -5.74964 330.229 -4.52107C330.333 -3.60447 330.163 -2.67765 329.74 -1.85771C329.317 -1.03777 328.66 -0.361505 327.852 0.0856006C327.044 0.532706 326.122 0.730587 325.202 0.654253C324.282 0.577919 323.405 0.230791 322.682 -0.34327C321.959 -0.917331 321.423 -1.69255 321.141 -2.57098C320.859 -3.4494 320.844 -4.39159 321.098 -5.27849C321.352 -6.16539 321.864 -6.9572 322.568 -7.55383C323.272 -8.15047 324.138 -8.52516 325.055 -8.63057" fill="#05693A"/>
<path d="M294.098 -5.09079C295.015 -5.19472 295.943 -5.02461 296.764 -4.60195C297.584 -4.17929 298.261 -3.52306 298.709 -2.71619C299.156 -1.90932 299.354 -0.988025 299.278 -0.0687227C299.202 0.85058 298.854 1.72662 298.279 2.4487C297.705 3.17078 296.929 3.70648 296.05 3.98811C295.17 4.26974 294.227 4.28467 293.339 4.03099C292.452 3.77731 291.659 3.26642 291.062 2.56288C290.465 1.85934 290.09 0.994725 289.984 0.0783003C289.847 -1.15144 290.203 -2.38536 290.974 -3.3539C291.744 -4.32245 292.867 -4.94688 294.098 -5.09079Z" fill="#05693A"/>
<path d="M263.141 -1.55833C264.372 -1.69488 265.606 -1.33953 266.576 -0.569842C267.545 0.199843 268.17 1.32136 268.315 2.54994C268.419 3.46653 268.249 4.39336 267.826 5.21331C267.403 6.03325 266.746 6.7095 265.938 7.15661C265.13 7.60371 264.208 7.8016 263.288 7.72527C262.368 7.64893 261.491 7.30181 260.768 6.72775C260.045 6.15368 259.509 5.37845 259.227 4.50003C258.945 3.62161 258.93 2.67941 259.184 1.79251C259.438 0.905613 259.95 0.113817 260.654 -0.482818C261.358 -1.07945 262.224 -1.45292 263.141 -1.55833Z" fill="#05693A"/>
<path d="M232.184 1.97527C233.102 1.87135 234.03 2.04146 234.85 2.46412C235.671 2.88677 236.348 3.543 236.796 4.34987C237.243 5.15674 237.441 6.07804 237.365 6.99734C237.288 7.91665 236.941 8.79269 236.366 9.51477C235.792 10.2368 235.016 10.7726 234.136 11.0542C233.257 11.3358 232.314 11.3507 231.426 11.0971C230.539 10.8434 229.746 10.3325 229.149 9.62895C228.552 8.92541 228.176 8.06079 228.071 7.14437C227.934 5.91469 228.29 4.68094 229.061 3.71247C229.832 2.744 230.954 2.11949 232.184 1.97527Z" fill="#05693A"/>
<path d="M201.225 5.50891C202.143 5.40498 203.071 5.5751 203.891 5.99775C204.712 6.42041 205.389 7.07664 205.837 7.88351C206.284 8.69038 206.482 9.61168 206.406 10.531C206.329 11.4503 205.982 12.3263 205.407 13.0484C204.833 13.7705 204.057 14.3062 203.177 14.5878C202.298 14.8694 201.355 14.8844 200.467 14.6307C199.58 14.377 198.787 13.8661 198.19 13.1626C197.593 12.459 197.217 11.5944 197.112 10.678C196.975 9.44833 197.331 8.21457 198.102 7.24611C198.873 6.27764 199.995 5.65313 201.225 5.50891Z" fill="#05693A"/>
<path d="M170.27 9.04138C171.5 8.90482 172.735 9.26017 173.705 10.0299C174.674 10.7995 175.299 11.9211 175.444 13.1496C175.548 14.0662 175.378 14.9931 174.955 15.813C174.531 16.6329 173.875 17.3092 173.067 17.7563C172.259 18.2034 171.337 18.4013 170.417 18.325C169.497 18.2486 168.62 17.9015 167.897 17.3274C167.174 16.7534 166.638 15.9782 166.356 15.0997C166.074 14.2213 166.059 13.2791 166.313 12.3922C166.567 11.5053 167.079 10.7135 167.783 10.1169C168.487 9.52025 169.352 9.14678 170.27 9.04138Z" fill="#05693A"/>
<path d="M139.313 12.575C140.231 12.4711 141.159 12.6412 141.979 13.0638C142.8 13.4865 143.477 14.1427 143.925 14.9496C144.372 15.7565 144.57 16.6778 144.494 17.5971C144.417 18.5164 144.07 19.3924 143.495 20.1145C142.921 20.8366 142.145 21.3723 141.265 21.6539C140.386 21.9356 139.443 21.9505 138.555 21.6968C137.667 21.4431 136.875 20.9322 136.278 20.2287C135.68 19.5251 135.305 18.6605 135.2 17.7441C135.063 16.5144 135.419 15.2807 136.19 14.3122C136.96 13.3437 138.083 12.7192 139.313 12.575Z" fill="#05693A"/>
<path d="M108.357 16.1087C109.275 16.0045 110.202 16.1744 111.023 16.5969C111.844 17.0193 112.521 17.6755 112.969 18.4823C113.417 19.2891 113.615 20.2104 113.539 21.1298C113.462 22.0491 113.115 22.9253 112.541 23.6475C111.966 24.3697 111.19 24.9055 110.311 25.1873C109.431 25.469 108.488 25.484 107.601 25.2304C106.713 24.9768 105.92 24.4659 105.323 23.7624C104.725 23.0589 104.35 22.1942 104.245 21.2777C104.108 20.0483 104.464 18.8147 105.234 17.8462C106.005 16.8778 107.127 16.2532 108.357 16.1087Z" fill="#05693A"/>
<path d="M77.404 19.6435C78.3215 19.5394 79.2493 19.7093 80.0702 20.1317C80.891 20.5542 81.5682 21.2103 82.0159 22.0172C82.4636 22.824 82.6619 23.7453 82.5856 24.6647C82.5094 25.584 82.162 26.4602 81.5875 27.1824C81.0129 27.9046 80.237 28.4404 79.3577 28.7221C78.4784 29.0039 77.5352 29.0189 76.6474 28.7653C75.7596 28.5117 74.9669 28.0008 74.3697 27.2973C73.7724 26.5937 73.3973 25.7291 73.2917 24.8126C73.155 23.5831 73.5107 22.3496 74.2812 21.3811C75.0516 20.4127 76.1742 19.788 77.404 19.6435Z" fill="#05693A"/>
<path d="M46.4403 23.176C47.3578 23.072 48.2855 23.2421 49.1063 23.6648C49.927 24.0875 50.604 24.7437 51.0515 25.5506C51.499 26.3574 51.6971 27.2787 51.6207 28.198C51.5443 29.1173 51.1968 29.9934 50.6222 30.7154C50.0476 31.4375 49.2716 31.9732 48.3923 32.2549C47.5131 32.5365 46.5699 32.5514 45.6822 32.2977C44.7944 32.0441 44.0018 31.5332 43.4046 30.8296C42.8074 30.1261 42.4324 29.2615 42.3268 28.345C42.1902 27.1154 42.546 25.8816 43.3167 24.9132C44.0874 23.9447 45.2103 23.3202 46.4403 23.176Z" fill="#05693A"/>
<path d="M15.4862 26.7096C16.4037 26.6057 17.3315 26.7758 18.1522 27.1985C18.9729 27.6211 19.6499 28.2773 20.0974 29.0842C20.5449 29.8911 20.743 30.8124 20.6666 31.7317C20.5902 32.651 20.2427 33.527 19.6681 34.2491C19.0935 34.9712 18.3175 35.5069 17.4382 35.7885C16.559 36.0702 15.6158 36.0851 14.7281 35.8314C13.8403 35.5777 13.0477 35.0668 12.4505 34.3633C11.8533 33.6598 11.4782 32.7951 11.3727 31.8787C11.2361 30.649 11.5919 29.4153 12.3626 28.4468C13.1333 27.4784 14.2562 26.8538 15.4862 26.7096Z" fill="#05693A"/>
<path d="M46.4403 -7.95277C47.3578 -8.05669 48.2855 -7.88659 49.1063 -7.46393C49.927 -7.04128 50.604 -6.38504 51.0515 -5.57817C51.499 -4.7713 51.6971 -3.85 51.6207 -2.9307C51.5443 -2.01139 51.1968 -1.13535 50.6222 -0.413273C50.0476 0.308805 49.2716 0.844517 48.3923 1.12615C47.5131 1.40778 46.5699 1.42269 45.6822 1.16901C44.7944 0.915336 44.0018 0.404448 43.4046 -0.299093C42.8074 -1.00263 42.4324 -1.86725 42.3268 -2.78367C42.1902 -4.01335 42.546 -5.2471 43.3167 -6.21557C44.0874 -7.18404 45.2103 -7.80855 46.4403 -7.95277Z" fill="#05693A"/>
<path d="M15.4862 -4.41792C16.4037 -4.52184 17.3315 -4.35172 18.1522 -3.92907C18.9729 -3.50641 19.6499 -2.85019 20.0974 -2.04332C20.5449 -1.23645 20.743 -0.315143 20.6666 0.604159C20.5902 1.52346 20.2427 2.3995 19.6681 3.12158C19.0935 3.84366 18.3175 4.37936 17.4382 4.66099C16.559 4.94263 15.6158 4.95755 14.7281 4.70387C13.8403 4.45019 13.0477 3.9393 12.4505 3.23576C11.8533 2.53222 11.4782 1.66761 11.3727 0.751182C11.2361 -0.478491 11.5919 -1.71224 12.3626 -2.68071C13.1333 -3.64918 14.2562 -4.2737 15.4862 -4.41792Z" fill="#05693A"/>
</g>
</svg>
