<svg width="247" height="88" viewBox="0 0 247 88" fill="none" xmlns="http://www.w3.org/2000/svg">
<g clip-path="url(#clip0_1836_60493)">
<path d="M245.834 1.57973C245.339 1.01651 244.717 0.581896 244.022 0.312387C243.326 0.0428773 242.577 -0.0536646 241.837 0.030866L123.277 13.6031L5.16039 0.0274316C4.42396 -0.05729 3.67822 0.0379993 2.98562 0.305316C2.29303 0.572633 1.67377 1.00419 1.17972 1.56384C0.685673 2.12348 0.331225 2.79491 0.146074 3.52188C-0.0390777 4.24884 -0.0495404 5.01017 0.115563 5.74208C0.830925 8.92222 1.91584 13.7749 3.23807 19.6818C6.49958 34.2878 10.9714 54.2891 15.05 72.2263C16.3824 78.0887 20.4271 81.1864 26.7467 81.1864H47.9499C48.3675 83.1316 49.4339 84.8718 50.9696 86.114C52.5053 87.3563 54.4165 88.0247 56.3817 88.0069H190.131C192.096 88.0247 194.007 87.3563 195.543 86.114C197.079 84.8718 198.145 83.1316 198.563 81.1864H219.773C226.133 81.1864 230.055 78.1745 231.429 72.2298C235.677 53.8598 240.623 32.6153 243.898 18.5554C245.159 13.1533 246.19 8.7196 246.878 5.76268C247.048 5.03172 247.042 4.27015 246.86 3.54217C246.678 2.81419 246.326 2.14113 245.834 1.57973Z" fill="white"/>
<path d="M26.7462 79.4624C21.203 79.4624 17.8669 76.9691 16.7006 71.8314C10.937 46.4624 4.20717 16.1961 1.78308 5.36091C1.67741 4.89643 1.68338 4.41303 1.80047 3.95137C1.91757 3.4897 2.14237 3.06326 2.45599 2.70789C2.7696 2.35253 3.16285 2.07862 3.60269 1.9092C4.04252 1.73978 4.51608 1.67981 4.98356 1.73431L123.307 15.3306L242.026 1.73775C242.494 1.68244 242.968 1.74186 243.408 1.91101C243.848 2.08016 244.242 2.35407 244.556 2.70964C244.869 3.06521 245.094 3.49201 245.211 3.95404C245.328 4.41607 245.333 4.89977 245.227 5.36435C242.728 16.1239 235.632 46.5036 229.777 71.8348C228.59 76.9656 225.319 79.4624 219.772 79.4624H26.7462Z" fill="#006937"/>
<path d="M219.522 75.2074C223.16 75.2417 224.814 74.2286 225.594 70.8664C232.958 38.9997 240.63 6.1714 240.63 6.1714L123.28 19.6132L6.20801 6.16797C6.20801 6.16797 13.3616 38.9997 20.7289 70.8664C21.5052 74.2286 23.2038 75.252 26.8315 75.2177L219.522 75.2074Z" fill="white"/>
<path d="M197.03 79.531C197.03 83.2607 193.942 86.2828 190.131 86.2828H56.3818C52.571 86.2828 49.4824 83.2607 49.4824 79.531V76.1552C49.4824 72.4255 52.571 69.4034 56.3818 69.4034H190.131C193.942 69.4034 197.03 72.4255 197.03 76.1552V79.531Z" fill="#006937"/>
<path d="M61.2129 73.6138C61.2128 73.5515 61.2363 73.4914 61.2785 73.4461C61.3208 73.4007 61.3786 73.3735 61.44 73.37H64.532C65.7032 73.37 66.8264 73.8413 67.6545 74.6801C68.4827 75.519 68.9479 76.6568 68.9479 77.8431C68.9479 79.0295 68.4827 80.1672 67.6545 81.0061C66.8264 81.845 65.7032 82.3163 64.532 82.3163H61.44C61.3789 82.3136 61.3211 82.2871 61.2788 82.2423C61.2364 82.1975 61.2128 82.1379 61.2129 82.0759V73.6138ZM64.4201 80.4274C65.0981 80.4274 65.7483 80.1546 66.2277 79.669C66.7071 79.1834 66.9764 78.5247 66.9764 77.838C66.9764 77.1512 66.7071 76.4926 66.2277 76.007C65.7483 75.5213 65.0981 75.2485 64.4201 75.2485H63.2064V80.4274H64.4201Z" fill="white" stroke="white" stroke-width="0.07" stroke-linecap="round" stroke-linejoin="round"/>
<path d="M80.2764 73.2429C81.1741 73.2442 82.0512 73.515 82.7972 74.0208C83.5431 74.5267 84.1243 75.2451 84.4675 76.0853C84.8107 76.9256 84.9005 77.8499 84.7256 78.7418C84.5506 79.6337 84.1187 80.453 83.4845 81.0965C82.8502 81.7399 82.0419 82.1786 81.1617 82.3572C80.2816 82.5358 79.3689 82.4462 78.5389 82.0998C77.7089 81.7534 76.9989 81.1656 76.4983 80.4108C75.9978 79.656 75.7293 78.7679 75.7266 77.8586C75.7248 77.2525 75.8412 76.652 76.0691 76.0917C76.2971 75.5313 76.632 75.0221 77.0548 74.5932C77.4776 74.1643 77.9798 73.8242 78.5327 73.5925C79.0855 73.3608 79.6781 73.242 80.2764 73.2429ZM80.2764 80.4C80.7768 80.4006 81.2662 80.2507 81.6824 79.9692C82.0985 79.6877 82.4228 79.2874 82.614 78.8189C82.8052 78.3504 82.8547 77.835 82.7562 77.338C82.6577 76.841 82.4158 76.3848 82.061 76.0274C81.7062 75.6699 81.2545 75.4272 80.7633 75.3302C80.2722 75.2331 79.7636 75.2861 79.3022 75.4822C78.8408 75.6784 78.4473 76.009 78.1717 76.4321C77.896 76.8552 77.7506 77.3517 77.754 77.8586C77.7602 78.533 78.0284 79.1778 78.5005 79.6535C78.9726 80.1291 79.6106 80.3973 80.2764 80.4Z" fill="white" stroke="white" stroke-width="0.07" stroke-linecap="round" stroke-linejoin="round"/>
<path d="M92.041 73.6138C92.0435 73.55 92.0697 73.4894 92.1143 73.4442C92.1589 73.399 92.2187 73.3725 92.2817 73.37H93.8413C93.9051 73.37 93.9663 73.3957 94.0115 73.4414C94.0566 73.4871 94.082 73.5491 94.082 73.6138V78.7893C94.082 79.211 94.2474 79.6154 94.5417 79.9136C94.8361 80.2118 95.2354 80.3794 95.6517 80.3794C96.068 80.3794 96.4673 80.2118 96.7617 79.9136C97.056 79.6154 97.2214 79.211 97.2214 78.7893V73.6138C97.2214 73.5491 97.2468 73.4871 97.2919 73.4414C97.3371 73.3957 97.3983 73.37 97.4621 73.37H99.0217C99.0847 73.3725 99.1445 73.399 99.1891 73.4442C99.2337 73.4894 99.2599 73.55 99.2624 73.6138V78.8923C99.2624 79.8624 98.882 80.7927 98.2048 81.4786C97.5277 82.1645 96.6093 82.5498 95.6517 82.5498C94.6941 82.5498 93.7757 82.1645 93.0986 81.4786C92.4214 80.7927 92.041 79.8624 92.041 78.8923V73.6138Z" fill="white" stroke="white" stroke-width="0.07" stroke-linecap="round" stroke-linejoin="round"/>
<path d="M111.01 73.2566C112.146 73.282 113.238 73.707 114.099 74.4586C114.126 74.477 114.149 74.5015 114.165 74.5301C114.182 74.5586 114.192 74.5906 114.194 74.6237C114.197 74.6567 114.192 74.6899 114.18 74.7208C114.169 74.7517 114.15 74.7794 114.126 74.802L113.126 75.877C113.078 75.9166 113.018 75.9382 112.956 75.9382C112.895 75.9382 112.835 75.9166 112.787 75.877C112.333 75.4613 111.737 75.2419 111.126 75.2657C110.455 75.2657 109.811 75.5356 109.337 76.0161C108.863 76.4965 108.596 77.1482 108.596 77.8277C108.596 78.5071 108.863 79.1588 109.337 79.6393C109.811 80.1197 110.455 80.3897 111.126 80.3897C111.51 80.3946 111.892 80.3258 112.251 80.187V79.4452H111.454C111.424 79.4466 111.393 79.4417 111.364 79.4308C111.335 79.4199 111.308 79.4032 111.286 79.3818C111.264 79.3603 111.246 79.3345 111.233 79.3059C111.221 79.2772 111.214 79.2464 111.214 79.2151V77.9582C111.213 77.926 111.218 77.8941 111.23 77.8642C111.242 77.8344 111.26 77.8073 111.282 77.7848C111.305 77.7622 111.332 77.7446 111.361 77.7331C111.391 77.7215 111.423 77.7163 111.454 77.7178H114.001C114.062 77.7196 114.12 77.7458 114.163 77.7908C114.205 77.8358 114.229 77.8959 114.228 77.9582V81.3925C114.221 81.4718 114.185 81.5455 114.126 81.5985C113.167 82.1434 112.086 82.4296 110.987 82.4296C109.785 82.4296 108.633 81.9462 107.784 81.0858C106.934 80.2253 106.457 79.0583 106.457 77.8414C106.457 76.6245 106.934 75.4575 107.784 74.597C108.633 73.7366 109.785 73.2532 110.987 73.2532L111.01 73.2566Z" fill="white" stroke="white" stroke-width="0.07" stroke-linecap="round" stroke-linejoin="round"/>
<path d="M121.862 73.6138C121.864 73.5497 121.89 73.4887 121.935 73.4433C121.979 73.398 122.04 73.3717 122.103 73.37H123.608C123.672 73.37 123.733 73.3957 123.779 73.4414C123.824 73.4871 123.849 73.5491 123.849 73.6138V76.8352H127.48V73.6138C127.48 73.5491 127.505 73.4871 127.551 73.4414C127.596 73.3957 127.657 73.37 127.721 73.37H129.229C129.292 73.3725 129.352 73.399 129.397 73.4442C129.441 73.4894 129.468 73.55 129.47 73.6138V82.0759C129.468 82.1394 129.441 82.1995 129.397 82.2442C129.352 82.2888 129.292 82.3146 129.229 82.3163H127.721C127.689 82.3167 127.658 82.3108 127.629 82.299C127.6 82.2871 127.573 82.2694 127.551 82.2471C127.528 82.2247 127.511 82.198 127.498 82.1687C127.486 82.1393 127.48 82.1077 127.48 82.0759V78.7137H123.849V82.0759C123.849 82.1077 123.843 82.1393 123.831 82.1687C123.819 82.198 123.801 82.2247 123.778 82.2471C123.756 82.2694 123.729 82.2871 123.7 82.299C123.671 82.3108 123.64 82.3167 123.608 82.3163H122.103C122.04 82.3154 121.98 82.2899 121.935 82.2451C121.89 82.2003 121.864 82.1397 121.862 82.0759V73.6138Z" fill="white" stroke="white" stroke-width="0.07" stroke-linecap="round" stroke-linejoin="round"/>
<path d="M137.37 73.473C137.374 73.4107 137.4 73.3522 137.445 73.3094C137.49 73.2666 137.549 73.2428 137.611 73.2429H137.93L142.985 78.1505V73.6138C142.985 73.5491 143.01 73.4871 143.055 73.4414C143.1 73.3956 143.161 73.3699 143.225 73.3699H144.771C144.834 73.3725 144.894 73.399 144.939 73.4442C144.983 73.4894 145.009 73.5499 145.012 73.6138V82.2167C145.008 82.2789 144.982 82.3375 144.937 82.3803C144.892 82.4231 144.833 82.4469 144.771 82.4468H144.568C144.509 82.4381 144.454 82.4157 144.405 82.3815L139.387 77.3057V82.0759C139.387 82.1077 139.381 82.1393 139.369 82.1687C139.357 82.1981 139.339 82.2247 139.317 82.2471C139.294 82.2695 139.268 82.2871 139.239 82.299C139.209 82.3109 139.178 82.3167 139.147 82.3163H137.638C137.575 82.3146 137.515 82.2888 137.471 82.2442C137.426 82.1996 137.4 82.1394 137.397 82.0759L137.37 73.473Z" fill="white" stroke="white" stroke-width="0.07" stroke-linecap="round" stroke-linejoin="round"/>
<path d="M152.823 73.6138C152.826 73.55 152.852 73.4894 152.897 73.4442C152.941 73.399 153.001 73.3725 153.064 73.37H154.624C154.687 73.37 154.749 73.3957 154.794 73.4414C154.839 73.4871 154.864 73.5491 154.864 73.6138V78.7893C154.864 79.211 155.03 79.6154 155.324 79.9136C155.618 80.2118 156.018 80.3794 156.434 80.3794C156.85 80.3794 157.25 80.2118 157.544 79.9136C157.838 79.6154 158.004 79.211 158.004 78.7893V73.6138C158.004 73.5491 158.029 73.4871 158.074 73.4414C158.119 73.3957 158.181 73.37 158.244 73.37H159.804C159.867 73.3725 159.927 73.399 159.971 73.4442C160.016 73.4894 160.042 73.55 160.045 73.6138V78.8923C160.045 79.8624 159.664 80.7927 158.987 81.4786C158.31 82.1645 157.392 82.5498 156.434 82.5498C155.476 82.5498 154.558 82.1645 153.881 81.4786C153.204 80.7927 152.823 79.8624 152.823 78.8923V73.6138Z" fill="white" stroke="white" stroke-width="0.07" stroke-linecap="round" stroke-linejoin="round"/>
<path d="M168.954 75.2485H167.147C167.116 75.249 167.084 75.2431 167.055 75.2312C167.026 75.2193 166.999 75.2017 166.977 75.1793C166.955 75.157 166.937 75.1303 166.925 75.1009C166.913 75.0715 166.906 75.04 166.906 75.0081V73.6138C166.906 73.5491 166.932 73.4871 166.977 73.4414C167.022 73.3957 167.083 73.37 167.147 73.37H172.772C172.835 73.37 172.897 73.3957 172.942 73.4414C172.987 73.4871 173.012 73.5491 173.012 73.6138V75.0081C173.012 75.04 173.006 75.0715 172.994 75.1009C172.982 75.1303 172.964 75.157 172.942 75.1793C172.919 75.2017 172.893 75.2193 172.863 75.2312C172.834 75.2431 172.803 75.249 172.772 75.2485H170.961V82.0759C170.959 82.1394 170.932 82.1995 170.888 82.2442C170.843 82.2888 170.783 82.3146 170.72 82.3163H169.181C169.118 82.3146 169.059 82.2888 169.014 82.2442C168.969 82.1995 168.943 82.1394 168.94 82.0759L168.954 75.2485Z" fill="white" stroke="white" stroke-width="0.07" stroke-linecap="round" stroke-linejoin="round"/>
<path d="M179.692 81.104L180.289 80.0428C180.34 79.9808 180.411 79.9392 180.49 79.9254C180.569 79.9115 180.65 79.9264 180.719 79.9672C180.77 79.9913 181.682 80.6541 182.519 80.6541C182.627 80.6654 182.736 80.6543 182.839 80.6214C182.942 80.5884 183.037 80.5344 183.119 80.4626C183.201 80.3908 183.267 80.3028 183.314 80.204C183.36 80.1052 183.387 79.9977 183.391 79.8882C183.391 79.3525 182.95 78.9438 182.085 78.5969C180.997 78.1642 179.631 77.3056 179.631 75.7739C179.631 74.5067 180.604 73.2291 182.557 73.2291C183.537 73.255 184.485 73.59 185.269 74.1873C185.328 74.2352 185.367 74.3024 185.382 74.3772C185.396 74.452 185.384 74.5295 185.347 74.596L184.699 75.5816C184.611 75.7224 184.384 75.8358 184.269 75.7465C184.154 75.6572 183.231 74.9806 182.458 74.9806C182.267 74.9622 182.077 75.0201 181.927 75.142C181.778 75.2639 181.681 75.4402 181.658 75.6331C181.658 76.1036 182.041 76.4642 183.042 76.8729C184.042 77.2816 185.601 78.0474 185.601 79.7852C185.601 81.104 184.472 82.433 182.611 82.433C180.963 82.433 180.051 81.7462 179.76 81.4474C179.631 81.3341 179.59 81.2826 179.692 81.104Z" fill="white" stroke="white" stroke-width="0.07" stroke-linecap="round" stroke-linejoin="round"/>
<path d="M160.706 30.5548H223.471C224.293 30.5489 225.105 30.3762 225.86 30.047C226.614 29.7179 227.296 29.2389 227.865 28.6383C228.434 28.0377 228.878 27.3278 229.172 26.5504C229.465 25.773 229.602 24.9439 229.574 24.1121C229.574 24.1121 229.574 23.827 229.543 23.6862C229.486 23.2089 228.828 22.8277 228.563 23.2192C227.818 24.3284 225.265 24.3284 223.631 24.3284H160.611C150.101 24.3284 141.174 37.0627 139.113 39.7346C140.13 36.7949 142.13 30.6166 142.086 28.2263C141.984 22.7315 135.712 22.4396 132.569 23.6588C132.23 23.7961 132.356 24.3662 132.718 24.4383C133.766 24.6478 135.77 25.4377 135.037 28.4393C134.973 28.8995 126.677 59.7359 126.677 59.7359C126.656 59.8107 126.653 59.8894 126.667 59.9659C126.681 60.0423 126.712 60.1145 126.758 60.1769C126.803 60.2392 126.863 60.2901 126.931 60.3256C126.999 60.3611 127.075 60.3802 127.152 60.3815H133.024C133.125 60.3817 133.225 60.3483 133.306 60.2864C133.387 60.2244 133.446 60.1372 133.475 60.0381C134.051 57.9569 136.404 49.5738 136.431 49.4983C137.95 45.2432 140.16 42.4477 142.011 42.4477C142.879 42.4477 143.313 42.9663 143.323 43.5707C143.351 44.965 141.415 51.0643 140.611 54.2341C139.594 58.266 141.967 61.1027 145.761 61.1027C149.735 61.1027 151.477 59.0421 153.576 54.9794C154.454 53.2897 157.899 43.2273 158.533 41.1186C159.376 41.286 160.228 41.4007 161.085 41.4621C161.058 41.5548 160.014 45.724 159.638 47.3003C159.238 48.9556 158.804 50.5698 158.773 52.3212C158.733 54.8283 159.584 57.5791 162.537 57.5791C165.744 57.5791 167.768 55.4258 168.931 53.9251C169.422 55.0175 170.214 55.9432 171.211 56.5908C172.209 57.2384 173.37 57.5804 174.555 57.5757C177.607 57.5757 180.153 56.3977 182.014 53.9869L181.251 56.7755C181.233 56.8439 181.23 56.9158 181.243 56.9855C181.256 57.0553 181.284 57.1212 181.326 57.1781C181.368 57.235 181.422 57.2816 181.484 57.3142C181.546 57.3468 181.615 57.3646 181.685 57.3662H185.971C186.069 57.3649 186.163 57.3303 186.239 57.2681C186.316 57.2058 186.369 57.1194 186.391 57.0228L189.588 45.0852C190.205 43.4162 192.199 41.9944 193.317 41.9944C193.85 41.9944 194.158 42.3378 193.972 43.1414L190.456 56.7686C190.438 56.8369 190.436 56.9083 190.449 56.9776C190.462 57.047 190.491 57.1123 190.532 57.1689C190.574 57.2254 190.628 57.2716 190.69 57.304C190.752 57.3364 190.82 57.3541 190.89 57.3559H195.182C195.28 57.355 195.374 57.3206 195.45 57.2582C195.526 57.1958 195.578 57.1091 195.599 57.0125L198.681 45.0749C199.39 43.4677 201.305 41.9841 202.41 41.9841C202.916 41.9841 203.204 42.3515 203.024 43.138C202.987 43.2891 201.942 47.3141 201.634 48.4886C199.766 55.4636 201.475 57.5242 205.038 57.5242C207.55 57.5242 209.595 56.1299 210.883 54.2994C211.941 56.8545 214.327 57.5448 216.46 57.5448C220.966 57.5448 223.264 54.4814 224.258 52.9394C224.331 52.8248 224.363 52.6884 224.348 52.5529C224.334 52.4173 224.275 52.2908 224.18 52.1942C223.975 52.0296 223.759 51.8782 223.536 51.7409C223.44 51.6758 223.325 51.6454 223.21 51.6548C223.095 51.6641 222.986 51.7126 222.902 51.7924C221.803 53.1661 220.461 54.3715 217.986 54.3715C215.816 54.3715 215.002 52.0946 214.972 50.5354C214.967 50.3357 214.977 50.136 215.002 49.9379C221.159 49.9379 223.98 45.8785 223.925 42.8701C223.881 40.4661 222.691 38.0209 219.223 38.0209C213.259 38.0209 209.866 44.6903 209.961 49.8898C209.989 50.7327 210.066 51.5732 210.191 52.4071C209.628 53.1661 208.472 54.0865 207.452 54.0865C206.431 54.0865 206.204 52.9669 206.333 51.6825C206.692 48.0868 208.313 43.9759 208.262 41.232C208.242 40.0712 207.679 38.0415 204.97 38.0415C202.753 38.0415 200.417 39.4152 198.986 41.256C198.864 40.0712 198.718 38.0415 195.935 38.0415C194.548 38.0415 192.297 38.7799 190.473 40.8645L191.015 38.8486C191.034 38.7801 191.037 38.7083 191.024 38.6385C191.011 38.5688 190.983 38.5029 190.941 38.446C190.899 38.389 190.845 38.3425 190.783 38.3099C190.72 38.2773 190.652 38.2595 190.581 38.2579H186.513C186.415 38.2587 186.321 38.2932 186.245 38.3556C186.169 38.418 186.117 38.5046 186.096 38.6013C186.096 38.6013 183.723 47.4034 183.648 47.6575C181.055 53.877 178.19 54.4024 176.037 54.4024C174.043 54.4024 172.986 51.9984 173.165 49.9619C178.288 49.9619 182.14 46.871 182.065 42.8083C182.017 40.2017 180.634 38.0449 177.237 38.0449C170.717 38.0449 168.083 46.0365 168.148 50.0409C168.158 50.6479 168.207 51.2535 168.293 51.8542C168.08 52.2732 166.991 53.5438 165.686 53.5438C163.733 53.5438 163.767 48.9247 166.866 39.4152L167.002 39.0718C167.028 39.0059 167.037 38.9346 167.03 38.864C167.022 38.7935 166.998 38.7259 166.959 38.667C166.92 38.6081 166.867 38.5598 166.806 38.5262C166.744 38.4926 166.675 38.4748 166.605 38.4742C165.249 38.4948 161.435 38.8898 159.306 38.0621C159.306 38.0243 160.007 34.6278 156.593 34.6278C154.935 34.6278 153.722 35.7302 153.749 37.1795C153.786 39.3088 155.329 40.1433 156.237 40.552C154.786 45.0165 153.261 49.3987 151.83 52.7024C150.457 55.8448 149.267 56.7068 148.365 56.7068C147.568 56.7068 147.3 56.1299 147.29 55.443C147.243 53.0081 150.66 46.6925 150.558 41.1495C150.518 38.9962 148.948 37.7153 146.975 37.7153C145.449 37.7137 143.964 38.2085 142.737 39.1267C142.737 39.1267 148.745 30.5548 160.706 30.5548ZM219.165 40.3528C219.884 40.3528 220.081 41.2903 220.091 41.9257C220.155 45.4218 217.975 47.9838 215.046 48.1726C215.484 44.1889 217.131 40.3528 219.165 40.3528ZM177.291 40.3528C178.308 40.3528 178.308 41.7471 178.258 42.6297C178.088 44.9994 176.705 47.7811 173.22 48.1761C173.66 44.1923 175.396 40.3528 177.291 40.3528Z" fill="#CE0E2D"/>
<path d="M77.3778 30.5548H122.927C123.749 30.5484 124.562 30.3752 125.317 30.0455C126.071 29.7157 126.753 29.2361 127.322 28.6349C127.891 28.0337 128.335 27.3231 128.629 26.5451C128.922 25.7671 129.058 24.9375 129.03 24.1052C129.03 24.1052 129.03 23.8202 128.999 23.6794C128.941 23.202 128.321 22.7246 128.019 23.2123C127.358 24.2426 125.334 24.3216 123.697 24.3216H77.3574C78.0068 25.2262 78.3526 26.318 78.344 27.4365C78.3416 28.5511 78.0046 29.6387 77.3778 30.5548Z" fill="#CE0E2D"/>
<path d="M73.0179 30.5582C74.7181 30.5582 76.0963 29.1621 76.0963 27.4399C76.0963 25.7177 74.7181 24.3216 73.0179 24.3216C71.3177 24.3216 69.9395 25.7177 69.9395 27.4399C69.9395 29.1621 71.3177 30.5582 73.0179 30.5582Z" fill="#CE0E2D"/>
<path d="M123.873 38.2648H119.632C119.532 38.2648 119.435 38.2986 119.356 38.3609C119.278 38.4231 119.222 38.5101 119.198 38.6082L116.292 49.385C115.356 52.5857 114.109 54.241 112.902 54.241C111.695 54.241 111.498 52.6475 111.8 51.2979L115.153 38.8761C115.172 38.8051 115.175 38.7307 115.161 38.6584C115.148 38.5861 115.118 38.518 115.075 38.459C115.031 38.4001 114.975 38.352 114.91 38.3183C114.846 38.2847 114.775 38.2663 114.702 38.2648H110.427C110.328 38.2656 110.231 38.2997 110.154 38.3619C110.076 38.4241 110.02 38.5107 109.996 38.6082L109.779 39.3363L108.084 45.6485C107.782 46.8917 107.443 48.0525 107.152 49.1137C106.663 50.6931 105.692 52.0746 104.378 53.0596C103.706 53.5451 102.977 53.9453 102.209 54.2513C103.388 52.4312 104.26 49.986 104.806 47.2317C105.823 42.0802 104.684 38.0381 100.927 38.0381C100.097 38.0148 99.2744 38.1928 98.5266 38.5572C97.7788 38.9216 97.1278 39.4619 96.6281 40.133L96.9671 38.8589C96.9857 38.7897 96.9885 38.7171 96.9751 38.6467C96.9618 38.5763 96.9328 38.5099 96.8903 38.4525C96.8478 38.3952 96.7929 38.3485 96.7298 38.316C96.6667 38.2834 96.5971 38.2659 96.5264 38.2648H92.5257C92.4315 38.265 92.3399 38.2958 92.2642 38.3527C92.1886 38.4095 92.1329 38.4894 92.1053 38.5807L91.946 39.1027L89.0337 50.0169C88.6584 51.3221 87.8562 52.4592 86.7588 53.2417C86.3199 53.5431 85.8598 53.8117 85.3823 54.0453C85.9243 52.9233 86.1995 51.6883 86.1858 50.4393C86.1146 46.5311 84.5618 42.6778 84.511 39.9579C84.4692 39.0544 84.7062 38.1601 85.189 37.3993C85.2298 37.348 85.256 37.2865 85.265 37.2212C85.2739 37.156 85.2652 37.0896 85.2398 37.0289C85.2144 36.9683 85.1733 36.9158 85.1207 36.877C85.0682 36.8382 85.0063 36.8146 84.9415 36.8086H82.592C82.4407 36.8051 82.2911 36.8416 82.1579 36.9144C82.0248 36.9873 81.9126 37.0941 81.8326 37.2242C80.768 38.9928 77.0861 45.8099 74.862 49.4811C73.4042 49.6906 72.0277 51.291 72.5736 53.0734C72.3498 53.3722 71.6887 54.2307 70.7631 54.2307C70.085 54.2307 69.8782 53.0356 70.5292 50.5251C70.5478 50.4527 70.5625 50.3794 70.5733 50.3053L73.6449 38.8245C73.6619 38.7597 73.6641 38.6918 73.6513 38.626C73.6386 38.5602 73.6113 38.4982 73.5715 38.4446C73.5317 38.391 73.4804 38.3473 73.4214 38.3168C73.3625 38.2862 73.2975 38.2696 73.2313 38.2682H69.2646C69.0898 38.2518 68.9145 38.2931 68.7648 38.386C68.6151 38.4788 68.499 38.6182 68.4339 38.7833L68.2814 39.326C68.2814 39.326 65.7386 48.9076 65.2911 50.5561C64.8436 52.2045 63.4434 53.5336 62.3754 53.5336C60.4463 53.5336 60.5243 48.5195 63.501 39.3946L63.6366 39.0512C63.6627 38.9855 63.6725 38.9143 63.665 38.8439C63.6576 38.7735 63.6333 38.706 63.5941 38.6474C63.555 38.5887 63.5022 38.5407 63.4404 38.5075C63.3787 38.4743 63.3098 38.457 63.2399 38.4571C61.8838 38.4777 58.1104 38.8761 55.9778 38.0484C56.1304 37.3615 56.2355 34.6141 53.0757 34.6141C52.6846 34.6001 52.2953 34.6747 51.9363 34.8324C51.5772 34.9901 51.2574 35.2269 51.0002 35.5257C50.7429 35.8244 50.5547 36.1775 50.4492 36.5593C50.3438 36.9411 50.3237 37.3418 50.3905 37.7324C50.6448 39.2504 51.9806 40.1055 52.8892 40.5142C51.4042 45.2776 49.0852 51.4593 47.9427 53.9079C47.502 54.8592 46.1967 56.7137 44.8914 56.7137C44.0404 56.7137 43.9285 55.9204 43.915 55.2301C43.8845 53.5439 47.2138 46.1052 47.1765 41.4037C47.1765 40.2463 46.4984 37.6844 43.6539 37.6844C42.093 37.6528 40.5681 38.1616 39.3312 39.1268C39.3312 39.1268 45.1457 30.5411 57.0865 30.5411H68.6509C68.0198 29.6296 67.6824 28.5429 67.6847 27.4296C67.681 26.3119 68.0263 25.2216 68.6713 24.3147H57.0085C46.4984 24.3147 37.7717 37.049 35.7103 39.7209C36.7274 36.7812 38.7244 30.6029 38.6803 28.2126C38.582 22.7178 32.3064 22.4259 29.1636 23.645C28.8245 23.7824 28.95 24.3525 29.3161 24.4246C30.3638 24.6341 32.3675 25.424 31.6351 28.4255C31.5707 28.8857 23.2746 59.7221 23.2746 59.7221C23.2538 59.797 23.2503 59.8757 23.2643 59.9522C23.2782 60.0286 23.3093 60.1008 23.3552 60.1632C23.401 60.2255 23.4604 60.2764 23.5287 60.3119C23.597 60.3474 23.6724 60.3665 23.7492 60.3678H29.6213C29.723 60.3675 29.8218 60.3339 29.9031 60.272C29.9843 60.2101 30.0437 60.1232 30.0722 60.0244C30.6486 57.9432 33.0015 49.5601 33.0286 49.4846C34.3847 45.6691 36.5511 42.434 38.6091 42.434C40.4229 42.434 39.9652 44.2129 39.5516 45.6485C38.7142 48.5367 37.992 51.2979 37.2055 54.2754C35.9816 58.8945 39.6228 61.0787 42.7623 61.0787C47.2104 61.0787 48.8649 57.8093 50.1736 54.9588C51.6517 51.7615 54.4996 43.2033 55.1336 41.0946C55.9809 41.2654 56.8382 41.3801 57.7001 41.438C57.673 41.5342 56.6118 45.7103 56.2321 47.2763C55.8354 48.9316 55.3981 50.5457 55.371 52.2972C55.3337 54.4746 56.1541 57.6169 59.3546 57.6169C60.2976 57.6282 61.2314 57.4274 62.0886 57.0289C62.9457 56.6304 63.7049 56.0442 64.3113 55.3125C64.4164 55.1889 64.5181 55.0584 64.6198 54.9313C64.7292 55.3775 64.9302 55.7952 65.2097 56.1574C66.02 57.1877 67.2711 57.5551 68.6001 57.5551C70.7326 57.5551 72.638 56.0852 73.3906 55.1683C74.1467 56.3978 75.7062 57.5723 78.666 57.5723C78.9101 57.5723 79.1474 57.5723 79.3746 57.5517C82.3174 57.4143 85.4772 56.4321 87.7521 54.8043L87.3961 56.1505L85.4908 63.2938C85.4707 63.3689 85.4677 63.4477 85.4822 63.5241C85.4966 63.6005 85.5281 63.6726 85.5742 63.7349C85.6203 63.7971 85.6798 63.8479 85.7482 63.8834C85.8165 63.9188 85.892 63.938 85.9688 63.9394H90.1627C90.2652 63.9395 90.3651 63.9062 90.4475 63.8443C90.5299 63.7825 90.5905 63.6954 90.6204 63.596L92.5969 56.0406C93.275 57.0468 94.4582 57.5792 96.9739 57.586C100.751 57.586 104.27 56.1162 106.487 53.6641C106.758 56.0509 108.494 57.5792 110.217 57.5723C111.291 57.5723 113.109 57.4315 114.573 55.6834C114.573 55.6834 114.014 57.744 113.814 58.2626C109.166 58.2626 105.677 60.8486 105.735 63.6544C105.768 65.5776 107.894 66.9616 110.206 66.9616C115.546 66.9616 117.19 63.3762 118.343 60.6254C119.109 60.749 121.12 61.2916 121.676 61.4359C121.729 61.4498 121.785 61.4529 121.839 61.445C121.893 61.4372 121.946 61.4185 121.993 61.3901C122.04 61.3617 122.081 61.3241 122.114 61.2795C122.147 61.2349 122.171 61.1842 122.184 61.1302L122.462 60.2785C122.527 60.0381 122.442 59.6912 122.208 59.626L118.987 58.7262L124.293 38.9001C124.316 38.83 124.323 38.7556 124.313 38.6825C124.303 38.6094 124.277 38.5395 124.237 38.4782C124.196 38.4169 124.142 38.3658 124.079 38.3288C124.016 38.2918 123.946 38.2699 123.873 38.2648ZM78.4016 55.3778C77.6692 55.3778 77.0081 54.9794 76.998 54.6016C76.998 54.0178 77.832 53.6572 77.8049 52.2526C77.8049 51.528 77.4658 50.4393 76.7878 50.0787C77.2556 49.3541 80.0527 44.2129 80.3375 43.5536C80.9476 45.9594 81.2608 48.4327 81.2698 50.9167C81.3105 53.4958 79.8764 55.3778 78.4016 55.3778ZM99.8523 45.1608C99.0284 50.2023 97.5096 54.5089 95.1465 54.5089C93.8819 54.5089 93.3767 53.1352 93.9022 51.188C94.604 48.5813 95.2007 46.2254 95.3736 45.5798C95.933 43.4986 96.9298 41.3625 98.6962 41.3625C99.5946 41.3453 100.303 42.3722 99.8523 45.1608ZM109.661 64.094C109.533 64.1047 109.404 64.0894 109.282 64.0487C109.161 64.0081 109.048 63.9431 108.952 63.8575C108.855 63.772 108.777 63.6677 108.721 63.5508C108.665 63.4338 108.633 63.3068 108.626 63.177C108.593 61.35 111.339 60.3403 113.149 60.2476C112.197 62.5932 111.508 64.0768 109.661 64.0768V64.094Z" fill="#CE0E2D"/>
<path d="M235.293 75.8941C235.293 75.3 234.839 75.0115 234.31 75.0115H232.862V78.1024H233.473V76.921H234.12C234.568 76.921 234.622 77.3057 234.649 78.1059H235.263C235.225 77.5426 235.307 77.0206 234.754 76.6806C234.915 76.625 235.054 76.5186 235.151 76.3771C235.248 76.2356 235.298 76.0664 235.293 75.8941ZM234.215 76.4539H233.473V75.4717H234.252C234.311 75.4756 234.368 75.4913 234.421 75.5179C234.473 75.5445 234.52 75.5814 234.558 75.6265C234.596 75.6716 234.625 75.724 234.643 75.7805C234.661 75.8371 234.668 75.8968 234.663 75.956C234.666 76.0183 234.658 76.0808 234.637 76.1397C234.617 76.1987 234.585 76.2529 234.544 76.2993C234.502 76.3456 234.452 76.3832 234.396 76.4097C234.341 76.4363 234.28 76.4513 234.218 76.4539H234.215Z" fill="#006937"/>
<path d="M236.839 76.5913C236.839 77.1612 236.672 77.7183 236.36 78.1921C236.047 78.666 235.603 79.0353 235.083 79.2534C234.564 79.4714 233.992 79.5285 233.44 79.4173C232.888 79.3061 232.381 79.0317 231.984 78.6288C231.586 78.2258 231.315 77.7124 231.205 77.1535C231.095 76.5945 231.152 76.0152 231.367 75.4887C231.582 74.9622 231.947 74.5122 232.415 74.1956C232.882 73.879 233.432 73.71 233.995 73.71C234.749 73.71 235.473 74.0136 236.006 74.5539C236.54 75.0943 236.839 75.8272 236.839 76.5913ZM233.991 74.1873C233.522 74.1873 233.063 74.3283 232.673 74.5925C232.283 74.8566 231.979 75.2321 231.799 75.6714C231.619 76.1106 231.572 76.594 231.664 77.0603C231.755 77.5267 231.981 77.955 232.313 78.2912C232.645 78.6274 233.068 78.8564 233.528 78.9491C233.989 79.0419 234.466 78.9943 234.9 78.8123C235.333 78.6304 235.704 78.3223 235.965 77.9269C236.225 77.5316 236.365 77.0668 236.365 76.5913C236.366 76.2751 236.305 75.9617 236.186 75.6693C236.067 75.3768 235.892 75.111 235.672 74.887C235.451 74.6631 235.19 74.4854 234.901 74.3641C234.613 74.2429 234.304 74.1805 233.991 74.1805V74.1873Z" fill="#006937"/>
</g>
<defs>
<clipPath id="clip0_1836_60493">
<rect width="247" height="88" fill="white"/>
</clipPath>
</defs>
</svg>
